<mxfile host="65bd71144e">
    <diagram id="x5MRRwAtuDwKRfn0gbdV" name="PÃ¡gina-1">
        <mxGraphModel dx="2011" dy="1978" grid="1" gridSize="10" guides="1" tooltips="1" connect="1" arrows="1" fold="1" page="1" pageScale="1" pageWidth="827" pageHeight="1169" math="0" shadow="0">
            <root>
                <mxCell id="0"/>
                <mxCell id="1" parent="0"/>
                <mxCell id="11" value="" style="rounded=0;whiteSpace=wrap;html=1;strokeWidth=4;gradientDirection=north;strokeColor=#0B1329;" parent="1" vertex="1">
                    <mxGeometry x="-710" y="-740" width="2660" height="2070" as="geometry"/>
                </mxCell>
                <mxCell id="2" value="" style="rounded=0;whiteSpace=wrap;html=1;strokeColor=#18F018;strokeWidth=4;" parent="1" vertex="1">
                    <mxGeometry x="133" y="375" width="100" height="60" as="geometry"/>
                </mxCell>
                <mxCell id="4" value="&lt;p&gt;&lt;font face=&quot;Georgia&quot;&gt;&lt;b&gt;Layer&lt;/b&gt;&lt;/font&gt;&lt;/p&gt;" style="text;html=1;strokeColor=none;fillColor=none;align=center;verticalAlign=middle;whiteSpace=wrap;rounded=0;strokeWidth=4;" parent="1" vertex="1">
                    <mxGeometry x="53" y="390" width="60" height="30" as="geometry"/>
                </mxCell>
                <mxCell id="5" value="" style="rounded=0;whiteSpace=wrap;html=1;strokeWidth=4;strokeColor=#2FCCCC;gradientColor=none;gradientDirection=north;" parent="1" vertex="1">
                    <mxGeometry x="133" y="280" width="100" height="60" as="geometry"/>
                </mxCell>
                <mxCell id="6" value="&lt;p&gt;&lt;font face=&quot;Georgia&quot;&gt;&lt;b&gt;Class&lt;/b&gt;&lt;/font&gt;&lt;/p&gt;" style="text;html=1;strokeColor=none;fillColor=none;align=center;verticalAlign=middle;whiteSpace=wrap;rounded=0;strokeWidth=4;" parent="1" vertex="1">
                    <mxGeometry x="53" y="295" width="60" height="30" as="geometry"/>
                </mxCell>
                <mxCell id="7" value="" style="rounded=0;whiteSpace=wrap;html=1;strokeWidth=4;strokeColor=#8F33CC;gradientColor=none;gradientDirection=north;" parent="1" vertex="1">
                    <mxGeometry x="133" y="190" width="100" height="60" as="geometry"/>
                </mxCell>
                <mxCell id="8" value="&lt;p&gt;&lt;font face=&quot;Georgia&quot;&gt;&lt;b&gt;Interface&lt;/b&gt;&lt;/font&gt;&lt;/p&gt;" style="text;html=1;strokeColor=none;fillColor=none;align=center;verticalAlign=middle;whiteSpace=wrap;rounded=0;strokeWidth=4;" parent="1" vertex="1">
                    <mxGeometry x="53" y="205" width="60" height="30" as="geometry"/>
                </mxCell>
                <mxCell id="9" value="" style="rounded=0;whiteSpace=wrap;html=1;strokeWidth=4;gradientDirection=north;gradientColor=none;strokeColor=#994C00;" parent="1" vertex="1">
                    <mxGeometry x="133" y="100" width="100" height="60" as="geometry"/>
                </mxCell>
                <mxCell id="10" value="&lt;p&gt;&lt;font face=&quot;Georgia&quot;&gt;&lt;b&gt;Model&lt;/b&gt;&lt;/font&gt;&lt;/p&gt;" style="text;html=1;strokeColor=none;fillColor=none;align=center;verticalAlign=middle;whiteSpace=wrap;rounded=0;strokeWidth=4;" parent="1" vertex="1">
                    <mxGeometry x="53" y="115" width="60" height="30" as="geometry"/>
                </mxCell>
                <mxCell id="13" value="" style="shape=image;verticalLabelPosition=bottom;labelBackgroundColor=default;verticalAlign=top;aspect=fixed;imageAspect=0;image=https://blog.cleancoder.com/uncle-bob/images/2012-08-13-the-clean-architecture/CleanArchitecture.jpg;" parent="1" vertex="1">
                    <mxGeometry x="69.64999999999999" y="-90" width="163.35" height="120" as="geometry"/>
                </mxCell>
                <mxCell id="14" value="" style="rounded=0;whiteSpace=wrap;html=1;strokeWidth=4;strokeColor=#FC0000;" parent="1" vertex="1">
                    <mxGeometry x="133" y="470" width="100" height="60" as="geometry"/>
                </mxCell>
                <mxCell id="15" value="&lt;p&gt;&lt;font face=&quot;Georgia&quot;&gt;&lt;b&gt;External&lt;/b&gt;&lt;/font&gt;&lt;/p&gt;" style="text;html=1;strokeColor=none;fillColor=none;align=center;verticalAlign=middle;whiteSpace=wrap;rounded=0;strokeWidth=4;" parent="1" vertex="1">
                    <mxGeometry x="53" y="485" width="60" height="30" as="geometry"/>
                </mxCell>
                <mxCell id="16" value="" style="rounded=0;whiteSpace=wrap;html=1;strokeColor=#18F018;strokeWidth=4;" parent="1" vertex="1">
                    <mxGeometry x="380" y="-30" width="600" height="210" as="geometry"/>
                </mxCell>
                <mxCell id="17" value="&lt;p&gt;&lt;font face=&quot;Georgia&quot;&gt;&lt;b&gt;Infra (Controllers, gateways...)&lt;/b&gt;&lt;/font&gt;&lt;/p&gt;" style="text;html=1;strokeColor=none;fillColor=none;align=center;verticalAlign=middle;whiteSpace=wrap;rounded=0;strokeWidth=4;" parent="1" vertex="1">
                    <mxGeometry x="380" y="-70" width="150" height="30" as="geometry"/>
                </mxCell>
                <mxCell id="18" value="" style="rounded=0;whiteSpace=wrap;html=1;strokeColor=#18F018;strokeWidth=4;" parent="1" vertex="1">
                    <mxGeometry x="280" y="375" width="590" height="395" as="geometry"/>
                </mxCell>
                <mxCell id="19" value="&lt;p&gt;&lt;font face=&quot;Georgia&quot;&gt;&lt;b&gt;Domain(UseCases and Entities)&lt;/b&gt;&lt;/font&gt;&lt;/p&gt;" style="text;html=1;strokeColor=none;fillColor=none;align=center;verticalAlign=middle;whiteSpace=wrap;rounded=0;strokeWidth=4;" parent="1" vertex="1">
                    <mxGeometry x="350" y="335" width="130" height="30" as="geometry"/>
                </mxCell>
                <mxCell id="21" value="" style="rounded=0;whiteSpace=wrap;html=1;strokeWidth=4;strokeColor=#8F33CC;gradientColor=none;gradientDirection=north;" parent="1" vertex="1">
                    <mxGeometry x="675" y="450" width="140" height="60" as="geometry"/>
                </mxCell>
                <mxCell id="33" style="edgeStyle=none;html=1;exitX=1;exitY=0.5;exitDx=0;exitDy=0;entryX=0.5;entryY=0;entryDx=0;entryDy=0;strokeColor=#B5B5B5;strokeWidth=3;fontFamily=Georgia;" parent="1" source="23" target="21" edge="1">
                    <mxGeometry relative="1" as="geometry"/>
                </mxCell>
                <mxCell id="35" style="edgeStyle=none;html=1;exitX=0.5;exitY=0;exitDx=0;exitDy=0;entryX=0.5;entryY=1;entryDx=0;entryDy=0;strokeColor=#B5B5B5;strokeWidth=3;fontFamily=Georgia;" parent="1" source="23" target="24" edge="1">
                    <mxGeometry relative="1" as="geometry"/>
                </mxCell>
                <mxCell id="23" value="PrismaStudentsRepository" style="rounded=0;whiteSpace=wrap;html=1;strokeWidth=4;strokeColor=#2FCCCC;gradientColor=none;gradientDirection=north;" parent="1" vertex="1">
                    <mxGeometry x="710" y="20" width="170" height="60" as="geometry"/>
                </mxCell>
                <mxCell id="24" value="" style="rounded=0;whiteSpace=wrap;html=1;strokeWidth=4;strokeColor=#FC0000;" parent="1" vertex="1">
                    <mxGeometry x="745" y="-240" width="100" height="60" as="geometry"/>
                </mxCell>
                <mxCell id="25" value="&lt;p&gt;&lt;font face=&quot;Georgia&quot;&gt;&lt;b&gt;Prisma&lt;/b&gt;&lt;/font&gt;&lt;/p&gt;" style="text;html=1;strokeColor=none;fillColor=none;align=center;verticalAlign=middle;whiteSpace=wrap;rounded=0;strokeWidth=4;" parent="1" vertex="1">
                    <mxGeometry x="765" y="-225" width="60" height="30" as="geometry"/>
                </mxCell>
                <mxCell id="26" value="&lt;p&gt;&lt;font face=&quot;Georgia&quot;&gt;&lt;b&gt;StudentsRepository&lt;/b&gt;&lt;/font&gt;&lt;/p&gt;" style="text;html=1;strokeColor=none;fillColor=none;align=center;verticalAlign=middle;whiteSpace=wrap;rounded=0;strokeWidth=4;" parent="1" vertex="1">
                    <mxGeometry x="715" y="465" width="60" height="30" as="geometry"/>
                </mxCell>
                <mxCell id="37" value="StudentsController" style="rounded=0;whiteSpace=wrap;html=1;strokeWidth=4;strokeColor=#2FCCCC;gradientColor=none;gradientDirection=north;" parent="1" vertex="1">
                    <mxGeometry x="430" y="45" width="170" height="60" as="geometry"/>
                </mxCell>
                <mxCell id="39" value="&lt;p&gt;&lt;font face=&quot;Georgia&quot;&gt;&lt;b&gt;ToPrisma&lt;/b&gt;&lt;/font&gt;&lt;/p&gt;" style="text;html=1;strokeColor=none;fillColor=none;align=center;verticalAlign=middle;whiteSpace=wrap;rounded=0;strokeWidth=4;" parent="1" vertex="1">
                    <mxGeometry x="870" y="-150" width="60" height="30" as="geometry"/>
                </mxCell>
                <mxCell id="40" value="&lt;p&gt;&lt;font face=&quot;Georgia&quot;&gt;&lt;b&gt;ToDomain&lt;/b&gt;&lt;/font&gt;&lt;/p&gt;" style="text;html=1;strokeColor=none;fillColor=none;align=center;verticalAlign=middle;whiteSpace=wrap;rounded=0;strokeWidth=4;" parent="1" vertex="1">
                    <mxGeometry x="880" y="235" width="60" height="30" as="geometry"/>
                </mxCell>
                <mxCell id="41" value="&lt;p&gt;&lt;font face=&quot;Georgia&quot;&gt;&lt;b&gt;ToHTTP&lt;/b&gt;&lt;/font&gt;&lt;/p&gt;" style="text;html=1;strokeColor=none;fillColor=none;align=center;verticalAlign=middle;whiteSpace=wrap;rounded=0;strokeWidth=4;" parent="1" vertex="1">
                    <mxGeometry x="545" y="220" width="60" height="30" as="geometry"/>
                </mxCell>
                <mxCell id="42" value="&lt;p&gt;&lt;font face=&quot;Georgia&quot;&gt;&lt;b&gt;HttpModule&lt;/b&gt;&lt;/font&gt;&lt;/p&gt;" style="text;html=1;strokeColor=none;fillColor=none;align=center;verticalAlign=middle;whiteSpace=wrap;rounded=0;strokeWidth=4;" parent="1" vertex="1">
                    <mxGeometry x="480" width="60" height="30" as="geometry"/>
                </mxCell>
                <mxCell id="45" value="" style="shape=image;verticalLabelPosition=bottom;labelBackgroundColor=default;verticalAlign=top;aspect=fixed;imageAspect=0;image=data:image/png,iVBORw0KGgoAAAANSUhEUgAAAdQAAAGNCAYAAACopoBTAAAgAElEQVR4nOzdd3xb933v/9dZ2ATBvUVSoqi9LMuSJW/L207sJM1qkzrNapIm6e/20TYduU1v29umu/2laZKmzZ6Os2zH8ZStvScl7r03AWLjnPO9fxyIkizZlmXKksjv0w+YIohxAJB447s+X0UIIZAkSZIk6U1Rr/QBSJIkSdJcIANVkiRJkmaBDFRJkiRJmgUyUCVJkiRpFshAlSRJkqRZIANVkiRJkmaBDFRJkiRJmgUyUCVJkiRpFshAlSRJkqRZIANVkiRJkmaBDFRJkiRJmgUyUCVJkiRpFshAlSRJkqRZIANVkiRJkmaBDFRJkiRJmgUyUCVJkiRpFshAlSRJkqRZIANVkiRJkmaBDFRJkiRJmgUyUCVJkiRpFshAlSRJkqRZIANVkiRJkmaBDFRJkiRJmgUyUCVJkiRpFshAlSRJkqRZIANVkiRJkmaBDFRJkiRJmgUyUCVJkiRpFshAlSRJkqRZoF/pA5Ak6SKJV3wrLnyx16Morzzj0m5HkqRzyUCVpCtJOCeR/bewAfsVXwUIy/n36fNP/0xkrw/Zn12AogAKKKrzdebfqvNV0c79HjV7HfXMdU7fhiRJr04GqiS9Bc4OSGFlT6ZzstMgMmCbYKdecUqDncleznSuh3XWbZwO5NNB+0rKK0LxrPBUNVB056TqoBigukB1Z0+e7Pc6KC5QjezlNee807c1E9SSNM8pQlxqx5EkSefJhttMWGaypxTYSbCSYMXPnE6HpkifFZhXkZmwdTnhqnlB9YLuA83nhK52OoANJ5RPh64MWmm+kYEqSW+CsLOty3T2lAQr4YSlGXVOVswJ0tOt0Au2JK9FqhOiqgs0D2gB0AOg+Z2w1bzZoHWdaenKaZDSXCYDVZLeAGE5rUormf0aB2saMtNgRsCMOeeLzKuPac5p2S5mxXBCVg+AHgQ9Jxu23mxXcrY7WZEBK80hMlAl6TUIkW11ZrtozRiYYchEnAC1YmfGM6VXoWS7gA3Q/WAEQc/Nhuzp1qzPac1K0rVMBqoknU043bJW7EyXrRmGzBRkwk6oCovzlrBIb5DqdAFrfjBywQhlQzaQDVm/E8KSdC2RgSrNe8J2umnNbLdtJpIN0CnnPGEiA/QtoLqdUHWdDthg9hRwuoflBCfpaicDVZqXhOV05Z4dnqdboXZ8no5/Xka2sMmYaYQQGLqBpr72ij1FcyY5GbngCoEeckLWCDozjuXYq3Q1koEqzRvCzoZoGFJjNvHxDKkJGzPinH/6L0FVNAzNQDmvpJB0qbpG2tjTtI2p2AQ3Lr2d5VVrcOkXN2iqqM4Yq54LrjwwTp9kuEpXGVnYQZrbBFgpZxw0PQ7pCYiOJDl84iCHGveSSqXPu0pJqJxbVtxNcagMRfYzzor2oSZ+vOt/6B5pw6W7WFhSf9GBKuwz49mpIWemsB4EVz4Y+eAqcCY4qQayW1i6omSgSnOSsJzx0PQYpMYgPQlWxFkjOjYZZtuBZ/nRzq+TsTLnXXdJ+Urqy1dQnFt6gcK30qVIZZJMJ8JMxSaIJaex7UubFi2sbLjGIDXitFyNXCdY3YVOuMoJTdKVIgNVmlPspBOgqWGnRZqZOn9mbsZKMxUbZ3x6BI/LS03xYgpyilFVFVVRWViyhKAvF9ncuTws20K82VlewpksZkaciWOpYUj4na5gdyG4i52QVV2zc8ySdDFkoErXPuG8qSYHndPp2bl2mtednZsfKOLhjb/J5qV3oCgKiqLidwcoDpWjKApDU/3EklGKc0tx6W4a+46RyiRZVX09PrcfW9gMTvYxNNlPIh3D5/JTEqqgLL8SNTu4J4QgnJhiMjpG0Bsi6AsxHhmhf7wLFJXqokXk5xSiKipTsQm6RtpIpONUFtRQnl+Fpp7b3BJCMBWboGesg2gigtflo7p4EQU5xQCYVobJ6DiRxBRBXx4FgULU7G3EktOMT4+iKAqFwRK8Li+gIIRgcLKXeCpGyF9AQU7RzBhyMpOga7iViegYoFAULKGqqBaP4Z05poyVYSI6SiKVoCCnENMy6RltR9cNqovqzjl2y7ZmxqujyQijkWEUFMrzq2a6gcPxSbqGW4kmp/G5/VQUVFMULL3wuLY4U6nKDDvdwnqO01p1l4KnxGnJys9H0uUmA1W6dgmnNZrocVooZrZL940UWXDpbqoKa1mxYN35Ny8E//mrv6Nl8CQPb/wtBid62HHqOVJmks+/+59ZULiQb7z47zT1nSAcnyRjpjB0N0XBUm5ZcQ+PbPpNcry5RBJhfnXwMZ4+9DgbFt9McW4Zuxqfp2e0HVBYVLaU9938EVJmiqcO/pjm/gbSmRT5gSJ+46YPce91j2BoTlPLskx2ND7Pj3f9D4MTfaQyCVy6mwVFC7lrzdu4a93bmYyO85Pd32J30wusql7Pe276MItKl5Kx0jx39Bf86tDjCGHz6J2f4YbFN2PoLkbCA/zTzz9P/0QPd6x6gEfv/DQu3c2B1p08tvsbdA23EktFAQj6QiytXM0jG3+LVdXrURSFvrEuvr/9a3SNtLKudiPxdIw9Tdsozavg0Ts/i8hOmxYI7OwWOuHYJF955u850X0IYdv8xXv/jcXlyzjQtovvvvRlese6SGWSuHQ3NcV1fOD2T7J+0ebX/pWws0U4Es54ebIf4iEnWL1VztirnMQkXS4yUKVrS7arLzUMsS5njPRiW6MXvrnsf2dPdlecqUhCCI53H+Ro535Gw8NMRscIxyaxsZiMjtE6cIof7vhvhLAoCVWgqTq9Q82c6jnKwEQPRcFi7l3/TtJmko7hFnY3vUhzfwNuw81kdIxkJollW7QMNNAz2k4iFad3vJNkOolppwGF4XA/6xZuoqJgAQoKu5u38cXH/5jO4VZK8ipYUFhLz2gHjX3HnBahZnDdohuJxCc52LqTielR1i3cxMLSJcSSUQ607WL7yWewbIs1CzeyYsE6Qno+J3uOsKd5GyNTg2xd8xAA+1t38Dc//gOaBxqwbZviUBkZM01z/wlO9hxheLKfzz70v1lSsYrpRJiTPYc52LaL410HsWyTqeg404klhGMT5zy/AkHKTPKrgz/h53u/y2h4iHuveyf5OYWMR0b54k8/R0P3YUK+fFZUX0ckPsWJ7kM09ze8bqCe83uScWZ0Z6YhNQrxLvCUgrfaab3KcVZptslAla4Nwim+kOyHeLfT+jCj2aILb8JUdJxfH/op7YNNM+etql7P+rrN+FwBhLARwqZjqJnygiref+vHcekuFpUuwxaCt298P7etvIfSUCW2sDnYupN/e/Kv6B3r5FD7braufbvz5i5sLNtkLDLE0spVvP+Wj2FoLh7f822a+o9ztGMfRbllfPC2T1FXtoyf7P4G+1t30Dp4ihPdhyjPqySeTvA/z/8rLQMnqS9fyZ/+xj9Qnl9Fy8BJ/u4nf0zLwEm2NfyKtbUbWVhST8ATpH+8h67hNmzbYmiyj/5xp9UnEDT2HmUqNk7In8+Rjn1EExEC3iCrqzeQsdJ884V/50T3IXTNxace+FNuX3k/4fgkP9j+NZ4+/FP2tWznmSM/Z2HJEkAghE3aTDE+PcLyqrW856YPU1FQTW3xYpr6T5x5KYXNthNP8+Nd32A0PMSWZVv55P2fIz9QxI5Tz3G0Yz+qovKhrZ/lnnWPkDZTTEyPEgoUXNqLbJ8pHZmZgngvuEvAXwuuouzsYEmaBTJQpaubcN4IE9kgzUycNcloFoTjk7xw/Am2n3p25rwHr383dWXL8LkCM+f5PX4+/cCfs3XNQ+iqgc/tpzSvkg11N8280WcyKdKZJCF/PgMTPYxFRs6bzVpRUMN7bvoIb9v4PnRVp2esg66RVizb4l2bP8h7b/4oBcFiYukoDT1O4PWOtmMLQd94N/tbtqMqGqtrrqe+fAWGZlBTtJhlVWvoPdJJ71gn0WSY6qI6KgqqOdl7lJ7RdsYjI3SPtjM02Y+qaghh0zJwkpHwEOX5CzjefZB4OsbKBeupKamjb6ybg227sIXN6prr+cCtnyA/p4i0mcayLQ537GU8MszJniPE07FzHmNd2TIeveMz3LbyXly6C7fhoXngTKA29Z1gx6nn6BxuYWX1ej7z4J9TX74CVVVxG27s7AyyE92HuHXlvdSWLKaubCn2LCyZP73PrDntfDhzF4N/kdMlLINVerNkoEpXp9NB2ut01aUnsru4zHIRel0zyM8pJuTLR1U1NFWlsqAat+E553JFueXctGwr+TlFM2tTdc2gZ6yDn+39Du1DLcSS04RjE4xFhrCFjWmb581mDQXyqS6uI+TPR0GhIKcYl+7BFiaLy1dQGCzBbXioyK/G0J13+FgyCgh6RtuIp2IoisLuphfpGe0AIGOm6RvvwhY2iVSMeCpOWX4Vi8tXcLL3KN2j7XSOtNI10s7Y9Aj15SuYjI7RN9ZF/3g3AU+Qocl+LNtifd0W/O4ADd2HmYpPAE6LPS+nEABDN6guWkRxbhlDk/1MRseJp84EqqZqLCpdwtraDeRnr+M4MyNoX+t2MmYa08pwy4p7qK9Yia45j7W+fCWrq6/nWNcBtp34Fe2DjWxYfDMPbXgv1y268c2/4FkiA2bG+R1LDoG7yAlWT4UMVunSyUCVrjpWIhukHc7SFzt1+UoBluVV8Yl7/5hbV96Dsy0K+Fx+/J6ccy5naDpuw3NOoYfnjz3BF3/6OUbDQ6iqTn6gEIF9Zm3rBVpUmqKiqdrM7ThLdRQEKrpmoGRnzJx9GTv74OPpWDagFVKZJFOxcedugFx/HqFAAUsqVpEXKCAvUMDismV4DC+9Y5009p2gd7SdVCbJxvpb6BhuZm/zyzT1H2cyOkYkPoXb8HB93WZcuptEOoFtO/cb8OTMHIuCgq7pGJoBCGxhzVyO7CUMzY3xGkUbinPLGIsMYVoZtp/8NW+74T34PTmoikookM9fvu9L/Pfz/8KuphdoGThJz1gnRzr38an7/5T7rnvHxbysF02YYEUhkXDG5d0lEKgHT5mzUbokvRHyV0a6atgpSPRBrM2ZvWunuOybcRu6i/ycQkrzKs8/nlcExdlMM8O/PvGXdA63UFlQy5/9xj9QXVzH4GQfX/jBZ+gb75r1evpBb65zzJrOfde9i9/Z+plzfq4qKl53gLxAAaqisLCknqJgCcNT/extfolIfJKAJ8jahRvxunwc7zpIQ/cRmrUGphNhinPLWFqxGl0zCHhz0BQVExgOD2ILG1VRsYVNLDXNdCKMpmr4PTl43T6YvvjHsWXZnYyGh9nV+DwNPYd5bNc3+fQDf07AG0RVVFbVrOcv3/fvtA028sSBH/HY7m/S3HecH+/4OneteWimNTubhJXtEcnOGHeXQU690xUsJy9JF0sGqnTFCdPpdos2Q2oQrDSXPUhPUxXlkmr2TsUn6BvvBGBhST13rH4QRYFkOp4dA3w1ynnlDC82eGtLlpLjCxFPTtM+3ESON0TezEQdQdrMkDHTM+tWKwprWFi2hN7xLva3bMeyTeorVlJVWIum6uQFCjnVe4SMlSGeinLH6gfI9eWhKAqV+dWEAgUMTw2ws/F5BiZ6qSyoJpVJcqR9Hz1jHfjcARaVLsXvDpx7oK/5dCqEfPncd907GZrs42TvEb6//WvctPwuNi+9g3BsEhTIzylivT+fysIa2oeb2d34AqPTw0ST04T8+Rf5jL1xM8Ha6axn9VZCzjIwCmTRLOn1yUCVrhzhdOlON0K8561pkV7YG3+nDHhz8btziMSnaOw/xmO7v4GuGvxk9zfpH++e6bqdTRX5Vdy+4j5+eeAHHGjdwae++m5uXnE3HsNLz1gHrQMnWbdwE3/w9r9CURTK8qpYXLacnaeeZzI6hnK61ZpbSsATpDhUTvdoO7ZtoakaN9Tf7LQ2gZqSxdyy/B4e2/0NhiZ6+diX3s6W5VsZiwyz/eQzpDIpaosXc8+6h88bb1Z49WdUVRRchptlVWt4/60f559+/ueMR0b4p198ntXV63m54df821P/h3vWPkx9+Qo6h1tp6D6Eobkoy6si6AvN+vN6IcJ29sSNtUJyAHy1TrDqOa9/XWn+koEqXRFWDKabnFapleCt32/0DWboKy/uMTx8+sHP8/nvfYKhyX7+7Lu/i6o4XaC1JUvoGml9M3d3QYbu4nPv+iJDU/0caNvBnuZt7G15aebnQW+IVdXrZ74vyClkUelSAp4gU7FxPC4fNcV15PkLKAgUUVVQzbGOfSTtBD53DmtrbsCTDUdN1fiDh/+KrrE2Drbu5FTfMRr7j4MARVGoLlrEx+/5Y9bXbTnrEb7+o1QUBV010FWdt214D3ubX+LXhx/naMc+frjzv6kqrKV7pJ2vPfuPTs9B9vdiUdkyPn7PH85Un3qrCNuZERw5AYluyFkB/jpZ0lC6MLl9m/TWyZaIS/RC5Lgzc/dKSKTjHO3cz5GOfRQFi9m89HYqCmoueNmnDj5G+1AT1UWLuGfdI3hcZ8rtCSE41nmAJw78kJHwEItKl3DX2reRsTPsadpGffkKblt5Hxkrw7HO/Rxo3Ul5fhWbl94+M2Z7vOsg+1udpTBb1zxIZWEtqqIyEh7k6UOPE45NcOeaB1letXam1RtLRnmp4Wn2NG3L1iP2U1O8iA2Lb2Jd7Ua8bv/MMfZP9LCn6UX6x7spyCnmpuV3UVPslAI80XWQA207iSTC2W7rBwh4guc8ftPK8OKJp9jd+CIj4SH87gArqtdx5+qHqCo885xNRsfY2/wSHUMtLK9ex8bFN+M7qyu4f6Kb7Q3PMjE9ys0r7mJp5WpcupuhqX5+ffhnTEbHWLdwI1uWbWV/y3ZeOP4UQ1N95PpCrFywnnvXPUJBsPhNvvJvnqI646rBVc446+ts6yrNMzJQpcsvW90oPQ6RU84n/dle/iJJbyXV4xSGCCxxCvLLiUsSyECVLjNhOcsSYu1OF68Vv9JHJEmzRHHCNLAEfNVOAX5ZJ3h+k4EqXR7ZUoGJQZg+CemRy7eWVJKuJNUAT6UTrO6i7PiqnBE8L8lAlWadMCETcSYcxVqzheuvcaZlEktNk0jHsSwTRVFw6R4CnpxzxlVfjwCEbc0UawBmto271Ak3tm0xnYwQT0VxG15yfSE0Obj3ltODEFjszAjWc2Q38HwkA1WaPQKspFMjNXIiO+loDvx2JdJxGroPs/3kMzT0HCYcm0DTdKqLFnPz8ru4deU9F702MhKfonu03VlvmX1ydM3A6/aT4wkS9OWR6w/NbNd2MSaiY/xwx9fZcepZViy4jt++/ffOmTAkvXUUHTzl2dZqCWhuZGt1HpEfY6VZIUxnJ49oC0RbnVqpc4EQNjtPPcc//uLztA82EfDkEPAEiSYjHGzbxXPHfs4n7/sTPnr3H1xUC/NA206+9NTf0DHUPHOeoigYmkFJqIL1dVu4c/WDrK65fqbIwuuJxCd58fiTHGzbxXQ8zNbVD8pAvUKE6cxiz0yeGVvVg7K1Ol/IQJXeHOGsI00OQOSksz/pXGiVnhZPxfj2tv+gfbAJn8vPe2/+KCsXXEdj33H++7l/IhIP87O93+U3b/k4AW/wNW9LANPxMKPhIcLxSYqCJRQGS0BRiCejdI600th3nBePP8mHtn6Wd974QYK+0HmVlV4p4AmyacltKIrC0orVlITKZ/EZkN4w4axdDR+F9CgEljq72qivXt5YmiNkoEqXTFjOJ/FYhzNeaqeu9BHNvkgizMBEL6aVoThUxqN3fJqSvHI2Lb2N72//KilzHMsySVtvfKD49tUP8q7Nv41Ld9M33sXOU8+x7cSv6B/v5iu//iILS+q5adlWdM0glpwmkpjC6/IT8AQZDQ8RT0cpzCkhP1DIo3f8Hvese4S8QAGloQriqVi23q5OjjcXt3Hm3TyVSTKdCGPZFrn+vJmi/xkzzWRsnGgigmVb+D0BCoMluM4qdG9aGSaj4yiKQtAXIp6KMTE9itftoyi3DFVRiadiTMXGSaYTaKpOri9E0Be6LDV4r2bCzO7dOwU5S52NzfWAnAk8l8lAlS6JnczW322C5ODcXVfqMTzkBQrQVI1wfJL2oSYEgueO/oJ4KopLd7OmdsNM4fo3ojhYypKKleT68lhbewM31t+Gzx3gJ7u/ycjUIE8e+DFrazeS689jd9M2dpx6loWlS1letYanDvyYsekR7l33Dm5deQ+7m7ZxpGMfi0qXcOeah+gZbefF40/hcfm4fdX9rKnZgKIo2MKmoecw208+SyIV45Ebf4v68pVE4lMcaNvBwbZd9I51kjEzlITKub5uC1uW3klxqAwhBMNTA3zv5a/gMjxsqLuZxt6jHO7YQ33FSt5700dImUl2Nb7A8a6DTERHceseFpYu4b7173T2PJ2HaWKGIXwI0pMQqHNaq3Inm7lJvqzSG3K6FFui22mVZiLMqS7eVwr68rhj1YO0DzUxFhnhO9u+TFl+JU8c+BGqonHD4pv54O2fmpXWV0GwmLdvfD97m1+iKXGcvS0vE0lMEfSFeKnhab738leoKKimsrCWQ2278LsDFOQUsW7RRp4/9gRPHvgRG+tvYU3tDXSOtPGT3d8ikY6jAEsqVuJ1+Uik4zx39Jd8f/tX8bp8bF52JxUFNfxi/w/4xgv/xnhkmIqCahRFYU/zizxx4If89u2/xyfv/xwu3cPQ1ADffPFLGJrBgZYdNPYdYzoRYSo2wXULb+RQ2y6+v/2rWLZFSagcWwj2t+6gJFRObfHi8+r+zhe26cx4N6ecLmBvFWgXPzlcukbIQJUumjAhNepsrxbvdlqpc52matyy8h5+sf97hGOTPHfslwgEub4Q77jxA/zGlkdZUrGK410HSJtpyvOrKM9fcMn3t6CwltJQBa2Dpxia7COaiJyzr+rARC/TiTBblt5JecECllWtOa8Qv9vwUFu8mAVFCznSsZe2wUaGJvupLVnMyNQA7UNNxJJR1tVuoiyvkobuQ3z/5a8wMN7NXWvezkM3vBdd0/nl/h/w1MHH+M5LX+aOVfezuvaGmfuIJKY40rmPBYW13Lz8bmpL6xmfHualk78mkghz55qHeNuG96KqKi39J6ktqUdV51/r9BwCUiNgRsGMOBuaGyHkLOA5RAaqdFHsJCT6nVm8qWEnXOeDocl+9jS9SDwVBQUs2wIEOd5c3rX5UdbU3sDI1ABfeupviKViPLThPbz35o9c8v25dA9elw9VUUmZSdJm6pwOAFVRuXXFvfzuvX9EUW4pmqqTMs/9ZKOgUFGwgOVVaznRfZD2oWY6hpqpKa6jdbCR3rFOVEVh7cIbKAyW8PjubzE42Yfb8PDAhnezftFmNE0nZaZ49ugviCan2duy/ZxAVRWVBYW1fPTuP2DTktsxdIOG7kMk0wkURcGteygNVbC4fDk3L78LTdXR38BSoLnMikOkwQnV08trZBfw3CBfRum1ZWcsxruclmlmav5UPEqbKX669zt8e9t/MDE9woa6m5mKT9I60MDw1ACP7/kWIX8+iXScnY3Po2sGG+tveVP3mbHSpMwUQtioqoqhuc5pwLgMN2+74f0sX7Bu5vzByd7zbqcwp4RllWsI+vLoG++ibbCRDYtvoqnvBCNTAxQGnZ97XF7ah5tJpOO4dBc7Gp/jWNcBFJz1rSAQQjAw0XPO7bsND6tqruee695BwOPsaVZVWMuSipV0DDezs/E5Yslprq/bwobFN7GkYuU5k5vmO2FCvBPMWHZ5zQKnPrB0bZOBKr0qYUNmHKJtzpipGWNOj5e+UtdIG08f+gkjUwPUlS3jk/f9CZHEFF/99d9zsvcIj2fHKCvzq0mk4xQFS6kuWvSm7nNyeoyJ6VEs26Igpxi/J4ez+wR1VackVPa6vYRul4dFZUupLqrjWOc+WgdP0dh3jPahRiKJKbZUb2VB0UKEECTScWxhk7EyHGzdMdOSFEJQUVCDrupUFdaec/uaqhH0hvC6fDPnVRbU8vDG95M20xzt2MtLDU9zsH0Xu5tf5Ldv/z1uXHL7G6oqNdeJbBewlXC6gQN1zppV6dolA1W6IGE6s3ejzc7Xubgk5vV0DDUzER3DFjZ1ZctYU3M9PncAl+7mq8/8A0c69vLE/h+SFyhAVVTK8qvO2Y/0jUqbKXY1v8jARA+WbbGqej05nuC5xR0ucrxNQWFBYS3LqlZzovsALQMn2XbiabpH2lEVlVU16ynOLcfQDAzVQEHBY3j5rds+SVGw5Jw70jSNZRWrX/c+vW4fNy69g9K8Ko517mdP8zb2NG9j56nnKAqWsrB0yZv+wDHnCKfrd/qUs0dwYKlTD1i6NslAlc5jpyDRA9PNTqGG+TJe+kouw4OaLXHTP97D4FQfdWXLuX3VfXgMD5//3qfoGetgeGoAQ3OR5y/E7w5gC/uilodYtknGTJNMJxifHmVvy0v8ZPc3GY+O4vcEuHvtw/i9Oa+41sXPYCnKLWVZxWqCvjy6RlpJpuOMT49mu4NXE/TlYmgGFQXVuA0Plm1RFCzjztX34zI8IASWbTGdCBMK5PNaRUoFEEtGSKYTLC5fTl3pUpZVrSaeivFSw9N0DrcyGR2Xgfoq7KSznttKOGtWPZVyveq1SAaqdA4rli3U0AKZMDBPxksvZHnlahYULWRwspeWgQb+8Wd/zuqaDQR9ufSPdxNPxQBQVQ3btmgZaOD/f+qvuW/9O9m8bOvrRt9LDb9mODzorHGNTdI21EjfWCcu3c0jm36LW1bcjVs/d2DtjUwIdelu6sqXU1u8mMMde0ikYthCcNOyO6kurnPGZxWFW1few87G5+gb6+Z/nv8XesfaKctbQCqTYHCyl57RDv7wHf+XomDpq9+ZsGnqO86TBx6jJFTOgqJaxiIjTEyPIIRNYbAY/1kbjkvnExmnDraddGpi+2qyO9dI1wwZqJJDOGtKY63O3qVmlHk1XnohxaFyHr3z05hWmoaew2w78SsOd+zBrXsIJz3ajPwAACAASURBVKZACJZWrmJj/a009h7nWNd+njr0E/Jzirhx6R3nLWdRAF03ZtasNvYdo2WgAQUFVdPxuXwsq1rL7Svv46Eb3kdJqAJFURBCoGVbygrKBer7Kmfdl8LZP64tXszSytUc7dxPxsrgMbysqr6e0uxtA2xachuPbPoAj+36Bse6DtA71knAE8S0M8QS0+i6i//PMlGyj8G5noKqqmeVRVSIJWMcbNvJSHiQoC9EKpNkKjZOTXEdd6x6gLL8yll8deYmYUFqDOwTTk+Rv06uV72WyECVnMlHkzDd6Ew+shJX+oiuDqqicvPyuyjIKeZoxz5aB04yER1DURQKcopZVLqUFQvWsaCwlv6JXnY3vcDgRC9LK1e/alH75ZVrePTOzzA81Y8QYqYwvs8doDi3jAVFC6ktWUyevwBVzYaoonDb6vtQVZUcby7FuefW6g14gmxd/SD5gQIWliwhL3BmEK4wWMyD1787WyYwSq4vjztWP0juWbvj5PryeN/NH6WubBnHOvfTP95NxsqQ4w1SkV9NfcVKioIlKIpKaV4Fj97xaWzbYtOS21FUZeYYl1Wt5iN3/S8Od+xhJDyIobmoLKxhXe1Grlu0Gb/7ld3X0gXZzmz66VNOqAbq5WSla4Xcvm2eE7ZTwDtyMtvdNA8nH70eIQTRZIRIfIpkJuFM4HF5yfHmEshOGrJsi0h8kmhymqAvRK4v74K3ZVoZYqkoGTON4HSLT0XXdDyGF5fuvmAYx1NRIvEpNM0gL1CAftZ+p7awiSWniSWjuA0PQV8ITT2zvUkynWA6Gca0TAzNdV5t39OcFuUEseQ0trAxdBcBdw453lxc2cubVobJ2DhCCAKeHHxndeMKYZNIJwjHJkik46iqht8TINeXJ5fMXArFaZ36apxxVSMPWQTiKicDdR4TFqSGnEXmyaG5s+XaNU8xUdQUipLKfs2Amsx+n0ZR0qBkQLGcnyFQFBOUs/6UhQJoCKGB0BBCRwgDhIGw3QjhBtuNsF0I4UIID8J2g5CdVlcVxdmlxlsFOcuyM4BlqF61ZKDOU8J0tlwLH8vO5J2jxe2vXhaKlkTRplG1aVQtgqJFULUoihpHUdOgpFGUTDYsLcAGxUbBzoan4MysMXH+G62YGfUEFIRQABWEmv3qBC3CQAgDIdwIy4uwAthWEGEFsa2c7L99yHfyK0d1ORuX56wEz7mrmqSriPw4Og8JyykjGD7sjJ3Ol8pHV4xio6pRVGMcVR9zvmqTKFo82wJNO63SbHAq2DgBefqz7iV+5lVe89tzz82Gr8gGLULPhq0LYbuwbS/CzMfKFGCbhdiZfGw7mA1n6XKz05Doyy5hWw2eMmSoXoVkC3WeERYkemFyv1NScL7P5L0slAyqPonuGkB1DaEZIyhaBEVJo6gmYKIoFihntS6vWmcCV6CfCVrbhW0FsDLF2JkyzFQZtlkAYn7tefpWUzRwFUHuWvBWIEP1KiMDdR4RllOTd2o/mHGu7vfxa4iipFG0CLq7B83dh+YaRNGms6FponB2eM4Vp7uRT4/RGgjLj5UuxUovwEpVYlkhsA3ku/4sU8Fd6ISqLABxdZGBOk8IC+IdTstULot5s2wUNYlmDKN5250gNcZeEZ7z8c9KAaEi0BC2gW3mY6UWYCZrsTLFCDsgu4hniwKuQshd57RUFe31ryJdfjJQ5wPbKdYwuc+pwCJdChtVi6K6+zE8LWieXlQtnJ0gNF8D9PWcCVjbDGKlqjCTdVipCmwrB5Ap8KYo4CqA0LpsS1U+nVecDNS5TkC0HSb3yDWml0LRomiuXgxfM7q7G1ULnzXDVnpjnG5i28zFSi0gk1iCmapCWAFkt/ClcxVA6HpnFrAM1StLBupcJpyW6cRuZ5agdDEEippCNYZw+ZrQPO1o+vgcHAO9CggVy8rDSiwik1iKma6UY66XyF3khKq7TI6pXkkyUOcqAfFuGN8hW6avT4BioephDE8rurcRzTXkrAWVLdG3hLANLLOYTGwVmUQ9wsrNjrfKcL1Y7iII3QDuEhmqV4oM1LnIdtaZjm+XE5Bek2KhKGk01xCG9xS6tx1Vm5Kt0StKwbYCmIl6MrFVWJnSbIUn2Zd5MdwlkLfRmQWMDNW3nAzUucZ2NgQf35HdMUZ6BQGKiaom0Ny9uPzH0Ny9KGoS2Rq9ugjhwkpVkY6uxUzVIGxPtjSibLW+KsUp+pC/Sdb+vRJkoM4hpwvdj70MZuRKH83VRjh1cLUIursbw38CzdXnrBWVrm5Cw8oUk46txUzUIewAwnYh0+LV+aohtAGMXOTT9BaSgTpXCEiNw8ROSI8jG1szspOMtCl0bweGrwHNGJLdutcioWKZhWRiq8kkFyHMkFPQX/Ztnk8B/yIIXQd6DjJU3yIyUOcCAekJmDwAqQFZm9eRDVJ9Et3Tie47iWYMosggveYJoWFnisnEl2MmF2Kb+U53sEyNcygq5CyH4CrQ/Ff6aOYHGajXOgGZiFPoPt6dLZ49zylKGiUbpIbvpFMKUJFPzFwjhI6dLiWTWIaZrM0GqxsZrGcouhOowRWgeq700cx9MlCvcWYUIicg1irXmqKYTteuu8cJUk9Pdr9QaS4TtgsrXUEmsQwrWYNt5jkzgyXA2fottB789aDKp+WykoF6DbMSMN0I0Saw4lf6aK4kgapF0Nx9GL5T6J4OFFWuF5pvhO3FTNY4wZqqwraCcrlNluaHvA3gq5XVlC4nGajXKDvjtEojDfN7GzZFTaK5BjC8Tei+JlRtHj8ZEqdLG5rJOjKJJVipcoQtN0cHMEKQt0lu+3Y5yUC9BgkLEj0QPupMRpqf+SFQjWEMbxuG7wSaMSpn7kpnZJfaZOJLMZP1WJmi7BrW+c1dCvk3OvV/pdknA/VaIyA1BFNHna9iHi6jVLQoursLw3ci270rx0mlCxO2BytVTTq+DCu5MLvLzTxunilOt2/ehuxyGmlWyUC9xmQmnZbpvJzRq5hoxiCGrwnD14CqR5inzXPpDbLNEGZiCen4Cqx0GczjSUuK5iynyV0LqvtKH83cIgP1GmLFIHISoi1gz6t9TQWKNo3ubcPwnUR3y9m70iUQOmZqAZn48mwB/vnbWlXdTtGHwFI5SWk2yUGFa4Sddlql8a55FqaKiWYMYfhPYnibUfUpQI6VSpdAMdE9Haj6BKoxQia+CitdPi9nAttpZ4WA5nfKFM7TzxWzTrZQrwHCgkQvRI5DapR508upqHF0TzuG/4TTKlXn0ycJ6XJy1q5WkY6twkwsQdjeK31IbzlFdSYphTY4W79Jb55soV7thFObN9Y2n2b0ClRjHMPXgOFrRNPHQBaxl2aRoqad1qo2RcYYIx1dh23mM5+aaqc304g2geYFPXClj+jaJ1uoVzlzGqZPQrR1nmwUrpjo7l4M/1F0TzuqFuNq/hQhgFgizeBYBFsIikJ+8nJ8KHP0fVkAqbTJeDiGS9fJz/Whqdf2g3UKQtSSiq7HSi5kPoUqgOaDnGWQs1JWUnqzZAv1Kmanna7eePf8CFNLRImZx7GVgxQGJnFpV2+QAggBbf1j/Mfje+kdngJgRW0Jv/euzRTnXZ3VyIUQhKNJIvEUQgiCfg9BvxtNvbgdW1Jpk22H2vnes0coKwjywfuvY9XC0st81JeXoiay4/MR0tEJ0rG182oWsJWAWAfoueCvZb59nphVMlCvUsKG1LDT1TsfNgpX9SmOdT3JY7u+S994B++4bSlvu3k5uf43XtHbtgWpjImiKLgNDeUyNRct2+Yfvrudp3Y3kcqYaKrKeDjOB+9bd9UG6sDYNN946iCHmvqxhWBheT6fftdmasvzL6pVbVo2bf3jPLOvlYXl+dy9cfFlD1QhIGNamLaN16VfntdTsdBc/biDUVR9itT0jQhrnvSBCmf/5GgLGEFwFV7pA7p2yUC9GgnITGXHTef83qY2mjGCK3CQifQ2DrQcobV3lFWLikilLXiDuZQxLV442M5XfraPglwvH3t4IxuXV12WIx8cm+bZ/a2kTIt1Syr4/XffhNvQKMy9OsNUAMfaBnl2fysnO4YRwOGWAe68vo7K4lxcxsXNdrVtgWnZmLaNbV/eX07bFrT0jfHX33gB0xLcd2M9v33f+st0bwJVn8IVOIyiTZOKbMbOlDAfmmzCgvSIE6q5fmdMVXrjZKBehawkJLoh0TfHKyEpJpq7F3fOPnR3F4o2jRA2thAIBJfyScKyBZ2DE2w/2kFZYZAHtiwFZi9QBWfeXocnosSSaVy6xqblVdyzcTFCCDTt6tzwOpHKcKxtkL6RsPMghCAaT7H7RBcbV1RRFLq4DwJv5awLgSA8nWTn8W5s22lRz+7tnx+XiprA8DWhaDHSkU2YqUUgrs7XdDadHmIyQtn1qXP/Ic86GahXGWGd6eqd0+OmShrd24Y7Zw+aa+hVCzUIIWjpHaOpe5TSggDLqotp6R1j38leook0S6uLuHP9IgI+N2nTYsfRTo62DCJwAuTAqT48LoPKoiArF5aiqgqpjEl73wSHmvsZHIvgdumsqC1mbX05+UEfarZL8Xj7EG19YyyqKKA0P8ALB9vpHQlz9w2LCceS7DzmvMlbtk338BTP7GuhqiTEytoSJqbjNPeMcapzmLFwHENXqSnNY119OVUlIfSzQte0bLoGJznY1EfvSBiPS2f1olLW1VeQ43PPdMWOTcXYfaKHtv4x0hmL8sIgm1YuYFF5/kWF+OBYhFOdw4RjSVYvKmUsHGdgLMJLRzr54H3XXTBQ+0fCbD/WSc9QmPxcL+uXVJDOnF+iyxaCqekEzT1jNHaPMDoZw9BVqkvzuK6+nMriEIbuHGP34CTH24fIDXhYV19O/2iYXce6GQ3HqCzK5fb1i6goCmJZNsfbh3jpSAcZ08K2Ba29Yzyxs5HCXB8rF5WS43Nj2TZ9IxEON/fTOTiBZdksrCjg+qWVVBQFZ57r/lHnMi5DY+OKBRxs7OVgUz+rFpVy36YlWLZNY9cIe0/2MB5JkOP1s6zyFCvKH8arXDcvxlXNGMTawcgDT9mVPpprjwzUq4wZdrpdMpErfSSXj6ImMbyncAX3oOnjr1nU3rQET+5q4kfPH6OmLI9FFQXsONbF4HgEyxb43AYP3bSML3z4LqamE/z997bT1DMKQDiW5AfPH+NXe5rZuqGOz3/oDhDwy12NfPvpw/QMTZE2LVRFIcfn5o7rF/Gxt93AkuoiVEXhsReO88SuRtYuLsela+xu6CaaSCME7DjWyamuEWwhyJgWLx5q50TbEPfeuIQP3b+ef/nRTvae7GE6nsK0bBQUvG6ddfUVfPzhG9iyuhpNVcmYFr/Yfopv/fowrb1jpNLO2G/Q7+aD917Hxx/eiN/r4ljrIP/329s43jZEMp1BCHC5NGpK83j0/vW89641Mx8ELkQIQUPHMO19E3hcBg9uWcapzhGe2ddCW984Td2j1Jbn4zbOvCU0dY/yuf98mlNdI6QzFoamUVaYg8d1/ttGS+8YX358DzuPdTEdT5HJPma3S2PlwhJ+/903cePKBWiaystHO/nqL/ZRkOtjy6oantvfSvfQJBnTxmVo/HT7Sb74yfsoL8zhW786zC93niKRckJ8d0M3DZ3DrFtcxp8/eieLKvPZdbyb//rlAY62DpBMmyAEHrfBippiPvGOTWxZXYPHpbO7oZt//dEuTMvigc1LeWJnI6NTMa5fUslt6xbyoxeO87Vf7GdsKoZp2WiaQnnhUT724Cjv2vxhMrF1CHuO79JtO8NM0VZnPFW7OkcvrloyUK8idtKphJQcYM6OmypqDJf/GK7gPlTtYmrxCqbjKUanYnQPT7H7RA+5AQ/lhUHa+sYJR5P88Plj3LG+juuXVlAY8hEYdRGNp1AVhYDXTX6uj9yAB9uGnce7+PLje+gdCbNmcTmbVy6gbyTMy0c6eXxbAwVBHx992w2U5AcIx5KMTMZ48VC7E4qKgqGrWLZNSV6A3uEpwtMJFBQ8hk5uwEOOz0XfaJi9DT24DI1b19aSH/TR2jfGwcZ+th1pp7Y8j6XVRRTnBdh/qo9v/OoQ+0/1EvC5s2Gu0to7xpHWAZIZC8tO8Wdfe5b9p3opyfPzoQeuxzBUntjRyJHWQcwnDrC8tpi1i8tf9VlMpE1OtA/ROzJFZXGQdfXllOQFONjUR8/wFNsOd7BldQ1FIectIZU2+ecf7mD3iW5MS7CgJERRyEdL3xiJ5Pkt1P6RCHsaetB1jS2ra8gNeGjvH+d42xDbj3axrLqYusoCSgtyiCXSjE3F6eif4HjbEF6XzoLSPHqGpxidirHzWBdf+slu/vpj91CU5ycU8BCJJRGAx6VTEPSSF/RhGCon2of5ys/3sfNYF3WVBdy+fhHpjMkLB9vZdaIbr8dFRVEuS6qLiCfTjIVjjE/F+O8nDpBMm4QCXlIZk77RMF96fA99I2HWLynnno31xJJpmnvGSJiDuHP2oqoJUtMbEfbcThlhQrIfYvkQXA7Irt+LJgP1KiFsSGUnBczVoveKGsWVcwB34CCKFueNfmpIZyzWLS7nj37zFuoqC/n6kwf4ys/2Eoml2Heyh7s21PG3v3sv33nmCP/8gx3kB3186p2beGDzUvweF9PxFC8dbqe9f4Lrl1byR++/hQ3LKxmbiqFpKo9va2DX8W7uv3EJxXlnZnhG4ykWlOXxvx+9g6qSEMV5AdwujRcOtPPZf/0lLkPjnXes5BMPbyLH5yZtmvzlR7ZSv6CI0oIcNFWhsWuUf/7hDp7Z10LnwASjUzHygz6eO9DKifYhXLrOZ9+9hXfcugKPS6ehY5jxcByfW+epXU0cbu5HCMFn372F9921Fsu2WVlbyif+8ef0DE3x4sH21wzUnqEpGrtGiCXTrFtcTk1pHqUFOZQX5tA3Gublo518MpKgMNePokBzzygvHe4gY9osrizgv/7knRTl+nn+YBt/952XGByfPuf2lywo5P985G4WlIYoL8xB11ROdY3wD997mW2HOmjuGWMsHKe04MwWJ8m0SU1ZHn/xO1tZXVfGifZBPvy3jxNLpNl1vJuJSIzffXgjy2qK+ey/PoGwBfduWsIf/eateN06uqby3P429p/qpbQgwEce2sDDt6zAsm3ycrx8/ZcHONjUS1vf2Dljr5YtUFWVv/idrWxeuQBFVRgYizA4FsHQVB7YvIwPP3Q9ti2IJdMoCqh6BFfgEKhp0pEt2V1r5i4rDvFOcOWD59V/raRXkIF6lTCnndqaZuxKH8nloWjTuHN2OzMo1UsbHA763XziHZu4cVU1HpfBO29dwdd/eYCMaTMwHkFVFUryA4QCTrecpioU5vqpKg6BAl2DEzR0DGNaNgGfi3TGpKF9iFTGQlUVXIbG8MQ045E4ln2mG9rrMfiTD9zKvZuW4HHpzpimolBSEAAUFEWhIOijujQEigJCcP/mpaiKQipjMRVNYNk2Xrfz5xZPZUikTAbGIrT3jxNLpllTV8Yta2qoKs5FURRuXevDFgJd19h2uJ10xsLj1vF53TR0DAEKpm1jqCrxVIb2gYlXfd6EgJOdw7T0jhHwullTV0ZRnh+vS6euooBjbUMMjIY52tJPdWkIj0vnVNcIU1Gn1OM7blvJqoWlKIrCA1uW0TU4yb/8aOc591FeFKS0IAdFccaoI9EkQgh8HheqpjCdSJG6wNjrxx/eyM1ra/B5XBTm+ti4vIoXD7UzHokzHo5TUZRLcciPqoBQFUIBDwtKnNezZ2iK5p5RIrEk1aUhTMumsWsYgIxlY+gaI5NRRqfimNaZ11NVFN67dTXvv2stQb+z3Upr3xiGrhFLpvnm04dwu3Tuv3EJ5UXB7Oc+gaLFcPmPgpIhFbkJYea9wd/ga8jpCm0dziQlzXelD+jaIAP1KnC68P1c7epVtGk8uS9n34wuvfmtqSpBvwdd11AUyM+2psBpvQIoinJmLFFx8i2bccSSGSamEwC8fKSDvQ09nJ7jmTEt0qZF0O9Mbjq7gJjb0KmvKsLj0lHPqgp09r80RZ1ZH5nMWBw41cv/PHWQwy0DxBJpLMsmkXImXgkhZgosRONphBAU5fkJ+Nwzt6FpKqcXsfSNRhBCEE+k+cMvPYWanX4phCCeSuPS9ZnbvpBkOsPJjmG6h6bI8bnoGZniyd2NKIAlBG5DI5HK8NzBNrZuWIzHpTM8GUUIgQIsqymeedxuQyPHf/6eXxnTYv+pXr75q8Mcbu4nGk9j2jaJZBrLtBG2uODvdl7Ai6FpKICha9SW5QPtJFIZxiPx7GvKzFdVVWa+j6fSTETizgeGjhE+/7VnUbMFKkzLJp0xsYVwvp71AUlRFJZVF+P1nHk9F1YU8MF7r+M/f7aXjv5xPv9fz/DVn+/lPVvX8PG3b5wJXkVN4vIfR1FMUpFbsDNzd6duYTqzfl0FkLME2fV7EWSgXmHi9CSAU3NziYyiTeMNPY/hP85sfFpQlLOC7Ow5OGfdtKY6rUYF5ZzZr0Kc/h9Ul+Sxtr78nNm2qqpQW5bHsupidO2sNZkKr19MIPvjVMZi26F2/te/P8nwZJT8HC/Lakrwe1209IzSOTh5zvGI7IELW/BqVUBPn+926dx5/SL8HvdZxwU5Xje3XbfwVQ+trW+cU10jZEyLiUiCr/5831k3fuap23msK9sV7UU/q3JSJnPupLFXPhOmZfPs/lb+6EtPO4856KW+qpAcn5vmnlF6h8Ovemzn3pggY535I9BVNftj5awLK2dffEZxnp/VdWXk5ZxZQKlmW7QbVyzA4z5rhq5y/mMwNJUvfPhOrltazld+to8jLQO090/w5cf3EEuk+dwHbpuZjKUoGVy+BhRskuFbsc25WwnBijnzOlwF4C6+0kdz9ZOBeoXZCac49VyshqRqUTyh5zH8x97a+82+EQsElmXPrJv0eQxy/c4b7urFZXzhw1upKArOXO90cF1sJR71AjVsw9EELxxqZ2giyrKaYr7w4a3cfcNieoan+Mfvb6dzcHImB4J+Nz6PCwWF/tEI4WgS2xYoioJpW6TSFn6PMdOVahgav/+em1hXXzETCCLbHflqxQcEcKpzhFOdw2iqQm7Ag9d97vKP6XiaaCLFeDjO7oZuasryKMvepwCOdwzyyG0rUBVIpTMMTZz7yzoWjrP/VB/Dk1FW1JbwJx+8jfs21dM/GuFvvrWNgbETr/ocDoxFSJkWhq6RzFg0dDhdtn6Pi7ygDxTQNOcDkm2ffj2dx+t1GzOVtGrK8vj0u25k86qamRbszHOjKK9bmkEIZ1z1kVtX8sDmpbx4sIM//crT9AyH2X+ql9GpqDN0cJpioftO4UEhGbkZO1P4qq/BtS417ISqHgRtjk9yfrNkoF5Bp7tU4t1X+khmn3IZwlS5QMvi/Ms4b7SqqhBPZDjSMsD6JRW4DI38oJfltcUcaxvgRNsQzx9o44HNS3C7dJIpk+HJKG5Dp7I4d2a887WoFzgg2xYks92vLkMj4HUmQ3UOTJ7XUisvDFJdEsLt0mntG+dHzx9H15xu7RcPtdHeP8nnPnArt61byBM7G5mOpfj204cpzPWTl+PFsgVT00kmIjHKC4PnTPg5LRJNcrJzmIGxCAtK8/jCh7dy36b6cy7zw+eP87ff3sbguFP56ZFbVrCwIp+g3814OM5PX2rg7hsWUxTy8+SuJr77zJFzrm9aFsl0BhB43Doel04smaGtf5y+0TDWa1RT+ucf7sTvdbF5ZTUvHeng/7H33mFynded5ntz5a7qrs45AI1u5ESABBNIiiKVKJqkkiV5Zcu27JFseXZm1t7x2lrPrNM4rHecxvbKlkSPLYqSrMQkBhAESeQMNDrn3FXVlcOte7/54zYhUgRIhAbAbvT7PHgawFN167tdVfd3z/nO+Z2TfZNIQFN1kMbKoNN6o6koskwml+fc8CxdQzP4PS5chsbqxnJ8HoOuoVleONxPQ2WQoM+NaVlEk1kSqRwttaUEfe9s/dM3FmFwIsbGVdX4PDrtjWHWtVYxMh1HAPYFOrukBVE1kCgkdmGZYZZjXlQUITviWBJ6mlYMH96JFUG9Ubzhn3lu+VX1SkpqIc17/GqOcsH/FRd7xMI/VFmiuSZEwOsilszw1R8e5un93dy2vpHf/rl7uGdrK/tPjzAwGeW//NML/Ovzx/F5DOaTOUan53nwtna+/LHbnQIj3pZkfAsXMpT3uDQ6mirwunV6R+f4va++QHNNiNMD0wyMR5109MJjdU3h3m1tHD43xvHeSb729BGe2t8NAmLJLHduasaybD5w6xoef/YYR7rHefzZ47x6cpjm6hAF02J8LokiS/zXX7r/goLaNx7h9KBjM7i+pZJVdWVo6lstBu/c1Mzff/8gU9EUR7vHGZmep72hnLu3tPD9V7qYmE3ws1/5VwIeF3PxNB63Tt60zp9HiddFW52T4u0amuFP/udeGiuDnB2eoW8s8k5vJ6lMnt/8m2coC3iYiqSwbKdg7BP3bSQUcEQwHPTSWBnkRN8kr54c4uHfepxNq6r5rc/uZmdnPbd01C30oh7k+UO9VJb5yeZNRqfj1IQD/P4X3s/m1W7gTZGq9NZF9Y7O8cv/7busqg3TVBMinspy4OwYQb+LTW3VlJVcuCpHkoponjOATCFx67IVVTPuuLfppU6R0goXZkVQbxC26TiSFCI3eiWLi6SkcZXsuaLI1GNolIe8JLN5gj4XiiIj4eyDVZY67SfuN5kKaKpCTThAKpMnvHDBUxSZzqZKHt29jqdf7yabN7EsQdDrxu8x2L2lhUzO5PHnjjE0GaNndA4JCVWVKQ956WiswO/RAQj5PVSW+vC4dAxdfZsoeFwa1WV+NFU5X7Ti9xh84NZ2+scjvHCkn77xCMPT86yqK+OBnas5NzxLWcB73kDhzk3NxJJZvvHMUfrGIhQWKo5X1Yf5wG3teN0GbkPlT770Qf748Zc5pU+M9gAAIABJREFU0j1OLJElksigyjJel8bGjjqn8vUCROMZMtkC9RVBtnXUvSXF/QaNVUF2rq1fSDnbjM/EWdtcyX/81J3EUzlO9k1RtCxsYXP3llbu2tzMPz97DJ/bwO3S8HsM3re9jcGJCM8c6KVndI6BiRir6su4d1sbfWMRyoPeC3oFf3hXB4OTMYanYgS8BgGvwUN3dPKp+zedf0xZwMMvfGQbf/HEa8wns45xg67ic+s0NFfw6x/bhc+jc6xnkom5JONzSVRFOu/EVBpwPhslXhcVIR+aqiwUgP1kHW11YTa0VtO/8H7JskRVqZ+7Njfz8x/ejs+tX/Rz64jqKRAK+cRO7GIZyy79K5yiSb3cqfiVL/7ruKlZmYd6I7AhNwVzLzub/ssFSc5gBF7B8B94R/eji5HM5BmZnieTM6mrCFAR8iFLEjOxNOOzTo9gS22ps+8oOdNezg5Ok8mZ1JaXUFdRAjj7YclMgd7ROcZn43hcOp3NFdSEHTEpWjbT0SQ9I3NMRZMoikxlyEdDVZCqMj8uXUPCsaqbiCSc9pK68NscgrJ5k+7hWYq2oLk6SNmCKb4QgkQmT/fILGPTcXxugzVN5bgNjYm5BB5Do668BLfL2cu0bcFkJEH3yCyReJaAx2BVQ5j6ipK3RJOpTJ7uwRkGxyLk8gVCXqeFpL484BTjnP8qS+dD61gyx/B0HFuChpoQZUEfXGDvdzqaYmR6HiEEq+rDBH1uJAmiiSxHu8eZjqWoKvWzcVU1HkNjYCKCENBcE8Lndm4m4ukcPSOzjM0k8Lp01jSV49I1pqJJXJpKfWUJbkPjr7+zn7944lVmYin+6bcfY21zJacHpigULVY3lNPZWPE28S2YFn3jEYYmY9i2zer6cpprQmiqgi0EsWSW3tE5RqfjFC2b0oCbhsogdRVBfG7n85JI5xiYiGFZNq11ZZR4jbfsl09FknQNzTIVSeDx6DRVhWirK8PrujT1EEKjkNpGIXkLdjHIshNVnJ7U4BYwbo6ZAZfNiqDeAOwsRF6HzMCNXsniIclZdP9+jMBrF/XlXeESsAWYRSSzCKaFZFoLP4tQMJEyBaR0Himbh1wBqWhD0QIhnMciIRQZVAlkGaGpoKsIj4HwGgi3AYaG0BXQVISqgLbwd129oNguNj8tqA/ubL/kSTfvdYRtkE/eSiG1BWH5WW6qI6kQWA/+zpWJNBdiJeV7vRGQm3Q2+ZcLkpRH957A8B9cEdPLQQikfBEyeaRsASlXQEpmkWcTSHNx5GgaOZpEiqaQo0nIFpAsGyzbqZKxBJJ4o+9FOGIMP2m+lUBIkiOSigyK7Iit28AOerFLfYhSP6LUix0uwa4oQfhdCJeOcOvgMRAufblpwjVFkvMYvoNg6xTSG5edTaEoOnupRgW4a1mO28VXxYqgXmesDCROL6NCJMlE83RhBF5FkrM3ejXvbWwbKW8iJXNIqSxSPIs8FUMZnkUejyBPxZCjKaS8uSCa4ieiKIFQZCxdwXbJ2LqGrSoIRULIjoAKZaFr0xZItiOwkiWQizayaSEXLOSciZTKoczMo74hxrKEkGXQFEdkq0JYNaXYjeVYtWWIgBvhcyP8bkdorzKKrQ372bSqmlgyS1nAc80GwN8oJCWD7j+AsF2Y2c5lZ6hfiC0YPoRAuUlmsF8qKynf60ziNMQOsDwckSQL1dWLK/RjFDXK8jipRUQIKFpI6TxyLIU0l0QZjyAPzaAMzTgimsyBEAjZEUShKhR9GqbfoOjTKPoMTK/u/D1gYPp1zICBGTAo+nQsTcU2FIQsYRtO2lQ2bSTTcoQ0b6FmTLREHi2Rc34mC6ipN/1Jm2jJPGqygGxaSNaCIEsgDB2rrgy7sQKrtRK7rgw7HEAEvdh+t5MuvkxBzOZN5ubTCFjwRVaXZRBsmeXk53dj5tpALK8qHsULpTvB3QDS8sjWLworgnodKaZg+imnXWbpY6MYI7iDz6PoE1dUhLQsETh7oKks8kwCZSKKPDyD0j+FMjTrpG4tG6HI2IaC6dfJhz3kyj0Uyjzkyr1k6vxk6kvIVXrJl3vJhT3ky9xY3kW4KAtQsiZ6NItrLoMxl8E1ncYzFsczmsA1m0afy+Cay2LMptESeZS85ezVShJ2iQe7qQKrpRKruRKrthRRUYId8ICuXra4LneK+Qby8d0U8/UglldC0NvmFCipby8cv2lZEdTrhYD5IxA/wbII5BRtGqPkRVR3P9JV+PMuG2wbKZlzUrgjcyiD0yi9kygjs0jxNCBhGQqFoItclY9MXYBMnZ90U4jkqlJSTUFyVT7yYQ+2fmNu+SXTxog6AusdiePvieAbnMczFsc9lsQznkCP51GyJiAhvAZWfTnWqiqsliqshjCiKoRd4gF1JWwBQEiYuXby83djmRUsp01H2eVEqZ4mp1hphRVBvW6YUZh+xtlDXepIShxX4BU076krnhyzbCgUkecSyMOzqL0TKF1jTiQ6n0IIsDwquSof6YYSUq0hEqvLSHSUk2wNka32UwwYzh7oexQ1WcA9ncI7GCN4egZ/TwR/fwzPcBz3VAo16Yw3E343VkM5VnstxfYarMYKREUJwqXd9FGrECpmajP55C7sYgnLqcrL3Qih7aAtr9O6YlYE9TogLGffNNnFko9OJTmH7juE4T+ApCxDA+JLJWeijM2hdi+IaM84ytQ8FEwsl0qmxk+qtZT42nLm11WQ6Cwn1RSkUOq+YRHo1SJZAj2awTuSINA1S/DUDCVnZ/H3RnBPJNFSBdBU7PISim1VWB11FFfXYNeXI3yu69KS815F2C7yidsopG5ZVkVKsgGhW8DbApL27o9f7qwI6nUgPwOzLywDE4cFmzVXYB+yNseSvzu4AqRUzknndo2hnh5B7ZlAijsFNvkyN4nOcqKbq5nfWMn82gpSLSHMoOG0qywjJEugJfN4huOUnJkhdHKa0PEpSk7P4J5OI9lgB9zYTRUU1zZQ7KzDaqtGBDw3rbDaxRJy8fsw02tZTqlfdz2EdqxEqbAiqNccUYToAUh1A0u6bkegGMO4SvagGqMgLcNZc++AlMmjdI+jnhhCPT2CMjiNlMohFIlkaynRbTVEttcQ21JNvCNMIeRGqMvnovlOSJZAi+fw90UpPTJJ6eEJyg5P4O+LomSLCI+BVV+G1VlPcUMTxY46RInnpkwFW4VqstEPYhXqbvRSFg1ZX4hSW1ei1BVBvcbkpiDyMhSTN3olV4esRjACe9E8526qfVMpV3Ci0WODqKeGUAZnkHIFhCIzv7ac6d1NzN3WQGxjJZmGEizj7Z6/Nw0ClEIR12SK4MlpwvvHqHh5mOCpabRUAaFr2PVhiusaMLe2YnXWI7zGTSasEma2nWzkQwh7+TRxumshdBtoAW7ezz8rgnpNEUVn7zTVs7SHhzu2ggfQfUeQlSV+Z3CpmBZK3yTa692oJ4dQhhwhtVwq0a01TL6vhciOOmKbqsiXe97ThUU3AskW6JEMJWdnCe8fo/KFQcoOT6DP5xGG6gjr2gbMXWsorq4F100U2giFfGIXucRdIJbmfvpPI+tO2tfbenNX/K4I6jUkPwNze5Z436lURHN3YZTsQ9FmWPb7ppaNPBlDO9CDeqjX2SPN5LEMldimSsY/tJqZu5uYX1eJWWLc6NUuCbR4Hn9PhIq9w9T+qIfSo5NoiQLC0LCaKzC3tWLe3oldH3YsEm8ChOUlG/sAZqaT5RLSueuh9DZQ3z5F8KZhRVCvEcKC+UOQXNLzTgWKPo5RshfVNbC8+00FSIk06tEB9NfOoZwdQ46lsBWJ+bUVjH9kNVP3NBNfV0Eh5F4u18Drijafo+RchIqXh6j9fjeh41OoWRM74MFqq8bc1YF5R4dTuHQTYBVqyUQewjYrbvRSFgVZh9JdC32pyyPwvmxWBPUaUZhz9k4L8yzZoE5SEhj+19F9x5e3T2/RQhmYRt9zGvVwH/JkDKlokW4oYfSjaxj/0Grm11dQCK+kdq8aAXo0S8m5Waqf6qP+u10EeqNItsAuL8Hc1Ezhwc1Yq2uXf7QqFAqZDeRi7182rTTuRijb5cxMvRlZEdRrgLAhfhySp8Eu3OjVXCFSEc1zEqPk1WXt0yvF0mgHe9D3nEHpm0BK5siXupi6v5WRn+kgsqOObLXvpqnYvV5IlsCYTRM6MU39t89S92/ncM1lfpIGvmsdhXvWI0qW17SWn0bYXnLxuymktoFY+jdrsgHhu8FVC9JN+JW5ibePrx1WCnJjYC/hSWaKNonmOYuixFiWYioE8sgcxjPH0PZ3I8/GEUIQ2V7N4Gc2MnVfC+nGIJbrJq7avYYIRSJX5WO6zE28I8zM3U2s+qtDhPePoXZPIM8mUPqnyT+8A6ulctlWAktyBt17FCtfi1WoudHLuWrsvDPn2agEaXnNA7gkViLUxUZA8izEj4GVu9GLuTIkJbWQ6j28PFtkzCLqqRGMHxxCPTWMlMqRC7sZ/ZkOhj+1nvkNlZjvcUvA5YaSMfH3RWj8n6dZ9T+OoM/nEG4dq62a/Ed3YO5cvWz9gYVQMTNrycUeXBapX8UF5Q+AUcZNdzO6IqiLjJWDyEvOEHGxJI0cBJrnNK7gS8hq9EYvZtGRklm0fV0YPzyMPDKLVLSIbaik91e2MfFgG7kqH7a2PC/c73UkW6BFs4T3j7Hhd16i9NgUqAp2ZZDCPevJf3SHY2G4DLEtH/n5eymkN7EcVCiwHoLbbr7ipBVBXWQyAxA76IxqW4rI2hSukj1onm6WVapXCOTJGMaPDqO9dBo5lsbWJCYeaKP713cS2V5D0bti5P5eQC5Y+HsjdP7RqzR+8wyyaSP8LszNreQ/fSdWfXgZvk8SxUIN2bmHsYvhG72Yq0bxQtVDoN5kxUkrgrqICNup7M0MLU0jB8f4/jBGYB+SvETz1ReiaKGcG8f1xKuoJ4aQ8ib5sIeBz26g7wvbSDcGsbWbsILiPYxkO0VLzd84Scd/ew3XTBp0Fauliuxjt1HcsdoZbr6MELZOIbWZfPx+xFI3fJAgdCsEOm/0Qq4vK4K6iOSnIbIPzNiNXsmVIFBdA7iCz6Pokzd6MYuGlDdRD/bi+sYelLEIAkFiTTndX7qFkcc6KQTfeQrKxLk5pvuiGD6d1u21GN63OvqYeYtze4cws0XCzSHq11Vc9+DJtmzi02lGTk4z1RNBCEF5U4iGjZWEavyoS3S6DQLUdIGKl4fY8Dt7CB2fQkLCrgyS/+BWCh/Y6lgXLiPsYinZ2AcoZttu9FKuGr0Mqj/KcshgXzIrVb6LSHZk6U6UkZUEmrtnwQ1pcTCLNmOz83hdOuVBL9J1VhopW0DbewbX119CjqSwDIWZuxo5+592MburAdt4d6H59u/u4fjTvbhLXPzGtz9G89YaZOUn55GYTvGnH/lXFE1mw/2tfPFfHkW5jtFuLllg/xOneerPDzDTH0XYzv2xrMiEG0u49wvbuOtzm3AHlqDwSFD06Uzd30a6Kcja33+Fhie7kKdiGN/ZD9k8hYd2OEb7ywRJiaP7DmHl6hFiCb5nb6IQc2pJXEu/ePmSWclzLRJW2rEaXJKtMpKFYoyhus8t2hQZ2xac6p/ijx/fS++oEzVl8iapbJ6ide2rtaRsAf2547j/7jnkuSRmQGfo0+s5/JcfYHp38yWJKUDRtCjmLYq5Irb99mSOEGDmihTzFpZ5favQ8qkCe756jG/8xrOMn5nBKtq4AwYlVT4UXWayJ8KJZ/qY7l/axWW2JhPvrODonz/A6f98B6ZfR44mcf3gMK4n9iFHlo+/tCRZKPoEmvfUjV7K1WMvTNm6iViJUBeJ3MRCIdJ1TKC/ka2/2shPVmNoni5kdfFMhwuWxd7jg6yuD7N5dTUn+qd44oWTzMbS3Le9jY/c0YnHuDaG6FIqi/H9gxhPvIaUK5APexj87EbO/h+7yFVcP6MAYQtsW5x/n2RZQpKlt75fgp88RgCS8346j7v4sa2iTd+BMb73+6+QSxUoqfJx989vZtfPrsfl14mOJTj0nXOkY7nzryeEQNgLP4VwMnGSdH5db1m7ENiW+MnnWeLCj1s4xzceJ8m8/Rzf8rtwMoAXe9xFkSBX4aXnSzsohNys/X9ewT2TQn/6KGRN8o/dhl0VuqbpRcsWJNI5piJJDF2loTKIeg3cnGQlheY5jZlrRRRDi37860l2DIppUJe3P8d5VgR1EbCLTmrDehd3vryZQ1U0FNmJjgRg20Vs20ZVNaSFq4EtbCzbQpFkZPnCkZRtW/RMnEFXXdSFG9HVK0sPSVIB1RhBdQ2wmHcDwhJMR5NUlvl4+dgg33vlLJqqUFse4NkDPaxtrmR9a9WivZ7zogIpnsH45j6MHx5GMi2y1X76fnEL5768EzN4fVouhIBsPMeZFwc58MQZJnujKKpM4+Yqbv34OlbvqkfVFWxLMDcyz6HvdHH6+QHmJ1K4AwYddzdy6yfXU726DOUiDk2FjMn+b50lOZvG5dXZ+tBqHv6/7kRzOV/psvoSGjdVY+ZMDK+OmbcYPTXNiad76ds/RmwiiaIpVK0qY8ejnay9t/l8WtjMW3S/Mszer51g/MwMti2oXl3GrZ9cz/aH1zjnaAsSM2mO/aiXYz/qYXZoHs1QadtZyy2PrqV5SzW621lLOprl+FO9HP7eOab7YmiGStPWKnZ/fgv16yovK0VeCLkY/OxGil6Ndb//Ct7BefQXTiDlC+Q+tgu7vnxRB5gLIShaNrFkllP9Uzx7oIdDXeNsba/l1x67jYaq4KK91pteFUWbQfecJJ+4g6WcSLQLkB0C/9obvZLrw4qgLgJmFMz5dzfB/7Pv/S53rrufXWvuBSBfyLKv68cMTffxiTs+j88dQCAYmu7lSP/rrG3YTGf9xgseq2AVeOLVf6TMX84n7vg8Zf4rMdgWSGoMzd2FJGeu4PkXxrYF86kca5sr+cazR3nq9W7u3NTCZ96/idlYmidePEU2v8i5cSGQ55IYX38J/cWTYAvS9QG6f20Hvb+6Dct9/caD5VJ5Xv/mGb75f75APlXA8OpIMkz3RdF0hdqOMIFKL0PHJvnu773M6ecHkBUZ1VAoDlj07R/jxDP9fP7vP0zD+sq37Nk65wrZRJ7uvSMIAYEKL7c8sva8mL6B7lbPi9rp5wf4zv/9MoNHJlBUBUmRsAoWg0cmOfrDHn7hbz7Itoc70Fwqx37Yzde+9DSJmQzuEgNZlpgbjjMzEGPLh1cjKxKR0Tjf+4NXee2fT2LbAt2lYhVtho5OcuaFIT7yW7dzyyMdFAsWz/3VIZ77q4Nk5nMYHud3MXZmBn/YS3lTCG/o8m50zBKDkY+txXKprP2DfZR0zaG/fAYpb5L7+O1YLVVX7QNsC0HBtJiJpTjeO8ELh/oYmIhSW17CvdtbmU9mOd47QU154JpEqZKSRXX3Ucy1YRVqF/341w0B6QHwtd8cY91uglO8xginuvdS+k57Jk4zNT92XlAT2Xm+ue+rDE33cuua3axt2IxlWZwbP8XLp59hVU3nwkv8JEUnvWGQKcCyixQtE9u2sYWNxGWk0ABJLqC6hlFcw5d71u/ITCzFn/zLXh7bvZ7//u8fIlco0lQVxLIEr50awW1o1JWXLN4LCpCiKVx//xz6K2cREqSaQ3T95i76P7cZ8dOCdI2JT6U49J2zZOZzdNzVyCNfuRvDr9N/YBzDo6FoCpn5PK8+fpIzLw1RUunjwd/YSfvtDZx5cZBn//tBho5OsvefjvPY7+1+W0GRLQSx8SSJWacCzu3XqV9/8RsqARSyJu6AwS2PdtJxdxPBKh99+8fY+7UTREcTHPjWWTruasIdNHj5H4+TmM1QVh/gC1//KIEKH0NHJhg8MokkS+TTJsef6uXVx0/g8unc/tmN7Hisk4muOZ77y4MMHZ3i6Pe6ad5STSaRo2vPEMmZDFseaueBX9+BO2Bw9qVByhpKrriAq+jTGXu4A8utsfYP9xE6PoX2WjfCEuQ/eQdW65WLatGyGZuJc6hrjBeP9HOib5Kgz8XnP7ydXRuaEAiefPEU/eMRkpk8Ib/7il7nnREo2hyapwvLrACxdOfFmjHIR8BVeaNXcu1ZEdSrxMo6k2XsS3Dou2fDh/ibZ/6QbCGDobmYS0zTP3mOomVyYugQnfWbyBbSTERH8Rhe6sPN5AoZIslZ4ukYkiwT9lcQ8pWdP2ahWGAiOsrU/Di6alBT2oDP5b8EYRXIShTNcwZJWjwHfwEMTkXpGp6hPOSjtbYUcC5SXcMzDE/H2L21hcpS36K9phRP4frGHvS9ZxGKRLwjzKnfuYuxRzoQN8AAwCra5FMmkiShezT8YQ+ldQEa11ciKzJIcG7vMINHJimkC2z49HrW3ddCsMbPjrCHrr3DxKdTnHt5mEw8j9tvvHVvUAjymQLFhSIoRVPwl1680lUCOu9uYvVt9QvRsoRt2dSvr2TwyCTzk0lmBmOY+SK6qVHImCAEulvF7TcIVnrZ+fF13PbJ9SBBKprl6A96MHNFWrbVcsdnNlJaH6Ck0sf42VkGj0wy2TPHdH8Ul89JN4MgWOXDF3JT0RKicWPV2yPvy/09u1UmPrSKolej84/2Uf7aGPrBHnBp5B/bhdVYftmiKoD5ZJa/+s7r9I7M0dlcyUfv6GRsJk59ZZCgz0U0maVQtIincmRyhWskqE5fuGoMoeptFPNN1+Q1rge2CdlhcFWw7FtoVgT1Kim8ke69hOLYXR338qf/9tscHdjP9rbbGZ0bRFEUWqvXcHr4KIVb88wlZhiPDNNStRqP7mF/z8s8deRJZuNTmMUCa+o28PE7Pk9daSMA/VPn+Icf/xmR5AzJbJzHdn2Oj+36eVz6O3/JJTnvRKf6+GL8Gs5jFi3ODsyQyxcZn41TE/Zj6CqKLLGqLswvf2QHAa+BskhpMimRwXjydYxnjyFkiK8Jc/z372Xyg6sWX0wvuMX89v/0lLho3l7D8PEpzr44yN/9wve55Wc66NjdSPXqMG6/QWQ0Tnw6hRAw1RPl5X88juZSEAKiIwlnj3I2TbFgvVGr9OazdgqXFv5T2AKzUETRL+5Grnt0CtkMY2dmiY0nSEYyZObzxCaSCNvZNxVC4PLptO6oZfDIJOPn5vjrT3+XWx7tYMP726jtDOPyG6QiWWYGYoBEYibFK18/geZSsIq2E8VKTko6m8hTt7ac6tWlDB+f5JWvnWCyO8LWh9ppv72e6vawI/BX8TbZmsL0vc0IRWbtH75CxSsj6PvOgdtwjPVrS0G+9M+aBLgNjfdta+MT925kdUOYRDrPky+d4gevdhFJZJiYTXCid5It7bV43deytUUga3Oo7l4ssxphL9E2GuEMC7HWg3Jt7j3eM6wI6lUgLCjMgnWJ24/NFW3UlTVxqPcVNjZt59z4KTY17WBTyw6eOvIk0dQskeQ08XSUO9fez8jcAC+e/BH14Wa+/OGvMBEd4W+f+WMO9rxM+baPARBJzvK5e3+NrW238cNDT/D4nr/hnvUfpDbceL7I6QIrR1JiqJ6ziz40PJc36Rpyelkff/YYsWSWzqYKKkt9eF06rsDifaOkVBb9R0cwvncQgFRrKWf+8x1MPrh4YiqrTkQpbIFVdCKtN+RNCBair4X1KBKS7Oxp3vHpDSSm0/TtH2P05DTDxyZp2FjF/V+8ha0PtVPIFs8/d/j4FNP90bdkFUrrApTWBVAv4AYkSeAJutBdKhmcdO7s4PxF075CwOzQPHu/dpxDT54lPp1G1RUUTSYZyWLbNm/cGCiqzO7PbyU2lqL39RFmh+b57n/Zy95/PM6D/34nd31uM8V8ETNXRNiCuZEEB54485bq37KGEsJNQdwlLkrrS9j58bVk4nkGD0/Qt3+M7n3DNG6s4iO/dTsbHmjD8FxdOlMoMrN3NtKdNVGyRcoOTaDtOY3w6OQ/uA27MnhZhUpet879O1Y72yyShMvQ2L2llW+9dJKvP3WEoi1Y31LF+7avIuC5tiInyXlUY5iiPkEx18RSDfGKKSjMOPNSlzMrgnoVWBknQr2UdC8AksSujnt57dyLPHrbz9E1eoJ71n+Qpso2OCI4O3KCnJmlUMzTWrWG3omzTERG8LtLODawH8u2kGWZeDpGruCo+K4197B91e2UB6p4YPPDfOOlv2YiOkpNacPbWhzOL+ONvdNFjk4BfG6D3/zMbg51jbLv5BDfffkM+04MsaW9lp3r6mmsCiEvgthJmQL6C6dwPfkaklkkU19C1/9+K6OPdCzqnqk36EJRZcxckbnhOG231HG+8FoIJrvnAMdIwR/2OCldoHFzNZ/84/dxds8gJ57uo2ffKINHJtj79eNUtIbOC5okSWx4fyvr72/9ibBIjjCXVPoIVHjeFsFJskRJlZfSugDzUylSsRxdewapbi97iyuSVbSxCha2LTj83S5e+JvDWEWbdfe1sOb2Bgyfzot/d4TBo5NvCbQrW0N8+s/vp+vlIU4808/pH/cTGUnw1J++TuOmalw+HVVXkRWJ+nUV3PPLW3B5F6JjCSRZJlDhoa6zHFmWWP++VqpWlXH2pUFOPTfA2T1DDB6Z5Md/fYiGjZVUtISuuvXL1mQm72tBTRbo+JPXCJ6aRv/xCYTboHD/Juyw/7L9f99Yk6bIdDZV8KsP72RsNo6qKJQHvYT87ot+xxYPgaxFUF39WIXqJTuNRhSdFhpX/fKek7oiqFeBGYNi4tKnykhI3N75Pn5w6JscGzjAXGKGDU3b8Bg+KkpqeO3ci5QFKqgM1lAZrOHM6DFS+STjkaHzX+5V1Z2sb9yKoTpfLFXRkBc+oYbmQpZk8sUc4qItMAJJSSzsnS6e4bAA4sksfeNRCmaRppoQm9trGBiP8uqpYY52j1MacNNQGbxqY3MpV0B7tQvjm/uQ0jmylT66v7idwc9uXPRJMbUd5ehujVQky/5vnqFmTZiK5hCSBPNSVf0yAAAgAElEQVTTaV77Z6cB3/BqNG2uBhyjh8RMGk/Qxa5Praf99gae+pPXeeF/HCY2nmR+Mkmw2oc/7GF2cB7VUGm9pZaq1WXIikQxb5FN5FE05aK2gS6fwfr7Wxg+MUU6muXAk13UrCmnpiOMaigUMiYzAzGyyQJl9SVM9UVJzmVo3FzFPb+0lbX3NBOfSnLo211veTusok10LIEn6GL7wx1sfHAV//Zf9/KDP3qVTCLPZPcca+9pobTOz8xAFFmVqV9fScMGp/3FKtjkUnlAwl1ikEsWyKXy+Ms93Pm5zay9p4VvfPkZTj7bx3R/jHQ0i2gKLcpUEtulMv6h1WjJPO3/3wEC3RH0p48i3PrCsHLPFX/2VFWmPORD11WGp2IcODtCfUWQLe2116TK981Icg7FGEXWprDyjSzFKFUIx/jGyoC6eOUT7zlWBPUKEUUoRC7farCjfiOaovGjw9/C7w5QW9aIZVusrlnLU0eeZG3DZra23oahGQS9pTSEm9nZvpsHtz6Crupk8mk0ReeN1ONYZJjZ+DR+d5CeibNIkkQ4UHHxKFAqoupjix6dZvMmT+/v5tVTIyAEthD8p5+9i51rG+hsriSayODS1PPif8UULdTD/bj+5RXkaIpCqZu+X9pC769sd4aBLzKd9zRx4FtnGJif4NSP+wFYtbMWSZYZPDrJ8R/2oGgKDRsrWXtvMwCxiSTP/+1hyuoCVK0qpZArkp7PIskS3qALT4mL6tVlNGyoZOz0DKefH8Af9tC2sw7NpZCOZpnsjdK4oZLNH1r9tnYYcFpitn20g1M/HmDo6CT9B8f5l998nvZd9bhLXMSnUwwdmSRY4+f+L27HcGsomkw2nmf4+CSSDIOHJpjsiWAXf3LzlUvlee4vDxKs8lHbWY7mUknOZZAWXjNU48dX5qZzdzP9ByeY6Jrlub88wMYHV+HyGWTjOWYGY5TWBtj0wVXMDs5z8tl+vCEXlW2lFLIm+YwJkkSgwoPuubo91J+m6NcZebQTNVVg1d8exjcQw/jhIYTXwLy9A+G9/AjPLNrEEhn6xyOc6J/kyLlxpiJJ7tu+iqbqEOVB3zX2bxYo2iyaawh7qe6lioW079yKoK5wAaysE6Hal1kg63f52di0nde6X+KxXZ/D5wpgWiZt1R3MJaaZS0zT2eDMRGwsb6Uu3Myhvn1YtoXP7SeVTbCx+RbqypqQkOibOMsPDv0rTRWr2N+9h00tt1ATqv9Je81PISsZNO9pJGlxbfL6xiLsOTrA7q2t5PJFHn/2GLawmU9l6R2LsKGtGrd+lR83IVB6JzGefA15Kobp0xj47Ea6v7yTou/iBTlXQ11nOff80lYkRWLkxDTHf9R7XlitgoW7xMXqbdXc/8UdVLYuVDQXLIaOTLLnH45i+HQkIBPPU1oXYN37WqnpCBOs9rPto2uIjifpfW2UH//1IV752nEkRcYqWEiKxIf+w20XtDsEJ8Vct66cD/6HW3nx744ycmKK4ePOH0ly0sL+sIdVu+qpaAnRtrOOc68MM352jqf/3wN4AoazRyhLaC7lfOpS2DDRNcee//8YLp+O5lKJjiXwhT1suL+V1h11uAM6Wx9qZ+zMLGdeHOD1fz3DsR/1oWoylmkjyRK7fnY96+9vxcwVOffKMENHJ3H5dWxTkJ7PEaz2sf3hDkI1/kVPmxZK3Qx9aj1qqkDrPxzDMx7D+MEh7LIAxY2NoF365zCTMznRN8mhrlEGxmMIBPUVQapK/UxGkhztnuCuzS24jWt7KZXkLIoxhpyNYBWWpjmuKDqOcu6G5Zv2Vb7yla985UYvYimSn4XM4OVHqLIko2sGiqzywOaHqQs3ocgKumosVPGu4/bO+9BVHbfhJeQNk8jOMzjdzURkFNMq0FrVTpm/nGQ2QXPlajL5NP3T3QQ8QT555y9SW9Zw4UhQslBdQ+j+/YsqqELAnqP9pHMmP/fgVk72TRLye3j/jtX0j0f4wb4uNq+qweO6OtGTp+O4ntiHenIYbJuhT6zjzO/eTb782vmayYrspHlbQvjLPIRq/ZTWBqhoCdG0pZpNH1jFvV/YRufdTef3TxVVxh0w0FwqLr9BsMpH87YadjzayY5HOylrKEGWJcoaSqhoDuIrdeMvcxMo91JWF6B2XQXr72th84faCdX4kS8iOIqmUNlWSsOGSnxhD6W1fiqaQ9SsCdO6o46tD7VzyyOdVLeHKa0LEKzy4/LreEpchGr9bHh/GxsfXEWw2k/Dpko67mzCU+LC8GrobhWXT8dX5qZxYxXbHlrD7l/aSrihBEmW8JV6qF1bjjfoxl/mIVDuIVTjp7ajnM7dzWx8sI2qVWW4S1zobg3dpeLyGYRq/bTeUsutn1zHjkfX4g97rsnQhKJPJ9UUQo/nCPRF0SbmkbIFrNZqRODSU7+xZI6XjvYzOh1n8+oaPnx7B+/bvor2xnIS6RxI0FJTinG1N4uXgmRiWyVYZhVL2T3J0wDytbn/veGsjG+7AoQFyTOQOPXudoMXwrItzGIBXTPOC58QNqZlIiGjqT+pehQILMsiW0g7bQ26G03RkSSJQjGPLMlYdpF0Po3H8GFoxkWreyU5g7v0R2ieM1d03hdDCPjevjO8eLifn7l7HV/9wWH+3SO3sralgu/vO0fX0DT/8VN3EbiKUVtSMovxbwcwfnAIKZFl5o4GDv7tB0msuT7DpgVORJqO5UjHskiShLfUhTfkvqA9oG0Jcsk8ybkMSBLekAt3wHj7YwWYhSKpuSzZZB5Fk/GG3Lj8+gUrfC+GZTp7l9lkAUkCd8DA5dWdKuU3rSmbyJGO5dBdKt4yN4oiU8gVkRUJzaUiSRLCFhQyJvPTKWxL4Ct14w263nIscN53y7TIzOdIz+ec6uMSF56g63zBFTjOWZn5HKlIFlmV8JW6cfn08zcg15LgyWnW/d7L1DzTh1qwyT20g/yjtyKCvkvaiswVnPYvWZKoCgdwaQq2ECQzecZm4miqQmNVCNf1EFQkzEwnufndS3YIueKGsjucKHU5siKoV4CVhvkjkO679IKkG4+NaozgCX8LSVm8GXO2EOQLRSbmEvzd9w4yOZdkfC7Bb//cblK5Ai8e6efera08eGs7ymX0A76FQhHt5TO4/+UV5IkoiVWlHP2z+5m6v21lMPgK74hkC6qe62f9V/ZQenQSyeMi+3P3YN67HnGZGRMhIJXNc254lpN9k8yncgS8Bp1NFaxrqSLgc13zciG7GCIfv5tCej1LMUqVNPB3QGg7S7G26l1ZSfleAWYU0oNQXEpTo6Qiuv8wqmtwUQ6XN4sULZtIIstLRwdoqyujviLIdDRFrlBkKppkfDZBc3WQD9y6Bu+VpnttgXJ2FNd396MMzZAvddH95Z2M/UwnlnulBGCFd0GSyNb6kYDg6RmMmRTydByrvhy7suSy+lOTmRx7Twzx7ZdOceDsKNm8iaGrjEzF8bo0Ksv8V37TeIlIkomwvFhmDSzReamSDJ7G5entuwxP6doibDDjS22QuEBW4qiuPhZroszZwRnODs4wEUkwMjXP9jW1bFxVTXXYT99ohKlYknDAy9qWCkoDVz4AWp6IYDx7HKV3CkuVGH6sk5HHOjF9S9fbdIXri+XWGHmkE1//PK1fPYo+PIPxvQPY5QHs+rJL2jKwbcHgRIw9R/op8bnYUlKD32Nw37Y29p4Y4tzwLO2N5Vf1Wb8kJAvFGEfRZiha/mv7WtcC26n2NeNgXMk8j/c4K4J6mYgimIkr2zu9cQhU1yCKuniDps2ixdGecfadGCIc9HKwa4yda+upKvVTWerjZN8UQb+bytIr/9JLqRz6S6fRjvZDwWT6/hYGf34z2erLb9Jfbti2hGUqWJaMbcnYtoSwJd7YwHEqfQWybCMrAkW1UFQbWb45d3jyFV76P78Zf1+E6mf7UY8PYjx1hNyn70T43t29y7IFs/NpLNvmw7d3kC8UOdg1xnQshRCC+XSOXGFxXccuhqxGUPQJrHw9Qiy96h4777gmrQjqCliZBTOH6/PdWRQkuYDq6YZFNHJY01jOlvZahidjBHwunn69m2M942xaVUNLTSlPvnSa+3esorn6CgckC4F6fADttXNI82nmO8vp+8WtzHeWIy4yI3S5Uiwo5LI6uZRONm2Qy+gUchpmQaFYULAsBbsoI2wJW0gLU4mEI6iKjaJZaJqFplvobhOXp4DLm8ftLWB4CiiqdVPcnyRXl9HzpVvwDs0TPD2DvucUxfZazLvWvmvqV5bA49Lwup2CwFX1YU4NTPPdl8+ABLvWN+Ixrk/WRJLzKMY4UjaGMJfeCBdRhPwc+CwWxdDjvcSKoF4mxeQS2zsFZG0adZGNHAJeF3dsaKK+PIDf62JoMsqZwRmeP9xHLl9EAmrLA1d8fHksgvbyGeSxCIUSg8HPbGD2jobrOtf0RmFbEtmUi0TUQzLmIRV3k0vr5LM6Zl7FLKhYxTdHpRIInJ9vQpKEYwUoCWTZEVhFtdH0IrphYnhMXN4C3kCWQGkGf2katy+/bKNYIUvM3t5A/y9uZf3v7sGIZjC+fxCrvQa7pvQdnyvLMvWVQSpCPg6eHaWhMsj6lkqmo0mqywJs76jH49IvMMjg2qBokyjaDLa59Ea4CNsZKGJll5/Jw4qgXg5iQVAvYfbpeweB5u5FknOLetR4OsfIzDzxTA6/18WuDU1sba9jeDrGVCRFbThAU9WVRadSroC27yzqqRGwLCbvb2fiQ6splLqX2rXjkhG2RCrhIjoVIDYTIDXvIpdykc9qmAUV25LeJpjvesw3hBYJeyE5YeYhl3bShG+khDXdwvCYuL05fMEspVUJSqsSeP25Zff7tgyVkUc7KX91hPpvd6H0TqD/6DD5/+1exDu0KUkSVIZ87FzbwOFzY0xFkmxaVUNdRQm5QpHe0TkOdY2yeVUNqxvC6JdhHnElyEoKRZ+imG9GWEtMlQTYOae4c0VQb2LsgpPuvWQz/PcAkpxGdfWzWMVI4PTmfeel07xycoiC6Yz9aqkp5cFb29m6pg5ZklAV+Yo9TpVTI2iv9yDH08Tbyxj61HpSLSHENTciv74IwMxrRCcDTI+EiM/5yKQM8hkdqyhftoBe9uvbEpatYBUVchmdRMTD3ITN1FAZbl+eYHmKysYoZdVxVG3xtgtuNLkKL91fvIXQ0UkCPVGM509S3NJKcWvrOz5P1xTWtVRSEfKhqTKGrlJdFuDZ/d28dGwAgJGpOI/cvZbVjeWLMgTioiwUJ8nZGNZSE1ScGan5OXDXs6xu2lbaZi4DMwGZISjO3+iVXDqqMYzuP7iozkh9Y4770faOOh7YsZqGyhK6R+bYe2KQ5ppSGiqDV9w+IM8l0J8+inZsEEuT6fuV7Yw9vAazZGlO2bgQwpbIpgwm+ivoPVbHSHclcxNB0nE3hZyGbcvcmKuMhG3LFPIamaSLZNRDZLKEuYkgliXj9uZRVLH091slyFX4kGxB+b4RlGQOOZbG3Lka3sWgQVMdY4dTA9NEExn8HoO9xwdRFYX33bKaoakYbkOjoTKIpl7bDUJJMrEKVdjFcpZcT6oAWQNP8/KqL1yJUC8DK73U9k9tNM+5RZ15KoQglsjgcWns2tBEW10ZZtFiTWMFf/GtV3l2fw9bVtegKldwMbFs1OODqCcGkfIFZt/XysSDbRTKrnErwnVCCIls0mByqJTJoTCJiJd8VsO23psXQ7Pg7Nem425iM35GuyupbZ2lpmUOw2M6e7RLFNtQGP7EOqqf7qP6hUGUMyNoe89QeHDLu17hC6bFwHgEv8dFc3UpRUsQ8rvpbCpnYi6B6xqne99AUrKo+hRWrhXbuvJ6hRuBsKGYdq6p6hLs/rkYK4J6qSxMS7CW0P6pJGdQFsnI4Q2mIikOnB2ld2yOaCKDZYdwGxpt9WXUhAOkc4V3GGz+zshjEdSDvSjT8+RL3Yw80kGio3zJp3qFgHxWZ3q4lLHeCuZnfQuR6NI4L3shos5ldBJRL5ODYerbp6lqjKK7zBu9vCsmW+Wj50u3UHZ4An0+h/G9g5jb2hAVJe/4PK9bx+c26BmdRdcUJiMJ2urCuAyNe7e14tJVjOsiqjayPoGkxmGJCSo4W2hmbHkJ6nvz1vg9iG06gmovoeuHYkygqIubn5ZlCVmSSGdN/vbf9vONZ45ytHucHx/sZWAiyq3rGi5q5v6O5E0nOj0zCkWbyQfamL2rkaJnaVf1WkWZ2bEQJ19p5czrzcyMBcll9CUjpm9G2BK5tM7MWIjTr7VwfG8bM2PB92yE/a7IEtP3tjD2kXaQQBmPYvzw8Ls+zePS2dJei66qfOvFk+QKRToay9EW6gbMor1QW3AdTkGLIKsRWMQs1PXCLkBh8Vrj3xOsePleImYc4kch3X+jV3Kp2LhDT6P7Dy3qUS3bMQbvH4/w2slhXj89wmQkQTZvsntLK1989LYrapdR+qdwPb4HbX8vqcYSjv/BPYw93IF9kQHb73WEgGzKxXBXJaPdlWSSLqylKjwXQVFtPIEs9atmaOqcwu1bQtV6byJ0fIq7P/DPuKdSWJVB0n/wmXdtozGLFjPRFJPRJLqqkM0X2X9mhLOD0wCsaargw7d30FwdusZ2hBL5xE7yydsQS8w5SVKcPdTwXSybwqSVoqRLxIxd2bi2G4Uk5zGCLyErmUU5nhDObMjpWBIhBDXhAJtWVbO9o55w0MNkJEXv6BwTkQQeQ6PqcnxN8yba693oe04j5QqMPNbJ8CfXLdm9U9uSiUyWcPb1ZkZ7K8lnjCUZkb4bwpYwcxrzs34SER8uTwGPP7/kikzy5R7c02nCr48jFZwe6uK2tnd8jiLL+D0G5UEfAxNR/vGHh3nuUC9Bv5s7NzYzMZtgbCZOa20ZPvc1djMSKlahYckJKoDiAnedU6C0HFjZQ71E7OzS6j9VtGkUNbZox0ukc3zjmaM8/Xo3li3YsbaeB3a209lcySfu28T7d6zmYNcYT716ju+8fJpta+oufa3jUbRjg8ixNInVpUy+r4VM7dLbEwIwCwpjPZX0HK0nnXBd89aXG40QEmZeZWq4lHTcReuGcRrap1H1pdNmIxSZni9so+nxk7hmMqj7e5Dv34zd/M7eeJIkEUtmee30MNXlAe7a0kLX0AztjWE2r67hG88eY2IuQTjouaZRqqJFkNUYllkBYglldARYeacVUVma985vY0VQLwFhQTGztPpPFdfgolkNCiE4eHaU/vEIn35gC3PxNE++eIrnDvaybU0dj92znm1r6vjArWvYvbmFom2jX+osz0IR5ewoytlRhCwxfU8zkZ11S9JeMJfR6TlSz+CZGormErqwLQLClkhEvZzZ30w67qZt09iSSgGnm0P0/8IW1v7BK8iRJMazR8l+4YF3fV4yk8c0bTa0VnHXphamIkl6RueoDQfI5guksgVsW3AtR79KchpZjSBJBYR4d1/i9xIi77QjGlU3eiWLw9K7at0A7DxYySU0+1QqLtqYNnCMHM4Nz7KhrZp7t7Xic+t8/N6N/LtHbqV7ZJY//+Y+JiMJZAl8HoPgJZiNv4E8NY96chh5Pk2ivYype1sc8/slhBASqXk3R19op/d4/U0npm+mkNPoO1nLyX2txOd8SyZCF4pEz69uJxf2IhWKqEcHkIdn3/V5QZ8Lj1sjnXVGud22vpH9p0f5o8dfxtBUasJ+lGs9SF2yUfRJJHlxtneuJ3bBqU9ZLqwI6iVg552eqUU0G7qmyHIGRZviShcshDOu6o16taJlo6kKAY+LXKHI5FySNU3l3LetjdvWN/IbH7+d+oog0uVunhUt1N4J1LMjCFVm7rY6ottr/hd77x1c15XfeX7OTS+/hwc85AwwAQxilKhAqSW1Okgd3D0dbG/b7mmvPQ413pmpWtfUTs2Op3ZqtmpnyzX2jHddDmOPvW17uttttzqog1ottSipJZGUmCMIEDnj4eX3bjj7xwUpSiJAJBL3UvhUUaTIh4uD9+4933N+5/f7/pCqPyZhcHdm6akob/ywh7GBmo0ejidwbIWRvlrOvNrFzFjcN+fH5dow/b+yB6REmc6iHz0HztLPUCIaZFtriqujM5zuG6e3s56upmoe3dvFr33qfpprE5iWjXOHcz8VfRKhZvHNJLWAtNxSROmfE4Il2Qz5LgO7tCCoPkELDKwp3DudznN1dJZ4JEBrXQJDV3niQBeGrmHoGplCmZGpeXRNZTqdJxwwUFdRKqPM5FDPDKJMZ8h1Jpl6uI1io39s1KQjmJ2IcfzHO8jO3SOHQOuEdAQTg9XYlsL2g4OkmtOoqrdDPI6u0P/Le9nyJyfQ8xX0Y32YT+7BWcKTWtdUHtrdTiZfYnwmw472FP/88w/hOJLZTIEfvH6Jock0n31sF401sZUvOpeJomVQtTR2pRmkfzJ85MI5ql24N+pRNwV1GThl/2T3AijBQQSrm7ykhMl0jmePnuPaeJp92xp55L5OuptqiEUCSCnZ1priO69cwHEku7sbaGtIoKw06cKRKAOTaKcGkKrC7P5GZu5vxlnu2esGIx3BzHic4y9sJ7cpprdESpgaqUJK2AHeF1UhyHVUMfSZHXT91UmUsVm041epPL20e1JVLMRnP7QL03RwpMPI5DxvnBvipbf7OTcwQVt9FQ/uaqe2KnLH7AiFqCD0aYRSQdr+EdTrRvn3imPSZtnMbZC22wy3OOiXM1SHYOInKNrqUpKFgKpoiK6maoSAn5y4ynOvXWJ4ah5FCMIhnd7OeprrEuzsrOeZh3ZQn4yu2MxB5EoYr17AePUipdowg1/cyfhT3Ujd+6cQ0hHMTMQ5sSmmy6KQDVDMBYnES4SiFYSH28NJVWDHArR+8zxqyQJVwdrXBUv0OhWApipMzOX4/uuX+KvnTnCmf5Lezjo+fHArtiPpG5lhW1stsbBxx3ap0glil9uRjr/uSaGDkQJj6dJfX7C5Q70N0nRXT36J8StaGkVb21mKoat0N9cQNDSyhTIvn+zn/MAkfcMztDVUcXhXG7u7GmiujRMM6KuqyVbG59zdqZRkt9cwc6gZO+T921FK98z05EtbNsO8y0YwNZJA0VpRNJvq+qxne65KTSG9s47pwy00vNCPOjCJ2jfmiuoS2I7k0uA05wemONTTwpH7OulqriZk6Fwamub3/vx5zg1MUlcdRb9DOQKKPoOi5HGowU9OCbLiL0vXpfD+DLbBOCZYRb/sTl27QVi7DZllO5y8Msb4bJb/6SP76O2sZ3AizYsn+viv33iVvVub+K3PHqazsRqx0vNT00K5NoV6cRQrojO7t4FMT2rNY77jSMjNhTjzahfpqXsgPnVXEUwNJTEMC/3gIPHqvGd3qpWqAMOf3k7dT68h5nJoJ65i7WqDJfx5FUVwqKeFXd31xMMBgoaGZTvMZQtcG5/Dsm3KFZM76UeoqBk3MUnYIP0ztTuWW5aIg+/TZP3zrm8QjukemPsFVR9dl/pT07IZnpwnEjLYs7WR7uYatrWm2N6WYjZTpCkVIxI0VuWKo8zm0E9fQ5QqFHekmLm/mbIPXJGK+QDn32xnenRp8/RNbo3jCEb7UwTCFbbsHSYcK3nSVckJakwdaSffUUXsahrt4gjKZAanefGYpADikQDxSMC1JZzLc2V4hmMXhnnr4ghbW1JsbU1RLFuoqoJp2etuoC+EiaLPIkom0keCiuPmqTgVUHzepdFH7/rGICt+ElQH1ZhYl96nmqpQHQ9z/tokp6+MEwnoxKNBVFUhaGgc3tlGqiqy8vMgKVEm51HPDuFoCvO9KWYPNXk+QmWWNa6eaWK0P7XQr3ST1WBbCtcuNBCKlunoGccIea/bhFQEheY44092ErtyHGUijXppBKcpedvWbo6UnB+Y5MfH+jhzdRwhBEf2dvLhQ1sxbZvvvHKezqZqiiWTI3s71j1JSdWmXIMH/GPwIK8LanlTUO9tpLtqcoobPZDlIZQCijrPetSi6ZrKge1NXBme5ruvXuDS0DQdDVWMzmQpVSwiodUlV4iSiTI4hTo+RyUeIL2rnnybt3d8ji0YvZpi4FwD9gfYtGG9MMsaV083E46VaOycQdW8d55ixQwmHu+k46un0TJFtHNDmA/ugODSGbSOI7k8NM1UOseje7t4eE87DTUx0tkiPzkxwB994zVSVREO7mjmUG/ruguqos8glNJCOzePr1KvIxcqKUqgeXsquC2bgroE0nFrpByfdEZyH6YKqxFUKSWS64+g+9/2hiQ//9R9/PTtAU5eHuXqyAwAj+3roqMhuaraU5EpoJ1zW7QVmuPM7WvACXj4NpQwNxmj71Qz5cIdNjn/AJHPBLl6pplIokRVbc5zzcodQyXTU0tmR4qa42OoA1MoU/M4rUuf9WuqwhMHt/Dovi6ChsZspsirp69x/OIIF69NkYgFkdLhn3xoF6E7cN8rahqhFOGmp9kPOKYrqH7HwzPZxiNtt0bKLxm+qj4DYuUhNMt2mJzNMjqTRVUUDF3F0FR0TcXQNJ480M19WxqYz5VIxkJ0NlWvroOGIxEzWbSLo0hVkOtOMneft008SwWDq6ebyMxGfGOj5xdmRhMMXqwnFC0TDFc2ejjvQiqCYkOE6YdaqT4+hjKdQb08htNSc9uwbzIWwnYkJy6O8MM3LjM4kSYZDfLUoS1EQgGee+0CTbVxtDtgSSjUIkLNgXBA+udoQpr+iQQuxaagLoG03VCEXwRV0aZXlZCUL1Z46e1+vvvqBSJBg1gkQEDXbjQTDxgakaBBPBLg4T0dhAL66sK9FQt1aAZlap5K1GC+J0WxxbtdZRxHMNJXy+SQ6/izyfriOILhS3VU12do6p72nOmDFQ0w/UALXX95Em2+gHZlDPORHjBuP22WyiY/fOMyV0dn+djhbdzf00JDTQzblgQMFWOdE5LeQaJoswhh+SoxSVoLO1R/bazfx+YssQTSvulD9qbxZfgAACAASURBVDyOm+HH6tS/WLEYnswwlytRHQuTjIcoFCu8dmaQ4xdG6BuZoW9kllyhvPrM/0IZ9coYVCxK9RHm7mvA8bCRw/x0lMGL9ZRLPnKe8RmlgkH/mSYKmeCdrChZFU5AJbu1hlxHFaJYRhmeRplfXobide/erS01PLSrnebaBPPZEucHJjE0ldHpDIXSnUnIUrRZED45p1rAb5uXxfDPEmYDkJYb8vUDQikhlLwb6lkhkZDBI3s6mEm7NXNbWmo42NPCqStjOBLu721lz5YGdE2lsTqGtprCdOmen6qXR8GRFBtjpPfWr/w6dwmrojJ4sZ7sXBjpE3N3vzIzHmf4ci3bDgx5apcqFUGpPkJ6Tx3Jk+MoUxmUwSmc2ttHVUIBncf2dTI1l8eRktfPDvHS21e5PDRNYypOPBxgV3c9H71/2/onJmlpd4e6rle9s0jHTQCVFggfq5J3twce4EYYwgcINYeirG6wmqrQ1VTNzz3ay5aWGl4+OcALx/q4ODhNY02M+3tb6O2oY2trilgksDrrNNt2y2XGZrGDGrnOKvLtVasa791gerSKyaEkZsXHT7dPcGy3lCY7671aZDMeYG5fI3ZQQ8zlUa+OL8ucQVMVDmxv5rF9nQxPpvkfPz7JtbE5Lg9Ns29rI1uaa/j2y+e5Nj637mNWtDTgvXKkpZDXKyr8tbF+H5uCugTSdj9kP6CoWRCry/AFdwLobKrm00d62daa4vljV3jj3BBtDVU3umSsZZ8myhbq4DQiV6JSHSK9px476E2xKhd1RvpSFDJBn4T7/U9+PsTAuUbPRQPssE6mJ0WlJoSSLaIOTUNlebN+KKATDhocOz9MQFf5pY/v58D2Zhwp+fChLTiO5NSV8XUfs6LmEEoZX928jpuYJDcF9R5Fuqnc0icLPUXNINZ4bqKpCu2NST59pJcHeluxbYepdJ5csXKjN+pqEWUTdWASLIdyTYj5XXVrut6dZHq0itnxxAe6UfhGMHyllvmZyEYP4104ukKhKUauIwmWjZjOokxnV3SNXLFCV3MNu7sa+NSRXl480c/xiyNkCuU7I3nCeifT10c4ln82MIuxKaiLIKW/VkxCy6yL5aAiBC11CT77oV08df9WzvdP8NO3+8kUyqu/qASRL6FemwQB5VSYzHZveveWizoT15IUsoGNHsoHjnLBcHepHitPqiSDzPemQICSzqOMzi77a3VNoau5htHpDJl8mQPbmwkYKv/tO8dora/iwPbmO5KMpWjzq05Q3Cik5Z8NzGJsCupiOO6KyS+m+Mp1U+z1uJYiaKmL88lHenj4vg635nQtD73juCv7qQx2UKPQlqCc8t55GbgmDnOTMWxrc3e6EYxeTZFLe8s2z4wFyGxPYQc0RDqPumBwshxUReFwbytSwiunB9A0lc8+tovH9nXyT585QHU8zJXhGeZz65us4c4HPpm8FpC2GxX0M5uCugg3dqh+WOQJG6EUVt1U/FaoikJzbYKnD+/g8M621Rk5XB+eZaNMpBHZImYswPz2GpyA9wTLMlWmR6o8WcLxQaGUNxi+XLvRw3gXdkQn15XEihqIbBFlfA6s5T9rzXUJPvlwD1VRd6FwcEcLHzu8nXyxwp89+wb/9e9f5fLw9Lrec0LNwjrOB3cDabve6X7Gm1khXkAuiKkP7kkhKq5/5zqfyKiKIBlfh92CabthMsvGjBlkt9YgV2FbeKfJpUPMTcY2M3s3ECkFo321dO0eJeAR43xHUynVRyg2RAnMTiHm8ohsEZlc3nmvpirs3dZIsWRRMW1O943z07f7uTQ0TbZQwrYd3jw/zJbmGqpi67M7F0pu3SJWdwtp+z/Ld3PmWIzrSUl+EFSl5Gb4eswP9QamdSNMZkUD5DuTGzyg9yMdwex4nFw65LkzvA8a2XSImbEETV3TGz0UFwFmVZB8e4Kqs5MomSLKXA57mYIKENA1puby/Mm33qB/dJaWugSfPtJLfTLC2GyOH795hbb6Kp5+cPvqytLeg6LmETh+yvN1M31tfO2WtCmoiyAdHyUkiQpiFR6+dwUJolBBTMwjFUGlKkCh2XvNuStljfRUlHJx0wB/o7EtldG+FI2dM54xzTdjBoW2BBKByBYQM1noWpkxSdDQaKlLcHhXK70d9dQlo+iaQqZQQVUEbfVV6yKmAEJdncnLRnJ9zpXytnbJnmVTUBdBOv7JOBOKiVAsPFl3Jh2UbAElncMJqBSb41hR74lWLh0mOxfZ9Oz1CDPjcYq5AOGYN5xVrKhBvi2B1BVEpogys7LSGYBkPMQXnthNMKBj6CqKEEgpKZYqzOdKHL84Qk0iTGNNfM2C4h4B+UtQrx+zSQeETx9Dnw77LuD4KONMlMCrKfKORGRLiEwBO6BRaI57rl2bIwXz05HNUhkPUcwFmJvwTiTDChvuvaspiHwJkc6v+BqqolAVCxE0NAolEyklhVKFr/7gbX7w+iXeujTKX37vONn8GkrUFhA4dySv4k4i5UJU0GfrgJvZFNTFkP44P4XrZ6geHawjEek8omzhBFRKDRHPGeLbpkp2LrwZ7vUQjqMwOewda0rHUKnUhLBDGqJioeSKYK1uETufK/H7f3eUTL5MqWJzYXCSpx/awVc+cZDJ2RxXRtbj7FgihM/ckq7PuT4a8nvx1szmIaQE/HKGqlTWtWRmPRG2g5jOAGAHNIqN0Q0e0fsp5QzymdBmuNdLSMH8dJRK2SPRDOGGfcu1EXAk5MuIVZqd5EsVTl4eJZ0rYdkOuqoSDwdoSsXZ2VVPubI+0SahlL2bqHgrFgTVzyVrmzPIYjjgeFOj3s8aPHzvOI6DMuMKqhPUKDV6J4x3nXwmRDG3Ge71ElIufC4eCsNbYZ1SbdiNuuRLiFWGZuPhAC11cZ59+Ryn+8aYzRQIBjSqokE+9Ugv921tWPtghbvQ9uy8cCskbrjXR0N+L5uCugjyeh2qDxDC9G7I13ZuJHDYAZVig7d2qI4jyGeClAqbPU+9hlVRmZ/2zv1iR67vUB3EGnaokZDBr3z8AD968zL/8a9eJFUVYWdnPbqmUl8dJRxcj6MHCV7N/F8EeQ+EfD0ST/EoHtWo9+Ka4nv0LjRtRLaEVARWRMeKeeucUjoKhWyAyno2EZcSKZ1FGwoIoSCU9V3LOrZFYW6S4twkwXg1kVQTirr04+1YJtmJQSr5DNG6VoLx6nUf11pwHEF6OkobExs9FADsoEYlGXR3fyUTUVydrY8Qgn3bmvgv/+pTjE5l6G5JUbeCmtblf6PVzQuLlYFKt2joxp8B1taDapFv7tGpbDlsCupi+OmDFSaLDdaREtO0MXTt7td2SRCmjShVFgTVwHlvM2UJtu2ABFVT7npBd6WsUioYOPathUQ6DtKxXXFaxhsoHYf89Agjb71EKTf/vn8XAmo6d1Lfcz9acOV+xo5tIR0HoSg3CaYkPzXMyW/+ETNXz1C75T52ffo3iDd2IKVEOra7q1LVBcF0f46pKyc5+50/JTs+SMv+x9n5yV8jGPOO6YaUgvy8e7atahu/urUNFTNmuLJSMaG8+h2gEIL2hiTtDXfu/RbCRNyQvuVhWhUyxTSaqpMIvzO2fClDrpQlFkoQDkSZyUwCUBWpRlPXaTF6PeTrYzYFdTF8FPJdVEwdyflrk3zr5XN85ZmD1FfH7rKoSjAtdyWvCqyogWO8I1xSQiFd4vyL/ZgVmz0f3UI4EbyrYywXDCrFW08Ijm0zc/UU2fFrNO05QjBefVtRdawKs/3nuPijr2JVSghFQdxcVCcEVrlIsqN3xYIqHYuh48+THR8iWtdC64EnUPWA6+plWVjFPCCxLRPbdMORpfkZJi8cIz8zSk3XTmq69qAFXHs7q5THMd3FmFUqei9pQLrlM1ZF9YSgOob6Tg11ZfU7VC8zON3PV1/6Yzrrt/Klx37zhtHEG5eP8qOTz/LMwc/z8I4n+auf/BG2Y/Olx36DxurWdfv+Uvo7KWlTUO8BhGLeMptvLlvkd//oe7x5boSBsTn+3Vc+TFMqtm5uLMsam2lB8aYdqv7ODtW2bM6+0M/X/+0LWGWbzESeh7+0h0gydNdEtVLSqZRvLaj5qWHOfvvPmR+9Qn5mlK2Pf4FAvOa275+UDhKJompEUk3EGzpACLdJu6JS3dGLviBqN2aP69eUcmFPId73fWzTpP+VbzM3cIGq1q007jyMqrkTfLimga1PfJG5wYskWrqJ1bmTXH56lGuvP8dM/1k6H/oEsYZONCMIQKprN12PfIr87DgNvYfRI+9PGHPD1gvjuXmcq3zdSpBSUC7qWKZKgI0/D7whqAJE2UKUvSyoEiFWPj7HsSmW81TMd58PW7ZJqVzAst3Sh5JZxHZsHL/UFt4lNgX1nuDW8elI0ODgjhbO9bu7VCT8my8/QWt9AuVuKJbErdUrm66ghnWk9s5uTVEVqlviNG1PcfpHfXz/D15HAg//4m6iNaG7IvxmScMq37rzTSBWRaKpk9zkIH0//UeQsOXxzxNMpJY1NtUI0nTfEXY+86u3FBjHtihlZrDKJff8EkEpO+vuNBWFQLSKYKIGRdUwS3nyk8PYFbe20CqXyE4OUc5nblw63tRBorkTLRhB0Q0q+QzF9ARWpQRSUs7Pk5scwioXb3xN7bZ91ALBWPJdZ66ObVHOzFHOz2ObZYSiYoSjBGPVaMEQ18PGjm1RyWcoZ9PYZgmEghGOEogl0QPhNQurbamUCgEiiY13THIMBSvsCiqmDWWf1NVtctfYFNR7mGBA43e/9BhCCP76+yf49ivnEargX3/pMdobkndFVIUjEbYDqkBqyru6zCiKoOtgI5/4Xx8CAWd+dJUf/uEbCCF48Od3EkuF76ioSgmmqWGat34MjEiCnqf/KSAYOfkSfUe/BbiiGkqklicW8r1/eOdrSvPTXPzhV5npP0vb/R9B2jYjJ18mOz6AomrUdO9hx8d+iWTrdmaunOLUP/6/FObGXYedmTGOf/X/QlU1UMSN6yqaRt22g3Q+8kkmLx7j8gtfpzg3iZQOkxeOkR66hKLpC+/rO2PpfuwztB54Ei0QxrFMZvrP0PfTf2Bu4DyVQhahKMQbOmk58AQtB54gGEvi2CbzI330v/pdJi8co5KbR9F0Yg3tdB/5ORr3PIKqry0JTUooFbyRyCYV8Y4pieOA/QHbnfnUX/dusimoHkQiMS2TirW8VblVKKKL8qIG+f/zpw6RL1b42+dP8p2Xz6MKwb/6hSN0NVajrLKNmpRQKFdwnCUOPByJWqhg2w62qpCVkkK+giy9OwGoqSfF47+2n1KuwsWXB/nBH/4MIeDwF1cnqlKCVbGwyksfgkspyM9VKOdKmKVbv1Y1gmx5/HNYlSJjp45y9eWbRbV2yUlGSodydo70aN+NbEgtECIYr0E1AthmmUJ6iuzEIH0v/QOOVUbRA+ihKJX8PONnX0NRVA7+0r/GtipI27qhyxKJdCxsHLDd895Kfh7HMgnGU5ilPI5lIp13Mj2llEjbvtGDxDYrVHLzOLZFdvwajmWCIZm7dp5Tf/9fyIwPEmtoJ9m+g3J+nvTgRXLTIzi2yZYPfY5SZparR59l6M0fEYxXk9q6F5BUClnys+M4ZmUdBFWsbwb2GpCqgrx+ZOFIhNfOnNeRRfLTNzX1NmwK6lJs0N1j2xYXR07z5uWXl/V6PXwW1Rhdsv9hMh4iGQsxPDnPt4+eRxGC3/nCw2xtuf2Z4K0wbZvvvnKBmUxh8RdJiTIxj+E4OCbMnJti5C/evmUvVNtyiFWHCER0Jq7M8f0/eB0hBIe/uJNoTXhFkUPbtOk/NsbVN0eWfJ2UgqmRfiYGz+PYSzc8D8arUQMhyrk0V1/+FlJKtj7xRUJVqcXHUSkxfvZnpEeu3Pi7ZNsOuo58mkRT103jcKgU5qndtp/mPUcwywX6jz5LbmqYiQtvUinmSG3Zw85P/hrnvvvn5KZHCSVq2fGxX0IPuuUWxcwM1372HPML30szQjT0PohdqXDt9efITQ5T09lL032PEogkAMiMDzDw2ncpzL5TlmKZZa6+8izZiSGCiRp2f/o3qO7opZCe5K2//b+ZG7zA6KmjtOz7EOV8ltn+cwhFJbV1Lzuf+VUU3SA/PYqi6WsWU/e9EZgeckuSqruzF450HZM8zcqfayEEQijYNxZiC6F96SAQKGLp52TN+FyxPXKnehABd/reWQzTrvDqhRf4P7/xu3fk+rlihR+9eYVtbSk6P3MY/b2lLMugYtr84ddf5Wz/MmsELQdeHnR/LYOJvlle+ZtTtO9tYMuDKztPNUsWb3/vEt/6j0eX/TUrwbYqDLz2XZLtPbQeeJxFZwEJtm1iFvPu+AXYlaK703wP0doWtn7o89R070EIyIz2U5idwDbLlLNpqlq30dD7AJde+BoCgRGJ07DzQQJRVxxzUyNMnHud+YU1hFBUIjUNVHf0MHb6FRAQqWmkoed+Qsk6AIxInOG3XnzXOMrZOWYHzuM4NpGaRoxInPzMKI5lkWjsYnbgHOXMLIW5SfRQFC0YRjo2+ZkxZvrPkmjZQryxA80IrU8PLgmW6Y3aWKkqOIbqfty2497THkauwrcnoAcJGkFmc9NUrAoBPYhlW6Tzc+iqTiR4B53OhHvL+LV1G2wK6qJs5AerKBpttV08seeZ5b1em0bR5lmq40yhbHLqyhiZfJmArrK9LUVPex3qKgv5VUXhwd1tNNfGl3ydyBXRzo/gqIJCa5xMTy236t8tbcnsSIaJK7NUihaxVJjO/U3E6yIr/hxUTaFxe4q9z2xd+oVSkEuHyM2HbntNs5hjfvgKVqWEomok23uI1jaz1JJa0Q1S3btp2fc4KAqKUAgmaoikmt732nB1w0ICkru4CcarEaoKJm5S0XsQilj8fbnl3wu3J9Zt3sxSZhazmAMpyU0Mcfof/h/A3auU0q5pu+PY2OUSsbpWGnrvpzg3wdzAec7MTpDs6KWh5xC12/YTStav+Qxcgnc8luXCrvT6xs3TE78AufKFciKcpDXVxWsXfsLR88/TlupiOjvB2cET1FU10pBsvgNjvQnPv69LsymoiyHYMGNGQzP40K6Pc//WI8t6fSD+Mnr0bYS49ZlrsWzy3GsXuToyS6lscbCnhX/+uYd44kD3qs9Qg4bG//bLj2MtkZghHIl6eZTI//E1rIDKwIe7OP3vH18Im72D40gm++Z48b+9xexwhkDU4PAXdvLUbx+ivju54klZD2kc+ie93PexLUu+znEEl060ceXtliVfZ5ZyDB9/gdzkMI5tkdq6l96nv0JV67Ylv05RNeKNnbQeePK2Qibes4K72YDhxomWuHmuWcF7cv2lS64Sr2ftvnMOLzTtXbWyekMb8cZ2gvEaQsk6jEiC1kNPIVSNqUtvkZsYZOzUUeaunaeUnaPj8DMEYmvsGCPhliuwDUDYEsVcuN9Vxf3lZaTKStUpFkrwSM+HGZsd4nvHv0FdvJF8OYuhBXl050epTbg+w6lYPZZjrp+pA2zonLtebArqYmxgyFcgCBlhQsbyCv8D8RSBWBShvH/ApYrFS29d5S++e5zp+TwHe1r4X77wME8e2LJqMQV3Xk7GbrOzcyRaLEREUbAF5AIa8drwu0pnrovpiWcvcur7V1B1lQe+sJOnfusQjdtqEKsYoxCCYEQnGFn6YXccQSQZW3LSN4s5Ji8e59obP8AsFajdtp+ej/8yyfYd656BfPuriRvvh3QWtzZc9MrO7Vt56KHojfKZeEMHez772++6r4RQUHUDI5pACIVITRNbHvscDb0PMHnhGMNvvUh66DKTF46T6r5v7YJ60/A3GiEXMtaRSCGQHrJpvBUSfcVmb0IIuht38JWn/gXnht5mPj9HVaSarU07aUw2oyruvXFk51PYjk0slFi38YqFIIpXPu/VsCmoi7GBgrpSpNS51V1YMW2+ffQc/+lvXmZgbJZDPa38yy8+zBMHt9ydOlTcUgNUBaREWA7ClsiFu046kqmrc7z45yc4+v+dwrEdDn9hJx/+zYM0bV+dmK4UISRCSOQtdkFmKc/QsR9z+SdfozQ/Td22/ez46JdItvcsS0ylY1NMTzE7cHYh3KogBAv1pYsnMy06VkVF0QwkknIuzdy1i0Rqm24kJt0KRdVQNA2kQ35mlPTwFaxSwf3+4v3mEaFEinB1I+VsmtzUMIWZcaratqNqOmapQCkzi7QtjEiCcn6e+dE+ItUNRGtb0AJhctOjpIcuYZtlHHPtxgdCgKJ45KzSuWmHev2+9jKOxmrUSREKDVXNNFQ1v8u/92Z6Wu5bhwG+n01BvUcRPhJUHB0plffdh/mSWyrTPzrLAztb+ZdffITH93ffNTEF4HqpgWmili03O/L6sG3J8LkpTj53BceRPPCFnTz5zw7QtCN1l8QUFFWiqA629f4Pu5ydY/jEC5Qys9RuP8D2D//iws50eROpbVaYvnKS4tyU+/MIBSEEtdv203boqRV7RSuqRrSulekrpyjNT3Pp+b8hUttM466HiTd23PJrjEicYKwaEMxeu4Btfo1oXTOdD33y1q8Px2je9yHy0yMUZsY499xfUt3eg2oEMAs5ivPThKtqiTd1Upgd49Lzf0swliRc3YBVLjF37TyKphNJNRKsqlnZD7gIqu4ND1DFkijlhdIlTXV/eRaBlAZrVae7WiizEPLdTEq6F1FA+OTdkTLArR6cgK7x8cPbiYUMfuXpgzy6t3NNYd4VI0BqKhgaolxBLVoIy+b6bScUQV1n8kby0EO/uJumHbV3RUyvo2gOiiq5ReIteihKfe8DRGpb6Dj8MVdMbxFWvxmhKBjRBJGaRir5zEJHl2s3vUAQrW3BsSyEpmOEYwRjSYxIHHGTU5EWjBKIVqEZAVQtcOParfsfJzN6ldzUMPMjfZTz8zT0PICiqgQiVQSiSYxQDGVhnMFEirrtB8lNDZOfHnPLaqTEsSqoeoBAtMp1NQpFXcFXVFr3P45ZzDJ+5jVyk0NkRq8umPHrBBMpkm3bEYqKFghjhGNMXnoLxyyDoqDpQep77qd574cIJ9fe11MIiWZ4Q1CFaaMVF86Ydfe+9iwSpHPrecGr3NjEeHzjvxQeviM2FuEnQXUCIN9/F4aDOr/w1H08uKuNHe11aBsRotI1ZCiAmM+j5SrvhMwARRU09aR46rcPIR1JsimOot7NCUCiaTaq5mDeorVlIFpFx+GnMUt5wtX1t22HBiBUjarWbfQ+/RWsSvGWr4mkmglEE0jHof2Bj1G7dR+R2qYb9aEAdTsOEIjEkdImkmq8EZqt6dpF7zNfITc5uGBZWEN1Zy96KErbAx+hpns34ep69LBb3qAFQjTsfIBAPEluagRpW0RqmojWtbrnZY9+hnI2TaJlyw2P32Cihu5HP0NN505yk8OYpTxCKOihKOHqOuINnSiqRri6nq1PfJG67Qco59IIoRCIVxNv6CBW34ZqrENzcAFGwBsWf2rFRstWXLEydGTQG4YTt0a4C22PJHQtC8UV1M0d6r2IAsLLz8tNSCcI3HrnFA0F2NW19p3C6hALgmqgONIV1Mq7dxuqplDdvHTpzZ1EMyw0bfEdUCBWtaLEGiEUQokUofuWl6Fdu22/e778ngzcRGMn8fr2951zKppB3fYDpLr34NgWiqbfEPraLXtJde+5EVp+52dIUt9zP7VbTZCOaz24sINt2PWg22bvJvtCcBcT9T33k9qy13VQEgJV01G0dx4KVQ+QbNtOorkb26wghEDRjBulP+uBEJJA2Bsm9ErFRs9W3JZoAQ25Lo3A7wwS4bsdKps71HsXIUC5fqbvcUMUKQ2k9OBgBUhdRYYNhC3R8hXU29gB3k2EAD1goxkbtwN6r5C+69+WyCJV3iNuCxdDLHLwL4S4pXOREEv3oFV147aOR4qqLWv3vhoUVRL0iqCWbfRM2X3EDB0Z8q6gIg1uZP/5hOtRwWWmKHgSHw/9DiN89OE6uncfHk1FxsIgJVrBwkhvfNeQmwkETM+EFDd5DwIMD30+atHEmCuCEMiQ4WlBlXYIv03vQlnYxPgYf73jdxGhgKL7Q1ClDK5LRt8dQVWQNe55nlK2CE7kNnhA78YImxjBje+1ucn7EUiCkQqaR7J8tYJJYKoAikCGAxBehzPiO4TjRJGrcEraSITqn7yVxfCBXGwQCzvURY4mPYV0AguJSd4UVGfBnlAtWYRGsxs8oHcTCJoEwibiFg3aN9lYhCIJx0qeyfLV8hWCk3l3hxoJuqLqUaQdwW/Tu9BA8e6mf1n46x2/mwg3KckXtahSQzqhVZlh32mkKnBqYm5SS9kiOJ67rVvP3UTVHELRMrpHwoqbvIMQEK8peGKxIxyJnqlgzBbdNm7RgMdDvrFbZv57GtU/iaCL4bN3/O5xPSnJF4KKwLGj6/oASQm27VCuWFRMG2e1IqgoyHjIzfQt24TGcu8qndloFMUhHCsRCG2Gfb2GqjlUpbwR0VBKFoGpPGrZgqCOjIU87ZTk2DH8Nr0r98AO1ecR6zuI8FcIQtpx1is+nS9WODcwyRvnhrg2PoeqKOze0sAjezpoTsVRVzKRCIGMhZHxMOpchvBwBqVkuW2wvICASLxEMFwhO7c87+RN7g7BcJlI4ta1vHcbrWASGskgTAdZHUImoxs9pCVx7Li/zlCvz7c+36FuCuoSCA3U4EaPYnk4VhwptTWnJU3O5fjHn57lO69cRNcUupqqURTBc69d5Nj5Eb789H56O+uXbxKhCGQ8hFMdRZtIE5zIYcyXseLeOX8Kx0qE4yXEmEQ6HjyH/gAihCSWLBAMeyNyoOUqRAYzKJaDHQu5xxieRbgLbB+FfIVwNy9+T0ry+fDvLIoGik8EVTqxhVrU1ZMvVfjB65d49uXzHOpt4VOP9NJWX4WqCIYm5/mzb7/Jd1+7SG0yQmPN8s0YZEDHaUzCuSH0TJnItj7uyAAAIABJREFU0DyF1o0zc3gvetAimihgBCzKRZ8vke8RhICa5nkU1RvHA3q2TGQwDULgxEI41d4VVGmHcPxWNnO9qsLniuSjd/zuI64Lqg82LdKKwRqdUfpH53jt9CD7tzXz65+6nz1bGqmOh0lEQ/R21vNzR3bSPzrL1ZG5Jfugvg9dw2mudv+YrRDpn1v1GO8EquoQrykQjNzCf3CTDUEPmtQ2zm/0MG6gz5eJDMy7ZiWJELLauyFfx06A9NfCUCigBDYF9Z5GqKD6xL3LsaNIJ7Tq0hkpYXo+jy0lB3uaqa+JMzA2yzdfOsOFwUkUAXu3NqIqCpNzWUxr+aUMUlexG5NIQ0PLlolfnEHYG5+5eTOJmhzReMkTGaWbQCxZIFad3+hhAG79dHgkQ2C64Hr4VseQEe+Grhyras3RqruN0BYE1eeK5PPh32EWVk23aTDiERQcK4lcQ2KSbUsUIQgYumvLp6ocuzDMG+eGKJRNdF0lFg4gUFZW+aIpOA1JZCKCnikTvzCNYnqjtvA6wUiFeCq3WT7jEZo6Z1A1b4R7tbxJ9Moseq6CTISxm6o9vch2rGrvOqctgtBBDW30KNbOpqAugVBBCeGbk2bHTMEqM/uEgKZUjKpokMGJOSqmRTIeoiEZ4/zAJEPjaRQBn3t8Nw/taSMUWMGboijI6ihOfQLFdAiNZAkPeiecB26JRk3jPOGYt6wRP4gEQhUaO6c3ehg3MObLJM5NIywHpypy4/jCq9hWDdJnIV9FW5hrfY5PpGJjEAqohpt95ngje39JbCu1ppVpW30VW5preO3sIIoQXBqa5qdv99PTUUfFsgkGdA71tqxqcS6DBnZXA9qZQQJzRRIXpshuW58G1OtFIpUnXpMnOxvBtjfXmhtFqjlNtMojD5wEfa5I4tyU+79VEZwmb923NyOlhrSqVr2w3iiE4Z+KiqXYnDVug2KA5pOVk2NVL3j6ro5IyOCpB7bSWp/gz79zjIGxOX7rsw/yH379I+zsbGB2vsh0Or+i89MbBHTs9lqkrmJMF0icmvRUYxxwd0apxnkCEW90N/kgomo2nTvHNnoYN1AqNpFr84SHM0hDw6mN4yQjGz2sRXGsqoV2jh6OSb8Hobi5Kop3KulWzeYO9TYIA1TvPj/vwn2YQqyljVtLXYJf//QDfPpILzWJCLFwAFVRqFgWR0/1c/LyGJ860svu7oYVNSyXhobTmkImwgTm8lSdmUAtVrDD3nHOEAJSLWkS/SlKuQDOZk3qXSdZl6W22TvHAVq+QuLsJEa6hEzGcDrqQPHufeFYSd8J6o1clXtAUDd3qLdB0Rdi+364P6WKXalbU0G3IgSNNTF2tNdxbWyOP/nW6/z3545zZXiGB3a2ETA0vv+zS0ynV5iBqSo4qThOay3CcogMZUlcmFn1OO8U0XiJ2uY0Rmhzl3q3UVVJ955Rz9SeAhjpEtUnxhCWg6yOYHXVL9q/1gs4Zi1S+kuZhOKGe/3eug02BfW2CA20sH/SuW2zcU2ZvtcZnEjzjy+f5dLQNIPjc/zw9Utk8yUe39/FxcEpJuZyK/a4l9Eg1vYmUBSCY1mq3h5f8zjXG6FIGjpmSFQXUBSPxaTvcarqMjR0eGeRJWyH4HiOqjOTC12TEjitqY0e1hIoOGYK6Xgn6rMchA5qFH9sWm7DPbAmuLMIDdSw+7v0VqXHLbHLTW5CwhpvzkLJJBTQeXRvF/u2NvGNF09z9NQ1HOlQKptYtoOUErGC1boMGdid9ciQQXCyQPLkBGrJwg566zaMJovUd8wyPxuhlPfX5ORXVM1my94Rz5TKgNtuMHFuivBIFhkJYrfVIsPezZyRdsQ1dfBDz8mbUAzQfHKsdjt8su/aOITiuiX5JQPNMesWzlHXRnNtnMaaOP2js1wbn6NcsXj26Hm+ffQCD+xsozoWplg2qVg2FdNe3omtruG01OA0VqEWTeIXpon2za55rOuNEJLm7imqarOeCj/ey9S3zVHfOuspYw19vkztK0OoBROnKoK1rQk0706ZtpXEcSK+8vBlwcPXL3kqt8NbWwOPogTcD9z0Tq7EokhpYFfqUbQ0sHoxqEmEeWxfJ3/xnWP85EQfhqbR1VTNR+7fwoO72jnTN86Ji8MEAwapqjD7tjVhaLdZGQuQySjWzjYCfRNE++dInhhnvrfOc+GecKxE27YJsrMR8hmfrKZ8SihSpnvPiGcaiQMIWxIayZJ6bdgN99YncLY0bvSwlsQxa5G2vzomCeFuVlR/DXtRNgV1GagBf4UkrHI7WugyQqxeUBUhaG9Ism9bM1WxEA/uamPv1iYChsboVIbvvHqBn5zoIx4J8Pkn9rC7q+H2ggo4sRD2jhbkj04SGstR/dYYw5/ZgRX1Xmi1sXOGyZEk5Ut1WKa/wmh+QVEd2nZMUF2f8dTuVClbVJ0aJzKQRoYD2FsacarWbxKQEmzHQVWUdclxklLDrtQv+Hn7CMVN+lR9NuzF2BTUZaAE3ENzoYD0QQTQLrctnKOuzUYvHND55CM9KAtlAkMTaU5dGefYhWGujacxNJXtbXV85P6tBJfrnGRo2C01OC01qH1jJM5NE7s8w9w+763+NcOms3eUzEyYucn4Zmu3dUYIqGnI0LZjAlX30IMl3ezehhf6UcsWdl0VVk8L6OuzqJJScm08zfDkPAd2NBMKrN3VSNpRt2TGbw5JOuhx7pnDx01BXQZCBy26kJjkg2oK26zBseOoytSarqMogngkQLFs8vLJAV480cfMfIHm2gRf+cQBxmdzjExliIYDKCtJTqqJYe1qI3B5jNilGaqPjZLeXY/04PlUVV2O9h0TFHNBirl7ZBntEcKxEl27R4kkip7anQrbIdo3R91PB0FTcZqqcboa1u3687kSf/m949RWRdizpQFdU7Fsh4CurijJ72Ycq9rtgeozZRIGaN7p5LhmNgV1GQjFNW5Ww+D4QFBBxy61o+rTrIcd0cx8gR+8fgkhBL/w1F72bGmgKhpiZr7AlZFpQsbKbiMnEcbqbcV44TSh8Sw1b44y+vRWis3ee7IURdKydYrMbIRrFxqwKpuh3/VAD1i0bp+gtmUO1WOJX1rRov7FfsKjWWTMvVed5Pq1azvVN86pK2P8/u98gnyxwmtnhpiZz7O9rZbd3Q0YK94JC2yzHsfx30GkGgA9sdGjWD/8tZzZQNSwu0v1BVLBKnexXpk+QoCqKPR21LF3WyOxcIDBiTRn+yfIF02ujacpmysIL2sqTmsKq6cFtWSRPDlB1WnvWRFexwiadO0aJdWYRmzWpq4ZRXVoaJ+hddsERtBj3X0kBKYLNH/7EgBObRzrvo51y+4tViym03lsx+H01XH+6vsn+O6r53nl1AD//bnjXBtPr3zIThC7UrfgkOQjFioo/JSfcjs2d6jLRAktFB/7BLvShGNHUdTMmq9Vk4jw5MFugoZGvljh1dODPP/mZSbncrTVVxHQNR4/0M1Du9uXbUfo1CawdrejvXWVaN8sqddHmH6wBTPhzUkhVp1ny95hioUA89NRz4q/1xFCUt2QoXPnGFGPhXoBFNOm5mfDVJ2eRBo69pYGnPbadbn2yNQ8P3rzCm31VbTVJ/nJ8T5i4QAfO7wdVRH8ybfeYGw6w9bWlZnvO1YV0kr6r2WbClrMDfveK2zuUJeJGlz48H3yjjl2FLvStC7XChqaa/CwvZk3Lwzz7MvnSGdLZPJlDu9so6UuwbdePkc6t/wOITJsuJmTbbUY6RI1PxsmftE7LjnvRQhINc+zde8woUh5o4fjW2LVBbp2jZKsz6Ko3hJTcL17O//6JGrZQsZDmPu7kOG1n51L4NXTg7x2epDWugS/9dnDfOaxXXzlE4d4dG8niiJIxkLU16x01S6wzTocO47nas9ug2KAkdzoUawvPpGHjUeobsjXNz37pIZV3LpulwsFNKSUvHrqGl1N1fz6p++npS5BLBLg0X1dDE6kGZ3KLN+OUAjs1hrM+zpAUUiemiD12hBa3ly3Ma83qurQ3D3F1v1D6F4LVfqASKJI1+4R6ttm0XTv1JxeR9iS6mOj1L48CKqK3VGHtbt9Xa799qVRXjk1QDIeoikVZ0d7HY/s6aC5Ns6x80P8+Fgfjx/ooq2+akXXlY6OXWlAOv6LmyoG6N5uLbtiNgV1BWgR0GMbPYrlY5Xb1/VBE0C5YrGtPcWu7gYe3NXOC8f7eOVUP6WyuWLTcJmIYO9sxWmqJjiZp/boINGr3nNOuhlNt+nYMc62fUPoxqaoLpdQtEzXzlFauqe9d266gFKx6P6Lt9BzFWQ0iPnANuQ6JCM5UjI6k2FgfI6zVycYnEgv2HYuRD6qojy+v4uPH96+4hIax65yDR185t/LgqHDvZSQBJuCuiLUiBv29QuOlcAqN6/b9YKGTldTNdfG0uQKZY7c18H4dJbnfnaJDx3oprEmRjpXWP4FVQW7swF7ZxtCQs2bo9S8PoJa8uaEex09YNG1c5Qte4c9udPyGqFomc6do7RunyQQ9miavITqE2M0/KjfvS+bq7EObVmXzjIC2L+tiV/48F6SsSD/+X8c5Scn+iiWTBRFobezjicPbqE6vtIsXYFTqcexkvgt3CtU0BLuLvVeQv293/u939voQfgFoYKZhvIUa3H1u4uoCKWCHrq8Lldz61KDHD01gKYp9LTXkYgG6e2o49H7unj9/BAvnbjKoZ7WG2YQt0MaGqJUQb06gT6RwQnqpHfXU66NeHqOUHWHWHUBVXVIT8dw7M216a0Ix0t07RyjvWeCULTs2c5nSsVi979/idqfjSBDBpWP7luzoDpSMjmX4+zAJKbl0NNRx472OsZns/zozStMzedpq6siHgks+3m5GekYmIXd2JUO3yUkqQGIdENgffK9PIO/PoUNRqhuEbIaAiu70aNZHlapA2nHEerajYiFEGxtTfHpI72oioKmKRy5r4N8qcJ3X73It4+e4+OHt69MBw0Na3uzW5f6Yprao4OkXhsi15XEDnn79gyGK3TuGkPVHC6/1UqpcI8tt9eCgGiiQOfOMVq2TRKKVDwrpgC1rw7R9L3LIMBprsF8dCcoq18kSQkXB6f4+gunGZ/JUiiZ7Opu4Msf38+vfvIgL73Vz8tv97O7u4HG1OrCXo6VxDbr/Bfuxc3sDXi5E94q2VxWrwThhnx9Ffa1E5iltnW7nq6pHNzRwu7uBoK6Rqli8bUfn+Y7r1zgmYd2LFgVruy2cuoSWPs6ceqrCI3laPxBnye70NyKYLhCe884vQ/0E61aQbj7HkYISVUqx9Z9w7TtmCAUKXuuPOZmlLLFlj8+TmC6iDQ0Ko/vwllhctB7yZcqfPvoeaqiQT73od0kokGujsyAgMaaOJ96pJff/OxhelZdkiOwK404VjWeDuXcCsXNR7mXHJKusymoK+SGoPrlHpYaZnEHch1DQoauEg7qzGYK/Nmzb/DKqX6+8MRuPvlID6GAzvDkPLOZFYiLoWH1tGL1tiGEoO6lAWqPDqIVvJvxezOBkEnL1il2PdRPTeO8p8XjTqOoDqmmeXYcvEbLlkkCIW/vTAEanu+n8fmrCMBpTlF5bBesIgR7M9PpPKPTWQ5sbyGVjFCqmHzqkR6ioQDffPEMYzMZdnc3ULfKpCfXzKFpoVzGXwgVjOp77/wUNkO+K0YJuGbOigGOT8oR7XIb0qpB6BPrds1SxeKP//F1nn/zMod6WhmcmOM/ffWnzGYKDE/M8/GHtvM7n3942ddz6hOY+zpRzw8RGJml9ZvnmT3UxOyB9amlvdPoAYuG9hmCoQp9p5sZ6Ut94M5VdcOmoWOG7j0jVKWy3jK8XwRjtsiO//wzjLkSaArlTxxAVq9M5CzbYXhyHl1Tqa+OoqkKAUOlbFpcHZ3l9NVx7tvSxP29rViWwzdfOsOO9lrUNYSUbbMW26z33dkpuIb4Rh3+2ZSsgA/WE78OXM9O85NdlnTCVArbWc87WBEC23HQNJXZTIGK5dBcG+fS0DS5YoWHd3es7IKain1fh2vzpqvUvjJEw/NXMeaWbxax0aiaQ7IhQ+8D/fQcGiAY8WhG6x0gFC2zdf8gux66SrI+4wsxRULH356h9tUhQGL2tGI+2rviRKSZ+Txf/cFb/P2LZ5iZdyMz1bEwve11/OX3jnNlaJpH9rQTDuj83Y/fJhYO0NW0lgJMgV1uxjF9mNEj3ISkey0Z6TpCymWX4m+ygJmG9JtQuLbRI1kuEtUYIVz3NyjK+pzzSQmzmQL5YoVgQGd8JsMffP1VMrkS//uvPsmOtjr0lfqfOhLt2BWCf/0i2mW3A82xP/g4k4+2rTkEdzeREqyKxsxYnMtvtzI1UnXPtn5TVIdU4zxb9w+RapxH1W3Ph3ivE70yy6Of+Tuqzk4hDZ38v/95rH1dy/56y3Y4fmGEmUyB6liImkSYcwOTSODh3W0oQuGvv3+Cb750lvrqKLqqkC9V+Hdf+TD7tjWtobNMklL6SczCTvy2zRMqhDug5ojbvete4x78ke48atg9UBcaSG+XTC4gcKwUdqkdJXx+fa4ooCYRpioW4sLAJL//d0cJGhr/4Z99hOZUnGyhRDpbojYZIbZc6zZFYO9qx9rfhToyS/z8FO1fO0O+q4p8m38qwIVwQ8B1bXNEk0WGLtYxcL6RQjYA0l8T4GIIIQnHSrT3jNPeM0EwUkbxUeMApWyx4w9+RuzyLEioPLYLa+fKkvdGpzO8cKKP6liIB3pb6RuZ4Vs/PcvZ/kke2NnKV545yJefPsCR+zp4+/IYUsKDu9vY3la7ajEF16fbNhvwm5iCK6iBuntTTGFTUFeForselGoYrLV7z98VpNSpFHahhS4j1th4/GYmZrL82z/9IdPpPA/v6eRPn32DiZkcU/N5VCH48jMH+fwTu5c/zrCB+UgP2qVRtLf6af3GOaYPtzD0uV6ssM+aJyuSSLzItv3D1LWmuXqmkfGBGiolf/0c78UImjR0ztC1a5SqVA5V80F492YkNP6gj7avn0Mt2zi1CcqffwhW2IawUDKZSucI6CoTczm+88oFtrfX8vRDO/jeqxf5N3/yQ7700b187PB2dnc3ul2bVGVFvYPfN3QnhFVuWTBz8B9KAALr11rWc2waO6wGgbuqnfJPPSooSCeEHuxHUddv0A6Sk5fHKJkWmqqQSkTYu7WRTzy0g08e6WV3dwOR4MrS+WR1FCoWav8k+mSW4HSe2UPNlOqj6+JcczcRwhXWcKxMXescVbU5bEulVDB8l7Sk6Rb1HbPsfqif7t0jROIlX+1KrxMay3HgXzxH/NIcQlUofvlxrENbV7zhCwV00tki3//Z/8/eewfHmZ93np/fmzon5AwiEcwBTMPJUTMaaSRZ0noU15Yl39ple2vvbtdV66u73b3dqvVdrW155XU4r2TZkm0FyyNpJM1IEzR5OMyZBMFMEDl17n7T7/54QWpGwwkEQQINvJ+qLoJE4+23m43+vk/6Pqf4/kvHCOgqn7hvPff1dbFjbSv5osm3nz3MueFpettqScVCczJweDNOuQUrvxHpVKCgKl50Gl3lRapLET9CnSNa1POhLI9VStrXa7U38xsIGcPM1/6xRCTIf/7NDyCBgK6iqqqneVJybmiKr/5wDx+6YxXru67jslQIrHvWop0aQn/+MDVvXKb9H45SaIpTaqigbrBfQjccGjsmqWmaYWIoyYWTDYwPJjHL+qJeB6cZNvWt03SsH6KmKb3oFoJfD4rl0vvl10kdGkM4LtaOHqwHNlyXmEopcV0IBnUeu3MNE+kCX31yD0FDZyZXxHJcGmvi/O4nd7J5ZRPffvYQg+NpmmvjKMrclURKHcdswbXq53yMhUQoEKj3MnxLFT9CnSNCBacA5gS4FdPMqXpRaugUQinN21ENXcXQVUqmzb6Tgxw9O0oyGiQSNDg3PM0TLx6lr6eZePQ6dp0aGm4ignpuDHUsQ+LkBLnOFNmeKlyjsi9vVU0SSxVpWDFFXcsMmu5gljUcW5mtsS5sFC6ERFElkUSRtlUjbLjrLF3rh4glixUZkV7FlbR97zhr/uh1AlNF3JoYxd95FLex6rpe8tODk/zo1ZNYlkNzbZyRySypaIiSafP0rlOUTJvW+iTxcJAVTSnu7etiRUMVunZj71vXqsfMb6pYQVVDkNzslcqWKr6gzhUB0vV8fZ3cQp/M9aCAMNGCF+f1qFLCEy8e5T/9zbOcvDDGnhOD3L5+BWvaa9nbf5mSabGxu/H6jlkVBcdFPT+GNpkjNjDF9JZGik1xpFpZqd9roaheKri+dZrm7gkSNXkUVeKYCvItE20397leEVBVcwlFTRpWTNG79RJrtp+nuWvCsw2sZCEFkJLU4VE2/f4zxE5PIwI6pU/fjbVzJajvP/UugbGZPOcuTxELG4SDBm31KR7c1sN9fZ0IBb7/0nGOnRuloTpKbTJKOKij3mCqV0oNu7gSK78BZAU6IgjPajC2eumme8EX1BtC0cCa9sZoKsMsH5AqyAB6qB+hzF9o7bguf/WD3dzX18l//OJDjE1leePYJdZ01HHi/Bgz+RJ3bFhxfTUkReA2V6NMZVEvTxEcymBMFpnc3oSVClVcPfWdEMJLBydq8jR2TNC8cpxUfZZAyAYJEoGiut7TvfqU5/bc3yyemuFgBGzi1XmaOibo2TzI6u3nae0dI1GdRzMqZwTmvQiN5Nj475+j9rVBFNfr6i0/fgeErm95uABqEmHWdzUwOJbmj771MgcHhmiqidFan2RrbwvdLVXsPTnIrqMX2dDVSFU8dENdvQDSrsYsbMIxm1noDMZcEBrEVkJw/pZfLUr8GuoNoATAqAb1EtgVE6UKXDuJWVhLILab+SreKUKwdkU9w1MZimWL+/q6+fd/+TSD4xkuj6f59Q9twZVydg/k+/9AkJEA5Y9uRxlLo+89TfOPT5FZU8OJ//12ytXhSvxseVcUVRKOlglHx2nunEBKQSEbID0RITMZJTcdIp8NYpZ0XEcgpUC6Cq7k7SM5QnoCKiRCkSiqixGyicRLxJIF4tV5EjU5QhETpYLrou+Fli3T8z/2UP/iedSyg72qmdKn70JeTwkCb3uM47gIIRgcT/PK4fMYmsrYVI4//OYLfOKeddy/pZud69rpbq5mZCpHY03sxsVUathmE3apjUp9wysBCLYs9FncfHxjhxvEnIDpN6A0wqJuLHkrLmrgIuGaJ1DmYQvNFUancvzHrz6D40qioQD7+gfpaq7mk/etp6e1muGJLJtXNr3/udQrSNAOnCX0tedQz45ghzX2/NmjXPzVtTjB5XlNaJkq5YKBWdaxyhq2peA66i8MJIRE1Rw03UE3HAIhEyNkoVWQ8cJ8oJRt2r99jHX/+SViZ6Zxa+MU/s1jniPXddY007kSpy5NYFoOhwaGOD8yw+cf2UwsHOCJF4/x8/1n6Ott5uP3rqW3rZaAPj/vTdeqoZS5y0v3VqKgCgi1QO2DSzvdC37K94ZRdDCnvdRvxaR9EXi7UotogSHm60ogGjJIxUL84OXjJKJBfuPDW/nSh7cRCwf47vNHePXIBbataiFxnZEBAtzaBEiJen4MdbpA8vAoE7e1UGyKVZSL0nyhqhIjaBOKlokmisSrCiRmI07vlideVSCaKBGKljGCNqoql5WYCtul5o1BVv+310geHYNwgPLjd2Lf1guB6281HZ/J8d3nj/A/f7iboYkMd2/q4M6NHdSmIqzvaqChOsYbxy5ycXSGla21JK/3fX4NpNSwS51YuT6kvPHjLQRChdg6b2RmqeML6g0iVK/L15qoHLN8Dw2khhq4iKLMn1+uoaus66znXz7Sx6r2OsbTeb717CEODgzx8XvXsamnaW6m4FfrqTnUwQkCozlCQxmm+5oo14aXTD3VZ34QjiR+coJVf7KL+hcvzNZN11J+bBsyMbfRq0jQQNdUjp4bJZ0rkZy1G4yHA4SDOjWJCL3ttXQ2VdFclyB4nUYR13gWSLsKM78Zp1y56V4tCsk+L+271PEFdR5QNK/b185RQWlfBSk1FLWIZgzDPK0ci4YCtDek0DSFyxMZvvPcYfaevMynH9rII7f1Xh0dmJP+GRpuYwp1cBJ1LE10YApjpsT0pkbMVKhSP2985hnhSqJnplj5ld20/qAfPW/hrGun/Kk7cZur5nzxpSiCsmUTNDS6W2o4c3mSI2dGkFIiJbxx/BKxcIBNK5uu28zkWkipY5e6MHN9UKHRKUC4HaIrWRa/n76gzgOKAVYarCmQzkKfzfWggVRRjREU9ca7qlwpsWwX03YYm8rxzacP8PTr/Ty8o4cda1uZzpYYmsgwnS0RDRlzmsuTsTBuVRT10iTqZJb48QnUok16Yz1WonI/dHzmCSmJXEzT/Vf7WPGtowSmS9jdDZR+9Q6c3maYY13TdlwmMwVyRZO2hiR9vc30ttUyMpllz4lLHDk7wpnLU3S3VLOiIXXDjkhe82AVVm4LjtlCpaqRUCG5xTPBWQ74gjofzI4zmKPgVM62MbwoVUdRSqiBYYS4sauBTKHMz/ef4cCpYZ7bd5p/fOYQkaBBQ1WMI2dG2Nc/yMFTQ4xO5+hoTF1/LRW8+d+6BDIVQb0wjjqZI3lsDFxJen0ddmwZ5JV83pHQUI7Orx+k8+8OERrJ46yop/zJnTh9XRCaW9RoOy7nhqZ48rWTvHTwHEfPjpLOFelqrmbbmhYSkRBly2H7mla2rW4lEjJuWP6ka2CXVs5GpxU4dzqLUQWJzUu/GekKy7NF8iZgVIOe8iLVSopSpRPGKnWjBs+jBby9kHOlbNq8dvgCk5kCmqLwwJYu4pEAAUMjHDSIhnQMXSMSMrDd6x+huYoisLZ1Q9Ek9HcvoF6epPuv92NHDU793nZvnMZn2REYz9P+naN0/t0hwpezOM3VlD+8FXtrN/J6O8tnkRLGZ/I8/cYpzg9P09Naw8RMnufbzIRBAAAgAElEQVT2nuHSWJrHH9jIB3as5IFt3WiqgnYdJhHvjMC1U1iF1Ui3st/L4U4vg7dc8AV1nlAMb2i5NAJOfqHP5npQcK1a7OIqVH0CcQP7UqsTYX7jsW0gvbGZgK5i6Bq6piIUQaFosuvYRQ6dHiZfMIF2VjRWze1qXlGw7lqDKJQJ/uPL6GNpev58L1bU4MyX+rCSfvp3OWFMF2n5/km6vnqA6NkZ3IYk5iN9WLevQsZCcz6u43rRaf/FCT7z0Ea2rW4hVzR58cBZnt51ilcPn6fx/vWE59A1/E5IN4Bd6sIut8/bMRcCJQiRjoU+i1uLL6jzSLAJ9AHP47dympM803y71IkauIgePAVibvM/qqLQ3Vz9i+NKyJdMLoxMs6IxxchUjidf8faxTmeKZItlfu2DfYTn2sChKpgPboSyRfA7rxKcyLHqT3chDZVzn12P6UeqSx8JgakCzU+eoucv9xI/MYFbE8N8aCPWvWuRqevr6JWAbTtos0seXFeSL5rYtkMqFkLXVFKxEHdt6uD88DRj0zmKJWseBVXBsWox8xtAVraLfKjV2xu9nKis/VGLHC3i7fqrvBSHwLGqsQqrcJ356x5wpeT88DQ/ePk4JdMmWyhTKFt86sGNPLCtm6HxDGPTNxjOGxrmI32UP7IdGY8QGsqx6o9fp/uv9xMarpjdej5zQUqCozlav3uclV95g9ShUWQignnvesz7N+BWX/+neaFk8pPXTnJwYAjLdlBVQU0ygqoqPL/vDJfHM5i2Q6nsrZiKh4MY+vwVCKUTwiqsxbUqe2hTaBDtWeizuPX4Eep8IiDcBoXzsxtoKihKReo45XbsYhd69OA8LSGXFE2L/ovjTKTzmJbnTRsLB2iJJiiUzPn5MAoZmI9uQVgOgZ/sI3wpw8o/242WMznzxc3kOypwd6TPu+NKwpeztH3nGJ1/c5DEyXFkPIJ171rMhzfhNiTn1BhrWg77+i/z090DPLi1m7s3d9LekGTH2lZ+vu8s4zN5OpurmJwpMJ0psGVHC+Hg/ESSUmrY5TaswmoqPdYJ1Hl9JcsNv8t3nlECnll+RRnmzyJlAKSKok+gaJkbPt7sWlROnB/j+LkxzgxOMpMr8uC2Hppq4jRWx0nFwje8iQOAoI7bWoM0NNTBKfSxLIn+CbS8Rb4tMev7W5mjBz5vRbiSyIUZOv/2EF1fO0B8YBJZHcO6fwPmB/twm6vn7J6lqQqJSJCRyRyvH73I0Hia2lSUdR31REIGl8czXBydAQk71raybXULoXlJ9wpcJ0U5cyeu2USljskAoEBiEwRqqeinMRd8QZ1nhOLdysOVtCf1CgLphhCKiWqMIYR1Y0cTgoCuEQkF6L80Tsm0uXPjCvp6mwkHdUKBG19r9WZk0PBENRpEG5pGH8kQOzOFMV2k2Byn1BD1RbXCEY5n2tDz/+2j4xuHiVxIIxtSmA9vwvzAZtymqjmLqZSgqgoN1TG6mqvRVYVDp4c5eHqYcMDgtrVtrO9qYGVrDVtWt7C+u+H6fanf8bENrPymWb/eyk4cGtWQ2OA1JS03fHP8m4BbhslXoHixskZorqDoowQTL6KHTs65QekKEm+cZnA8jWnaNNcmiEcCN7yB490eUORL6Lv6CTzxBuqZYcxUiOGHuzj129uY2NmC1Co7nbZcEY5LrH+S3j/bTes/nyA4XsRprsb84Gasu9fg1sTndMFk2y57Tw4yOJ4hGQ2QioWJhr1Z0rOXp3j50HkujafpW9nEh+9YTVdz1Ty/fxXschvFqQ/hWrXzeNwFQIHkVoiv8eqoy41l+JRvPooB4RVQHqk0owcP167GKqxF0SZRjdEbOpYAz6qtuRrJLcgACZDRoDcuETQIfO91jBOXaPrxAHq6zOkvbWbkA13YkYrrHFvWKKZD9e7LrPzKbhqfOYORMXFW1FJ+bDvWzpXIZGTO2YdzI9P84TdfJFcs01wTR9NUpJRoqkJA18gVy5wbmuLImRHSuRK/98nbqUrMXwe5dCKY2W24duUXHfU4hJqXj5HDL+ML6s1AQLDRcwkpDlNxtVSkhl1agaqPomjZG5pNfTO3MtkqwwGsrd3IoE7gn3ehHzhL/c/PExzNET0/w/lPrafUGL2FZ+QzV7SsScv3T9DzV/uoOjDi7TTtbKD88duwt3Xf0JwpQCSoU5eKcOriGCsaUjy0vQddVZjOlcjly2QKJaLhAJl8iZa6BMF5nDlFqpiFtdilbpAVnjkREGoHLcayq51ewRfUm4QagnAXlCtuC42HdMNYhTUo+jh66BTcoC3hghDUsTesQAYNZCKM/lo/qUOjBMfyxE5Pcfo3tzCzoR65DNe/VQRSEh7M0PPne2n77nGi52dAU7A3dVD6lR0469qRc7QTfDN1qSj/9tN3sb6rgWf3nGb38Ut8+sGN3NtXjZSSsmVTMm1cV5KKhQjNU1cvgGM2YWa3Id3Kt8zUYt6Ug1LZ47M3hN+UdLMQnqiWR8CuKOekKwikDIHUvK5ftSKfBKgKMhXFWVEH4QDq8DTGaJZ4/xSxgSmsRIBCawI5j7OEPjeOcFyq9wyz8f/6Oa3fO0F4OAfRENZ96yg9fifOymaYJ2FTFEFVPExPaw2NNTEOnR7mpYPnCBgaXc3V1CYjVMXDVMXDhIP6vAVf0olQnHkYx2ym4kM64c2dhleA8AXV52agaCBdr+NXVlraFwAF6cYQwkTRJxBKxbUte6gKMhbGaa9F1sYRk1n0kTThi2mSR8YQUpJvT3p11Qr/XFsKqCWbtu8eY8P/+XNqX72EnrdwG5OUP3E75oe3eZ28c9hU9G4IIQgFdFrrkvS0VpPNl3l6Vz+XRtM0VMeoioXntxFJKpSzd8529Vb+xZwWg/hG0BLLu5HeF9SbifDck0rDs3aElYjUkE4cVUuj6FOIG+z6XTCE8GZVm6px22qhbKFdniY4nCV5aITQcJZSQ5RyTRg5LwbnPnMhfCHNuv/6Mr1f3k389BSKFNhrWyn+2v3YO1chkzd3nlhTFaoTYVa21pKKhTh0epipTJHNPU1zWjf4TtilHkoz94Os/FSvEBDpgnBHJbrEzS/+2MzNRkL2JEzvqswRGg+JGrhAMPk8mjF4w6M0C47toIzMYDxzEOOZQyhTOeyIzsz6Os58YTODH+ulXBPxo9VbiGI6ND/Zz6o/3kXq8Cha3oSgQfnedZQ/dpu3GPwWpuWllBTKFkMTGYQQdDZWzcOOUw/XTpIf/0zF2wteQYtC9d2e7apY5teivqDeAtwSjD4N5sRCn8kNIByM8GECiZdRtKmFPpsbx5WIXNGbV/3hHtSzo0gB5aoQw490M/DbW5nqa8Q1Kj8dt9iJ9U+y6k930frESQLjBYTj4tbGKX/ydsx71yHj4TmbNdworpQgmTcxlVKnOPmxJWEvCF50Gl0DiY2g+rsofEG9VeQGYOrlSq2lziJMAomXCET3IZQKHLC9FqaNemGcwI/3or9yApEr4uoqhZY45/7lRs58aTOFptjyLgzdJAKTBTr+9hCdf3OA2Olp1LINQmDu6KX82btw2uvAWEqDCIJS+i7KmbsqfpPMFbSYF50GG/AzOviCesuQDow+6Y3RVDJCzRJK/RgtNICoxFGaayElolBGf2OAwD+/jnpmFKSLq6uk19Zy/N/dweBHenEiS+NDcKFRTIfGp06z+o9fp3rfMGrBAilxU1FKX7gf8+61XgfvEruIsYurKEx9GOkskflnAfH13k29sVHgJYMvqLeQ4kUYe4bK2kJzDRRtjFDN99GMYSr+ybwZKVHG0xg/3EPg2cOImRxIcHWV8dtbOPH7dzDyQCduwE8DzwVhu9S9dIFVf/w6dS9eQM+bIEHqKtYDGyh+7l5kTXxJRjqOVU9h4pO4Vg1L5QnqSai+CwL1C30miwdfUG8xY09DcXChz+LG0YIDhKqeQtGmWVKiCiAl6sAQge+8in7gHKJQBlciVYWRBzo48fu3M7GjBSes+6YQ74FwJWrBpmrfZXr+fA9NT59Bz5S96NPQsNa1Uf7MXdirW2GJdle7doLC1Edxyisq3w3pCgKSWyC22tuw5ePhC+otpjzqNSjJG1vksgiQGNE9XpOSujQXeQvLRnu9n8CP96GeHkYUTHBdXE1h7N52Tv/mFsbvbqNcFcbVlAVrnFl0SIliuRhTRWp2DbLim4dpeP4cxnQJFIEMGDgddZiPbsG6vRcZWbprSaQbpjjzIFZ+/ZKpmwIYdVC1c3ZFm89VfEG9xUgHpl6HXD8VH9gJYROIv4QR27N0mpSugciX0V47SeCZg6hnR72I1XFBEUxua+Lc5zYwel8HhdY4TkjD1dSlktV7/0jP3UgrWoSGctS+coG27xyn5vVB9GzZM9cIGjjttZj3r8e+fRVu1dJepyfdAOXsTszsdqS7dFpghe5Fp9He5W0zeC18Qb3VSDCnYPwZsHMLfTI3jlAKBJPPokeOIkSFOim9T0Q6j/56P/qLx9DOjUKujLBspCbIdaQYfqiLoQ/1MLO+DjMVwglqS35VnHBc1JKDni4RPzlB4zNnaXz6NPGTE17XrqYiw0GcthqsO1Zh7ezFrUuAsrRfFyl1rPwmSpk7kXZioU9n/hAQaoNkn7f31Oet+IK6AEgbMkchvb/Cx2hmEVqaUPLp2c5fe6FP56YjMgW0IxfQXziG1j+IyBQRZQspwUoFmOprYuTBDiZ2tpLrSGElAthhfcmIq3Bc1KKNni4RHsxQvXeI+ufOUfP6IMGxPAKQho5MhHA6G7BuX4W9uQO3OrbkhRQ8MbWLKyml711STUjgOb8ltkKkY3nuO30vfEFdCCRYWZh80aupLgUUbYJQ1U/QAucr30npfSKKJuqpIfTX+9GOXURMZFCyJbBsXF2hVBdlelM9o/d1MN3XSKEljpkMYEcDOEG1otKdiumgZ8ro6TKhkSypAyPUvnSBmt1DhEayKGXHi0ajQdyaOHZvM/a2buzVLQtqzHDLkSp2qZNS+j4cs5GlJKZChUgPJDaAFl/os1mc+IK6QEgHCudgapfnpLQUUI1hQqkfowYuU/EF4uvBclDG02gHzqLvP4dyaRxlpoDIF8H25lnN6hCZldVMbm9mqq+RXGcKsyqElQhgxRafwCplGz1roqfL6JkSkfMzVO8dpmr3ZZJHxwhMl1DKtlcbDQdwkxHcpirsjSuwN3XgtFSDoS8lPXlvpIpttlCeuQ+73MZScEJ6M0Y1JPog1OpbDL4TvqAuIE4BZvZA/szSSP0CqIGLhFJPoRojLCtRhVmDCBP1whja4Quo/YMowzMoM3lEvgSWgxTgBlSK9VEyq2pIr69jZm0dhbY4ZiKIHQtgxQzsiIET0ryuWMH8i62UCAm4ErVso+UstFwZPWuiZcuEBzMkjo+TPDJG4ugY4aEcStlGSAmqiozMimhdEmdlE/aGdpyuBq9jd7lEo29GqjhmE6XMXdilTpBLKx+qBCC2xrv5Jg7vjC+oC4h0vZTv1GtgTS/02cwfWvAcweTPboqoulIipUQgrumv6s6+nT0Nevv3pfS++U4f+VLK+VnTJUEUy6hnR1FPXEI9N4YyMoMynUOkC4iy5XUK440mmqkg+bYk+fYkuc4k+bYEpfoodtzAil4RWB3XUHANDddQcQ0FqQhvO44QSNU7b+FKz6vYlQjbRbFdFNPxbmUHtWSh5S20nImWMwmO5YlcSBM5P0P0/AyR8zMEJgvecQAUBWloyEQYNxXFrUvgrqjDXtWC092IjIWWVyT6y8yKaTl7O1axe0mNxwCgQKgZEptnx2SW8//1e+AL6gLjmpA7AelD3tdLA4kWPEMw+dy8iarjSkanslwYniFXLKNrKs21cTqaqtBmDQEm0wVOnB9DIlGEQioWpLUuSSwSwHUl4zN5LozMUJUI0V6fQn9Tk5DrSgbH0gxPZWmujdNQFbt63HmhZKIMz6CeHUE9P4YyOoMylUPM5FEyBShZCNsB1736crmagpkKUq6NUK4JY6ZCWHHjF1Fs1MDVPYGVirjq4CQsB8WaFdKyg1q00LNl9Izp1UFnSgQmCt5tqohivslCUlWQqgoBDRkP4SYiuFVR3NoEbkc9Tme9l84NLfM9XVe4Kqa3YRd7kHLpvS5a3DO/j3T5jUjvhS+oC40EK+2lfgsXWUJZUhct1E8g8TKaMQLMPaftuC5Hzozw0zcGGJ7MgpSULQddU/jEfeu5a+MKBPDCgbP8v3//EmtW1KEIgSMlW3ub+djdaxECfrZ7gL/+wW429jTypce20dFUdfUxpjJFvv7jvTyz5zSf+cBGPnrXWuKRm2QB47iIbBFlPI0yNI1yeRJ1IotI573oNVdE5MpeFGs5ntA6Drjz9OZQhCeamuI1EgV0ZCSAjIWQ8TBuIoysjuE2VeE0V+HWJZGpyKKq8S4KpIpjNlLO7cAurkS6S88ySNEh0g3xDZ4Rvs+7419vLDTCe6NGesCa8cR1aaBgl3q8L+OvowUGmauoDk9k+bun9mNaLo/e3ktrXYLxmTzffu4wf/yPL9PTUk1DdYzxmQITM3keu2M1uq7y7J4B/vapfazrrKejqYqRySz9lyawHJcN3Y20NaRQFYGUcOriOHtODnLiwhgjkzlsx4vacgWTTL6EoghS8RABfR5+ZVQFmYzgJCM4PU1ePbNoeuM36TzKZBYxlUPJFhDZstfclCuhlCwwbTAthGl7Yuu4v4hqZ1PIKGL2pnjpYE0BQ/fStgENGTSQ4SAyOnuLh5CpKG51DJmMeH8PB3wBfTekNhuZbsMuLU0xRYBeDeEV3s5Tn/fGF9RFgFA9g+lwhzefKpfKKKfUZkVVhfhraMYluM4NNVLC7uOXuDg6w2//ym3ctbEDY3bRdFN1jE/9h2/xxrFLfPTuNQggZOis66wnFQ+BhJ++McDodO5qNNpal6AuFeXQwDAPbu2mOhGmZFrsPTlIQNdorI5d1ZHRqRzP7B5gOlsEATvWtNLX2zy/qWDw6p/hgCdiDUmuvkKuiyjbUDIRZQtRsryvixaiZELZ8gTVdryare14CQ5V8W6KQGoqGJ6IEjI8MQ3qyIAOV/5coh66NwspNRyzGTO7HbvUvTTFFFAjnpgadfh10/eJL6iLBDXoCao5CcVLC30284jUsEsdIAXEd83Oqb5/UXVcl5MXx6mOh+lorLoqpgBdLdW0NyQ5fGaEj969BgkUyhaHTo+gqoLdxy6xsrWaFY2pqz9TXxVlXWc9x8+NcfLCGHdsWMHF0RnODk3R21ZDvmgiZj89Xjl8nhcOnGXn+nZ0VcG0bvG6OkVBhmaF8NY+ss87IKWGU27FzG3HLnYtyZopePaCoSYIt/n2gteDL6iLBQF6Yjb1mwY7M7+HL5lFHNdBUQSGFkRV3rqCTEqJZZtYjoWiKOiqgabO09tD6tjlDsioyKiBFjqNEO9vO4DjuuQKJpFQ4C1iCqAIQTIaJFsoX/23bKHEM3sGGJvOMTiW5nc/sZOOxiqKZe/xgobOmhV1DFyaYP+pIfp6mzlwaggQrOtsYODS5NUINZ0rUSxbtNTG2b6mlVBAR/WjuWWLlDpOaQXl7Hbs8oql1817BQFGymtC8uum14cvqIsIoUGwASKdkD0G7jxtpMkVM3z9+a8wlZ1AUQThQIS22m529t5Lc3U7AENTF3nm0A+5OHYGRVGIh1P0de5kU+cOosF5+K2SGna5DekaSGmgh0+8L+9fRQiChkauaOL+UlOOKyGdL9HT+ouVF7FwgNvWtjKZLvDUrn5mcqW3pWg7m6voaa2h/8I4B04NcfTMKC21cbpbqr37zirqnRu96PWHr5xg78nLfOTO1azpqEddjnOW88CFkRkCukpNMkI6VyJXLNNYE8fQFv9+WekGsEtdXprXbAW5+M95rqhhL1sW8FO9141/ub3IUEPemznYzLy9mbOlDE/u+RaWY9JW20VAC7Kr/+d89dkvMzB0HIDRmSF29b9ArpylsaqN8fQI33/j7zlyYS/ufLlOSA3HasTM3I6Z2/y+NnBoqkJ7Q5LR6SyjU1kc5xfncnF0houjaTb1NAKeDsYjQe7a2MEn71vPPZs7efKVEwyNvzXcT0RDbOppJFMo8/c/O0g6X2LtbN1VUcTVl72npZpff3QLH7ytl/PDU/zDzw5SKi/evXu243JhZJonXznB13+yj++/dIyBwUkc98b//yzHfdsFzfUgge+/fIxXDl+gWLY4cGqI7zx/hExu8duESSeMVVhLOXOH54C0hMVU0SHU4tVOxRINwG8mvqAuNq6kfrvBqHrvu78fXOkgENy97mE+d+9v8fn7fodHt/wLhqYu8uSeb1Eo5XClS9iIcPuq+/n8vb/NR7Z/ipJV4PTQCSx7HgdkpYpj1WFmd2Bmt+LaSd7tykEIwfY1reiqyrefO8xrRy9waXSGQwPDfPnbr9Bal2DH2tar91eEQAgvUr1jfTtly+aVw+dnj/WLBtg1K+qoS0Z4Yf9ZEtEgq1fUoakqiqJcTfkeODWElJKd69toqUtwdmhqXsTpZmDZDvv7L/Plb7/KT984xZnLk7x65ALfe+EIpy5N3NCxbcflG0/tZ1//5bkfREpOXhhncGwG23EZnsxy7OwoJXMxd+AJXCeOme+jnNmJYzaxlD8yheLZC0Z6/K7eueKnfBchQoNAA4Q7wSl6FoXzclwEilCJh5Ns7b6D82MDvHjsp4xlRgBwpUvJKlE0i2SKaYRQiIXib6u3zseZuHaKcm4rrhvBiB5A1cd4p7GaruZqfu2DfTz56gm++qO9hAzvbasoCv/r43dSk4gAklBApyYZQVU8F6WWugRbV7dw/PwYD27rJhIyqEqE0VSF2mSEvt5mTl+eZH1XAw3VMQoli6p4iGgogCIEZy5Psa9/EIFgdDrHI7f1EjAW56/M6FSOH75yglzR5PMPb6a+OkquYDKTK14d9TFth2y+TMm0CRoa8UgAfTbdOpMtYugajuuSzpUIBXQvYheC0akcT7x0jGLZor0hSTwSRBGCfMlE11Qy+RIhw7u/ZTtk3uEx3ot0rkQ6VyIY0EjFwuiagisl+aKJlBLH9b6uS0WRUjKdLWI7LvFIkFjYmB+Hq6sIXLsKM7sFs7AW6cRZ0vlPAWrUE1PfDWnuLM5PBx/UAITbwU5D/uz8j9KEjDDN1SsomSUmMt7Km6ncBE/t+yeOXzzAmZGTJCNVtNV2ocy7oAIIpBPDyq9HOhGM6H60wEW4xvo3Q1e5e1MHrfVJLo7OUDJtYiGD5roEHY2p2YhSsG1VCw1VMcJBr/MyFQvx+Yc3kyuaREIG92zuZPPKZhLRELqm8sDWblZ31NE8W8cTQcFnH95MOKATCRnsXNdGbSpCsWSRjAZZ2Va7KOt9juuleg+fHuELH9rCHRvaUVVlttHMBQEzuRLP7hlgz/FBiqaFEIK7N3XwwNYuktEQX/vRXlRVYTpTZDydx3FcvvjYNraubuEv/nkX/RfGMU2HoYkMn7x3Haqq8vc/O0hNMsz54Wl2rGnlw3es4uf7z/LakQvYjouuqdyxvo37+rpIRIPv+hwOnx7m288dxrZdyrbN+s4GPvXQRgSC7794jPMj02QLZQxd5eEdKxmayLLn+CUURbB6RR0fun01danI/LygUsGxGmfdj7qW1HLwd0IJeGneUJs3xuczN3xBXawIz/Ir0gV2Fko3yWtevqk+GtCDNCSb2dx5G/XJZo5c2MvugZdpremgNtEw/w+OQLphrFIP0ongRvejhwYQytvragFDY1V7LT2t1bguqKpA+aWIpL4qSl0qejVlq2sqHU1VzNr30lKbgNpfun9V9OrFuK4prGqvnT0zaKlL0FgTR0qJqoh5joDmD9NyGBzL4Lguq9prr3YiCyEwdBXXlbx86BwvHDjLxu5Gupqr2XfyMt9/6Tj1VVFuW9vGkbOjjExl+dX7N7BzfRt/+9R+vvXsITb1NHH/1i5+uucUG7ob+MD2HuqrYwxcmuSlg2fZ1NPIg1t7aKlPsOfEID994xSbVzaxqq2Ow2eG+ekbA8QjQe7e3PmO5z+ZzvOn33mVvt5mtq1uYXA8zdd+tI+u5mr6eps5fn6MFw6c5VMPbmRdZwPpfJlXDp9nU08jq9vrCBgaAX2eVECqWKVuzOxtOOXmJTsW82auzMFHe3zj+xvFF9RFjFC8oepIt5f6tWbm79hlu8xYeoiAHqQ6VstkdpxIIMq69i18YNPHKJp5pJT0Dx5haOriTRLUWdwAttmKzISRThw9cgRFvfbckKoo7+pDcC3NezcZ/OXv/fLfvY7exSmkV3BcSaFsomsK4eDbO0lyRZODp4ZIxUJ8cGcvDVUx2htSHDkzwsClCTZ2NwKSjd0NPLy9h9pUhHPD0zzx4jFKpsWONa0kIkF622u5Y8MKXCk5dWmSZCzEI7f18oHtPaRzJV4+dJ5YKMDH71lHTSJMc22ckxfGGbg0yY61be94/kfPjXL07CiP3r4KV0qqYmFMy2HvyUH6eptRFUFHYxWPP7CRVCzI4TMjZPNlRqdy3L+lm6bq2PtOK78b0g1g5jdj5fpw7Ool3Xx0FQF6EmKrQUss9MlUPr6gLnIU3UvD2FnInpyf3am2Y9F/+Qg/P/IUq1rW05hqZTI7jiIUAnqAcCCCoRkEjSC2a+HIW2BoIDUcqxY3uwPXTmHE9qLqoywhc+Obhq4pJKMhiiWLXOHtDWS5YpnpbInm2jipWAhNVWioihKLBJjJlrBsBxA0VMWIzdY861NRCmULx3ExAjq6qqIoAk1VsGc7rSNBg67makIBnfGZPFOZAsl4iNpUBEUIqhNhYmGDbLFM2XrnmsXQRJaSafPakQsEdA0BtNYnvIwCoGkKzbVxapNhVFVhZWsNH7t7DT95vZ//+6vP8tCOHj50+yoSkXdPK78brpOgnL4Lq9iLdKIs9ouo+UINQXS1N67n7zi9cXxBrQDUoNcsYGr8NC8AABslSURBVOe8peRz0TfTNvnR3u9w9OJ+RqYGGRg+QUd9D4/f8UUChvdBlC5M8+LRnzKRGePy1AWOXzzIPeseYUVt9zw/o3dCQTpxrMJ6XLuKQOx11OA5xDXqqj6/QFNV6qqiSAQHTw+ztrP+Ld8P6Bq6plAomZiWQyQI+ZJJfra2rKleJPbmdXiKEEhXXvXj11TxtmsbIcTVmVxdUzE0lXzBpFiyiIQMiqZFvmTRqmtvM+V4M9GQQTio84UPbSURCVytif9iOYFAVcXV7EM8EuCh7T2s7aznmd2nefHAOZprEtyzuWMOr57ALq2gnL4Hx2xaFineKwgNIh3e3Lu/RWZ+8F/GSkCAHofYKrDzUL7OemoyXM3HbvssmcIMlm3S2bCKhzZ9lHXtfdTE6xEIGlMt3LnmIS5PXmA6N0F9opG7H/kA69u3kIxW37Sndi2kG8Aut+PaCYzofozIIYSau6XnUEl4KdEUW1c1882n9qOrCuu7Grg8nuH04ARrOxtY0Zji+X1nePnQeW5f385P3xggVyyzsrVmNk3s7Zi9Zlw2O4Z0bmiKfNHEucY8aioWorMpxQ9eOs5LB8+xfW0rz+05QyZXoqe1mpDxzkONfSub0FWVlw+e49c+tAVNEQwMTgLeXPGbcVzJ8ESG4cksq9praa1LsPfkIPnS9Y92SdfAzG7HzG/BtRMs5ZGYt6F4UWl8IyjL5xripuMLaqUgvHpqbJWX9r2eheThQIQvPvhvcFwHIQSKomKoBrr2i9+khlQLj9/5RWzHAiFQhYKhBdBUfWGacaSKa1dRztyFYzZixF9H04dBLM450IWmvirGFx/bxj8EdP77d1/Dsh2qEmEe3tFDR2OKFY0ppjJFvvztV/h/vvkCjVUxPvXQRjb3NqGpCuGg4Y0Ezf5fa7pCNGSgCM9c4xP3rue/fuPnHBgY5n97/E4ChkYkqKMonggFDI0HtvYwNp3nv/3Dy1iOQ2N1jE/ct46d69s9h67Zx7jSLBUO6iiKl2r+P379Pv7iiV1869lD6LpKTTLMH3z+PhLRIMHZn/GQjE7l+O/ffZXhiSyGrnLP5k76epuv49USOFYt5Zn7sMsdSHfuqeKKRIAeg+QOzxXJZ/7w96FWGNKGzDHPmnC+5lMXPcJB0SYJxHZ5loVKcaHPaFHiSkmpbJHJlzEth3DQG/+5MjtbMm0y+RKW7RIJ6kRDXr1UCJjJFdFVT+SEEJRMm1yhTHUijBAC03KYzOSxLJeGas+KMlcoE4sG0We7xFwpKZs26XwZy3be/hjZErquEA7olEyHkmkRjwRQFQXLdimUTKYyBRRFkIyGiIQMVEWQK5i4yKs1Ust2SeeKZAplgoZGMhoiFNDe14WfdA2swlrMzO04TtU1G48c1+bS+Dmm81Ooqko0GCcVqSYRTt7wCNml8bO8MfAKv3LbZ2/CfPf7Qw1C9T2eI9IyKRXfMnxBrUDcMszsh/wAuPNoYrS4kaBY6KETBOKvoerj3MjS8qWOlO+8zvTKGNF8H3c+HuPKp9H7eozZB3l/jyNwrRpKmbvetAz82j85nh7m97/+JU6PerPYjmMTDyd5bNun+Oj2zxANzd3b+rnDP+JPn/xPfOffvUTQuPUzKkKF1A4v07WcMty3Cj/lW4EoAYiv8+qppUtza1KqPAS4BlZ+A065lUD8VYzwEVCWzRXFdfFugnQjQcn7zf7P9TGup7rwfu8r3aDnxZvdgWvXgHxnJZF4kbaqqnzunt/iCw/8a6Zzk/zs4Pf5513foGyV+PUHfg9ltiVWSomULkIo7ytCvmftI/R17nybmDquZw96JYV+hSs+2sovteBKKT1LUaG87XvviPA6eqO+mN40fEGtULQYJDZ60Wp5lGUUrHmWcMXpR7GKKwkkXkIzhvDHa3zehlSxzWbM7I45LAIXqIqKoQWoTzbx2LZPkS1mePn4z7hrzUN0NfRy8vJRfrD7Hzlx6SC18QY+sv3TbO+5i68++yckIik+vPVxUtFq0oUZvvzD/8BDmz6Gpmj89TN/xF/+9vdQFIXhqUv8zXNf4cj5PaSitfzqnb/BPeseZjo7wY/3/RMvHH0KVVG5Z+3DPNL3carjdfQPHuG7r36d45cO0tnQy+fu/S1WNW94T0EPtUFysz8eczPxBbWCCdRAYgPM7AFzmuWlKVLFLvbimC0Y0b0Y0X0oSs5vWvIBqeA6Ccz8Rsz8RuR7LGB4PyTCKVa3bOC1E89zaeIcQsB3X/0aISPC7z76B7xy4lm+9fL/JGSE0VSdXf0vsr3nblLRavovH+HYxYP8izu+wOjMMCcGDwOSslniT374H8kVM/zOo3/AaHqYQ+d2s6F9K0/t/x6vHn+GLzzwr5nKjvP0/icw7TIf7Psk//Ta32E5Jv/2V/4LmcIMQT2ElPKdBVV4q9iqdnrZLZ+bhy+olYyAYAvEipA+4M2pLitRBaQToZy+G7uwCiP+GnpwAKGWWEYhu89VFKQTwip1Yea2etth5Px8xAkhCOohNFVjOjfBTGGKdH6aBzY+Rk/TGjRNZ2DoOENTF9nafSevHH+WC+OnWVHXzWsnnqenaQ0NqRbG06NXjzkyc5ld/S/wlf/lW2zq2I6ULqZtcmniHLv6X2TnqvtY17aZTDHN2ZF+Lo6fJV2cxnEtgnqIukQj69r6MLTAu4qpnoSq2/0NMrcCX1ArHCFmrQlLkD26jDp/34LAseopTj2GFThHIP46qjGMUMr4wrocUJBuAMdswsxtwS51XWd6971xpUuhnMNyTGKhBEPTl9h16gWOXTpAUA/Pbmoq8qii0tu8jrpkI8cuHKC9tpujF/bx0ds+SyTwVkUbnb6MpurUJ67s81UI6EFMu8yJwUMcvbifJ3Z9EwmUrRJ3rH6AmlgdD278CH/z3J/yB9/4V3xwyyd5cONj1MYbrimqWtRrQpqvVZA+744vqEsAoUB8LcgyZPvnx56wIpEadqkHu9yGHj6JEd2Hqk/Mmu37wrrkkApSBnCtOsz8BqziKqQzTxtn8LqIveYfl4nsGMcuHSQWStDZ0MtkbpwdK+/h8/f9Dqta1sOsKYahBVCEwtbuO3j1xHO8euJZJLCyac1b5r4BAkYI27HJljI0IJGui+VYqIpKR/1KHun7OI9u+eRVodQUDU3V2Nl7H2taN/L8kZ/w3Ve/hpSSX7ntc4QDb33uagSSWyHYhD8ec4vwBXWJIFSIbwLXgvzp5TROcw1kACu/AbvUhR4+ih4+gapNePOrfo218pEK0g3i2LXYhV6s4mpcOzWvD+FKh4nsKKeGjlMoZzl49g12D7zMgxseY0V9D0NTl1AVjZODR6iJ16EIBdMyqYnXEQsn2NZ9Jz/d/wRP7Pomt6+6n7pE09u6cZur2khGUrxw5CkCWpBcKcN4eoTOhl7aa7s4enE/fZ23ETRClK0yISNMKBBmKjuOqmisad1IS3UHZauI5ZjALwRVDUNyk7cC0m9CunX4grqEUHRIbvFEtXAepLXQZ7SQCKQTxcxuxy72ooVOoodOoejjKEoRxLKYNVpaSBXphnCsGuxSlyekVjXzGX4JQFN1qmN1HD6/l8uTFymZBVRF5YN9n+CxbY+jKRobVmzl0sQ5Xj/5PCcHD6GpOrpq8Ni2x1nbtonWmg5WtWzg9f6fs7X7DsKz6d5QIExL9QpAUBWr5TP3/Ct+tOfbnBnpx7LLrKjvYUfv3TzS93G+8cL/4C+e/kMSkWocx6av8zZWNq/lmUNPMp4e8VzNgNWtG9+STlZDEFsL4S7fo/dW4xs7LEGcPEy9AcWL87+YvGIRDoo2jRY8jRY8i6qPIdScb7xfAUipefty7VrsUgdWceWskN6c0MtyLM6NnmIiM4aqKEQCMeqSjdTE698SZRbNAhcnzjE0eQFN1Wmt6aAp1YqhB5BSMjh5nvH0CF0Nq4iHkwghSBemOTNyks0dtyGEwLItBoaPMTR1iVS0ht7mdUSDMWzHZiw9zNnRfspWifpkM201HYQDUUamBzkzchJXSjobVtJU1YqueulkJeSZNsTXgrLMHBUXA76gLlGsDMzshuKyMX54nwgXRU2jBs+jB86gGqMINYNQTJZdi/QiR0oDacdxrDrsUgd2qQvXSYH0C4LXQglCdKUnpur8lZJ9rgNfUJcw1jRM74XSoC+qb0ci1BxaYBA1cA7NGEbRphFKwa+zLigC6YRxnSSO2Yhd6sApt+Euox2lc0EJQqTLE1Mthv9SLRC+oC5xfFF9LyRCKaPoY2iBC6jGIKo+idDSCLGsi9C3FC+tG8e1arDLzTjlDmyrHlwDXx3enStiGlsNegL/5VpAfEFdBpiTkN4/m/71g693RtgoagbVuIwauIyqj6LoEyhqHn/s5mYgcJ0orl2NY9XilFtmo9H4NbfA+LwdNQjhToit8cV0MeAL6nJAzorqodlGJT9SfQ8kCAtVn/AiVmPEE1ZtCqEUEH5KeO5IBemGce0qHKsax2rEKTfj2rVIV8dXhPePGpoVUz8yXTT4grpckF76N30IChf87t/rQShFFH0M1RhB1cdRtAkU/Yq4+i/kuyOQUp0V0RSuVYNj1eKaDThWHdIN4SvB9aOGIdLpbY7xxXTx4AvqckJ6JvrZI5Bf9nOqc0OoeRRtEkWbQDUmULVJL3JVs7Odwn706lkBGrPp3CpcqxrXrvHE1K5GOmH8/WFzR414NdNoL+hxfDFdRPiCutyQYM1A5hgUznnr33zmhlCKKGoGRZtC0acR2hSqNoWipRFKfhkJrEC6BtKN4NoJT0Sv3lK4dhzpBvFF9MbRop53d3Sl3827GPEFdTkiwUpD7iTkz4BTXOgTWgIIC6EUUNQsipZBUdMo2gxCm0FR056JhFKeTRFX9q+clBq4QdxZAZV20hNSx/tTujGkE0JKvyY6bwjQ4hDt8aJTzZ8iWpT4grpckZ75Q34AcgOeu5LPfCG9kRulhKIWEEoORc0hZsVWqBkUNevVYJXS7FacxfhreCXyDHk3JzYrnDFcJ4Z0Ykg3gnQiSDfoC+jNYnYFW7QXwh2g+aYNixZfUJcz0tuhmj8LuX6wMwt9QksVCcJFCAshyrMiWkSoRe9PJe/d1PysABdn71cGpXwT52HFbLRpIGUQ6QaQbgjXCb9JKMOzYhpGyhDSCSJlwPs5qeIL6M1FKKBXeZ28oTavs9dn8eIL6nJHeinfwnnInvQ6gRdlsLTkkCAk4HppYGEhhIlQLBDmL77GQihXhNgEYc2ml00ELggbcK9h9i9mBU+ZXXOmgdSQUvcs/VwDpOFFlVL3IlE5+2+uPvu17v3M7DF8bi1CAaMWYusg1ATK/K549bkJ+ILqA3jNScXLkD0O5VF8UV1wrgiudxM4nmgKF0+EnavfuyLMb0V4Nzn7JwpIgUSdFUcVeTXCfPP9fBYDQoVgI8TWQ6DO2yTls/jxBdXnKtKC0hhkj0Hpsm8A4eOzEAgdwm0QX++le/19ppWDvy3P5ypCh2ADKIaXXipeWOaLyn18bjFqECI9Xs3UH4upPPwI1edtSBfsLOROeV3ATmGhz8jHZ4kjvO7d2DpvLMZvPqpMfEH1uTazzUr5c5A74c2t+nVVH5+bgACjGhKbINjkZYh8KhNfUH3eFdeE0v/f3r3FSHmXcRz/vseZ2Zk9sicWdjmfSktZkJ7T1NS0aeshrdVGo6Ze2GhivDC9MPHWG2/0xgsvjKYxjcY0aeWiKmqbatrS1hYKSJGWpZQzy7LLzu7sHN6Z14vnBbYVbKEDu8z8PslmZ2ECbPLCj+f5///P/5itq5ZOaV1VpK5cyCyG9mEIu2wzkly/FKjyseKqHaeZ3AWFw5oBLFIPjge5G6DtRvBb0HppA1CgyieTtIDze20IhMYVilw5Lw0dt0HLEh2JaSQKVLkscdWGQEy8lUxW0tMjclnCblhwN4SdqCptMApUuSKVCRh/zdZXta4q8vEcz+4v7disjUeNSoEqV6xWgcnddmtNdQZVqyIXk9wU07HZWrzaeNS4FKjy6cQ2svDsDiifVrUqcp5j66PpxXYkRi3exqdAlbqIppJdwAehWkTVqjQ1x7NJR7k1diG4BjU0BwWq1E1cs3GFk7ugPA5xNNd/IpFrzLH10fQAtN5gg+3V4m0eClSpuygPk3tsN3B1hv+9CEWkATm+VaXZlZBbAV4WtXibjAJVroo4gpkjdm61PJYM2deTJo3ItXOl6YXW4k31WrhK81GgytUT29rq1H6rVqO82sDSWNwQgk7ILoeWpeBp4lFTU6DKVRdHdmn51H77HBVQG/gyxMSUKyUKpWl8LyCbyuK6HnEcU6mWiaoVHBw8z8f3fNxZi3a1Wo1ytYTneAS+HX4sR2VqtSqhH+K6WuC7Eo4Hfg7Si6zFG3br3lJRoMo1VJ2xTUvTB6EyBtUSagN/AodGD7BjZDtn8qcJ/RRrF93I8IrbqERlXtn3IsfHjxD4IZkwQ1euh6V9q+jvGMBzfc7kR9l16E162vtZP7iRQmmaHSPbAbhpyWbaWjrm+Lu7zrjgZyDshZZlkFlkdweLgC4Yl2vIy0B2NaT6YHrE1lijCRsQIRdXrUb8atvP+OD0COsWb2CqmOfk2aOsXzJMfibPUy/8gulSnrWLN1CqFCmWZ1jWt4oHNz/KmkU3cmLiKM9tf5qNy29h9cB63jrwCn94+TfcvHQL6xZvOP/7xHGM46hXeUmOBWfYBZlBG9CgC8DloxSock05rq05tW2AdB8UDkHxhNZXL2WqlGfbzj/y5MM/4St3PE6pUuTE+FECLwVMkgrS3L3+Pr597w/IF/O88e4/eXb7b9n6+u/5zn0/BCCqVShXSuw/uoe/7tzKkt6VfG7jF+nMdXN2epyDp/YzWThLZ24BqwfWkwrSc/tNzzNuYM9segAyQ3Z3qY7CyMUoUGVOuIGtPwVdkDoBxSNQPAnVKU1bms3BoTO3gL0f7ODA8tsZ6l7Gkt4VH36P4+C6Hu0tHdy25h5OjB/hH//+CwdPvks6zFCtRhw8uZ/xqTF8z+fBzV9mcMFSSpUi23Y+x7vH9uL7IdlUloWdiwn9lKpVbKdu0A6pfqtKU72awSv/n5bRZe44tiuyZaldsNx+M2TOtdL0ZALQmmnn63c/wd7Db/PLP/2Ura//juPjRy659NwSZlm0YAm1OObU2eMARLWIl/f9nX1Hd3PrmntYufAGXNdjonCGbTufY0FrL1+65Wvcsvpuq06bPUtdCDoguyJ5LjfaJeAKU/k4qlBlzjluciC+xaqA4gkoHoXSKagWaOqNS47j8Ogdj9PT3s9r/3mJZ197mv3H9vLE/U9e4v3gnd8BfGFx2vcsDQqlKSpRmcALSAdpBrqG+OD0CPuP7mHzyjvJpnI4zZqojj2H6X7rnqT7NJxBLo/qAJk3HM8qg9wq6NhklYHO9kFLKsv9ww/z/Yd+zAObHuFvb29l96F/XfS95ajMWH4Ux4Hu1l4AfM/nrnX3snLhOl7a82f2HdlFtRbR3tLJI7d/i4Wdg7yy7wV+/befc3jsfWpx851p8lsht9JuhGkfhuwy8HI09XMnl0+BKvOO49kmkNxq6BiG9k12cL4Zg3V8eoypYh4Hh+62Xm5f81niOGZqZvL8e+I4Jo5jomrEB6Mj7BjZTndbH0t6VwIQeiFLelbwhS2P4TgOz7/5DIdPv08tjlk/NMw37vkuD33mq7zx3su8c3gX1WqT7A5LrlXLrYWOLReeMy05yJVSy1fmLcezTUt+u7XhMoMwcwxKxyGapimGQ4yc2M+2Hc+xrG8VmbCFnQdfp79zETcMbgSgHJV468CrhEGKycJZDo+OUKlW+PyWx+hp72diegzPCwj8FOsGb+aBTY/yzKtP8eLu5xlefivvHXuHlnSOfBLQqSBlfeMG5iRrpOkB23CU6mnO/6xJ/SlQZd471wr222yNtTyUrLMeSY7bNPCu4IGuQTqynRw4vg/fD2nNtPO9B37EUM9yZsoF7lx3L0fHDnFy4hie67N2cAM3DW1m3eDNBF5AR7aLLSvvYqhnOYEXcPvae5ipFMgXzlJL1ln3HdlNtRbxyG3fZP3QML7bmP8sOIGdI00P2Ppo0JUEqUidaFKSXH9i26xUnoDySbvgvDKeDOBvQGfyo4zlRwFoa+mgu60Pz/Wo1qqM5U9RKE7hOA5hkCaXbiObzuEmc/DKUYnJwgSpIE1rph2AqeIkU8U8rek2ZsozjE+dxnVdetr6ac204TTSDD3HBteHPUlF2mNHYdwUqkil7hSocv2KoVayKrU8ZjuDi9oZLFy44Dvdb23doMtm77oBClK5ahSo0hDiyoWqtXQKisesatX0pebipmyS0blq1G+3ClXXqcm1oECVhhLXkqp1Gipnkqr1JFSnUdXaoM5Vo6mFVpGGnXZ+1Al0A4xcWwpUaUyxbVaqFpOW8KittZZPW+DKdc6xyxZSfUk1usDOjbphMmdXbV2ZAwpUaXhxzVq/tRJU8lBKdgiXx61VLNcPN7Sd3unF9tnLghcmLV2FqMwxBao0lfPhWoFo0tZai+d2CUeoLTzfOLaRKOyxebrphXbUxQ0UojL/KFClecVJuEYWrqWTNjiicsZaxc0wOGI+cjxw01aBZhZZW9drsR9XO1fmMwWqCFi41pJ11wKUTttEptIp2+AUV1D1epU4LjihHWtJL7RjLmG3tXLxksFNClG5DihQRS4mhjhOWsNnoTRqa6+V8VkBK1fGsbVQP2fBmeqzoy5BGwpQua4pUEUuQ60ElUkbJFE+YRubqlNQLaMK9lJcOwvq5yw4U302AtBrBVfroNJAFKgin0KtYmdcK5N2NKcybuux0bT93IdCtlH/pjkXPjtJ9enlbMRf2GUh6rfZMRcNWJBGpkAVqadaErIlqOZtclM0YWdhoynb7HR+elPM+dby+a/no6QF68x6jWPh6LdY5em12gUGYYcdZXFTGvMnzUeBKnK1xbOO65STijZvreJo2jZBVQtQK37k6M65sJ0duPGFl5dV/Toffu3M/rHkszMrLM9Vm45v7VovZxWmn0s+WpOdt0Gy+9ZF4SlNT4EqMpdmh2bNKthaycK1Wkpel5OPUhK4yVGfOEqurqvZr3HRucXOrMBzkyMpvgWlk5zldEPbUeumbLetl7bXXsa+dmYFrEJT5NIUqCIiInWg0dEiIiJ1oEAVERGpAwWqiIhIHShQRURE6kCBKiIiUgcKVBERkTpQoIqIiNSBAlVERKQOFKgiIiJ1oEAVERGpAwWqiIhIHShQRURE6kCBKiIiUgcKVBERkTr4LxZBbCbiFntrAAAAAElFTkSuQmCC;" parent="1" vertex="1">
                    <mxGeometry x="-110" y="-95" width="153.25" height="130" as="geometry"/>
                </mxCell>
                <mxCell id="51" value="StudentViewModel" style="rounded=0;whiteSpace=wrap;html=1;strokeWidth=4;strokeColor=#994c00;gradientColor=none;gradientDirection=north;" parent="1" vertex="1">
                    <mxGeometry x="490" y="250" width="170" height="60" as="geometry"/>
                </mxCell>
                <mxCell id="52" value="PrismaStudentMapper" style="rounded=0;whiteSpace=wrap;html=1;strokeWidth=4;strokeColor=#2FCCCC;gradientColor=none;gradientDirection=north;" parent="1" vertex="1">
                    <mxGeometry x="827" y="265" width="170" height="60" as="geometry"/>
                </mxCell>
                <mxCell id="53" value="PrismaStudentMapper" style="rounded=0;whiteSpace=wrap;html=1;strokeWidth=4;strokeColor=#2FCCCC;gradientColor=none;gradientDirection=north;" parent="1" vertex="1">
                    <mxGeometry x="815" y="-120" width="170" height="60" as="geometry"/>
                </mxCell>
                <mxCell id="54" value="&lt;p&gt;&lt;font face=&quot;Georgia&quot;&gt;&lt;b&gt;DatabaseModule&lt;/b&gt;&lt;/font&gt;&lt;/p&gt;" style="text;html=1;strokeColor=none;fillColor=none;align=center;verticalAlign=middle;whiteSpace=wrap;rounded=0;strokeWidth=4;" vertex="1" parent="1">
                    <mxGeometry x="685" y="-20" width="60" height="30" as="geometry"/>
                </mxCell>
                <mxCell id="55" value="" style="rounded=0;whiteSpace=wrap;html=1;strokeColor=#18F018;strokeWidth=4;" vertex="1" parent="1">
                    <mxGeometry x="350" y="450" width="260" height="280" as="geometry"/>
                </mxCell>
                <mxCell id="46" value="&lt;p&gt;&lt;font face=&quot;Georgia&quot;&gt;&lt;b&gt;UseCases&lt;/b&gt;&lt;/font&gt;&lt;/p&gt;" style="text;html=1;strokeColor=none;fillColor=none;align=center;verticalAlign=middle;whiteSpace=wrap;rounded=0;strokeWidth=4;" parent="1" vertex="1">
                    <mxGeometry x="520" y="455" width="60" height="30" as="geometry"/>
                </mxCell>
                <mxCell id="58" value="&lt;p&gt;&lt;font face=&quot;Georgia&quot;&gt;&lt;b&gt;External framework (DB)&lt;/b&gt;&lt;/font&gt;&lt;/p&gt;" style="text;html=1;strokeColor=none;fillColor=none;align=center;verticalAlign=middle;whiteSpace=wrap;rounded=0;strokeWidth=4;" vertex="1" parent="1">
                    <mxGeometry x="720" y="-280" width="150" height="30" as="geometry"/>
                </mxCell>
                <mxCell id="20" value="" style="rounded=0;whiteSpace=wrap;html=1;strokeWidth=4;strokeColor=#2FCCCC;gradientColor=none;gradientDirection=north;" parent="1" vertex="1">
                    <mxGeometry x="380" y="490" width="187" height="40" as="geometry"/>
                </mxCell>
                <mxCell id="27" value="&lt;p&gt;&lt;font face=&quot;Georgia&quot;&gt;&lt;b&gt;CreateStudent&lt;/b&gt;&lt;/font&gt;&lt;/p&gt;" style="text;html=1;strokeColor=none;fillColor=none;align=center;verticalAlign=middle;whiteSpace=wrap;rounded=0;strokeWidth=4;" parent="1" vertex="1">
                    <mxGeometry x="443.5" y="495" width="60" height="30" as="geometry"/>
                </mxCell>
                <mxCell id="38" style="edgeStyle=none;html=1;exitX=0;exitY=1;exitDx=0;exitDy=0;entryX=0.5;entryY=0;entryDx=0;entryDy=0;strokeColor=#B5B5B5;strokeWidth=3;fontFamily=Georgia;" parent="1" source="37" target="20" edge="1">
                    <mxGeometry relative="1" as="geometry"/>
                </mxCell>
                <mxCell id="32" style="edgeStyle=none;html=1;exitX=1;exitY=0.5;exitDx=0;exitDy=0;entryX=0;entryY=0.5;entryDx=0;entryDy=0;strokeColor=#B5B5B5;strokeWidth=3;fontFamily=Georgia;" parent="1" source="20" target="21" edge="1">
                    <mxGeometry relative="1" as="geometry"/>
                </mxCell>
                <mxCell id="56" value="" style="rounded=0;whiteSpace=wrap;html=1;strokeColor=#18F018;strokeWidth=4;" vertex="1" parent="1">
                    <mxGeometry x="370" y="590" width="220" height="100" as="geometry"/>
                </mxCell>
                <mxCell id="57" value="&lt;p&gt;&lt;font face=&quot;Georgia&quot;&gt;&lt;b&gt;Entities&lt;/b&gt;&lt;/font&gt;&lt;/p&gt;" style="text;html=1;strokeColor=none;fillColor=none;align=center;verticalAlign=middle;whiteSpace=wrap;rounded=0;strokeWidth=4;" vertex="1" parent="1">
                    <mxGeometry x="450" y="590" width="60" height="30" as="geometry"/>
                </mxCell>
                <mxCell id="59" style="edgeStyle=none;html=1;strokeColor=#B5B5B5;strokeWidth=3;fontFamily=Georgia;exitX=0.5;exitY=1;exitDx=0;exitDy=0;entryX=0.25;entryY=0;entryDx=0;entryDy=0;" edge="1" parent="1" source="20" target="61">
                    <mxGeometry relative="1" as="geometry">
                        <mxPoint x="470" y="550" as="sourcePoint"/>
                        <mxPoint x="480" y="590" as="targetPoint"/>
                    </mxGeometry>
                </mxCell>
                <mxCell id="61" value="" style="rounded=0;whiteSpace=wrap;html=1;strokeWidth=4;strokeColor=#2FCCCC;gradientColor=none;gradientDirection=north;" vertex="1" parent="1">
                    <mxGeometry x="386.5" y="630" width="187" height="40" as="geometry"/>
                </mxCell>
                <mxCell id="62" value="&lt;p&gt;&lt;font face=&quot;Georgia&quot;&gt;&lt;b&gt;Student&lt;/b&gt;&lt;/font&gt;&lt;/p&gt;" style="text;html=1;strokeColor=none;fillColor=none;align=center;verticalAlign=middle;whiteSpace=wrap;rounded=0;strokeWidth=4;" vertex="1" parent="1">
                    <mxGeometry x="450" y="635" width="60" height="30" as="geometry"/>
                </mxCell>
            </root>
        </mxGraphModel>
    </diagram>
</mxfile>